<?xml version="1.0" encoding="UTF-8" standalone="no"?><!DOCTYPE svg PUBLIC "-//W3C//DTD SVG 1.1//EN" "http://www.w3.org/Graphics/SVG/1.1/DTD/svg11.dtd">
<svg width="100%" height="100%" viewBox="0 0 2671 1467" version="1.1"
    xmlns="http://www.w3.org/2000/svg"
    xmlns:xlink="http://www.w3.org/1999/xlink" xml:space="preserve"
    xmlns:serif="http://www.serif.com/" style="fill-rule:evenodd;clip-rule:evenodd;stroke-miterlimit:10;">
    <g>
        <g id="Traffic-Light" serif:id="Traffic Light">
            <path d="M700.972,1339.13l-33.492,-0l8.542,-714.5l0.704,-59.513l14.971,0l0.704,59.513l8.571,714.5Z" style="fill:#ffc800;fill-rule:nonzero;"/>
            <g opacity="0.1">
                <path d="M692.4,624.633l-16.379,-0l0.704,-59.513l14.971,0l0.704,59.513Z" style="fill-rule:nonzero;"/>
            </g>
            <path d="M624.187,416.832l9.446,167.679l11.05,1.763l10.058,1.587l0,-181.045l-21.375,7l-9.179,3.016Z" style="fill:#ffc800;fill-rule:nonzero;"/>
            <path d="M634.609,436.395c-0,0 -40.813,0.417 -39.98,2.708c0.834,2.288 17.284,6.871 18.742,7.913c1.454,1.042 17.075,30.817 21.238,30.817c4.166,-0 -0,-41.438 -0,-41.438" style="fill:#ffc800;fill-rule:nonzero;"/>
            <path d="M637.616,483.872c0,0 -40.812,0.417 -39.979,2.709c0.834,2.287 17.279,6.87 18.738,7.912c1.458,1.042 17.079,30.817 21.241,30.817c4.163,-0 0,-41.438 0,-41.438" style="fill:#ffc800;fill-rule:nonzero;"/>
            <path d="M640.624,531.349c-0,-0 -40.813,0.417 -39.979,2.708c0.829,2.288 17.283,6.871 18.737,7.913c1.459,1.041 17.075,30.816 21.242,30.816c4.162,0 -0,-41.437 -0,-41.437" style="fill:#ffc800;fill-rule:nonzero;"/>
            <g opacity="0.1">
                <path d="M633.367,413.816l11.317,172.458l10.058,1.584l0,-181.042l-21.375,7Z" style="fill-rule:nonzero;"/>
            </g>
            <path d="M744.234,416.832l-9.446,167.679l-11.05,1.763l-10.058,1.587l-0,-181.045l21.375,7l9.179,3.016Z" style="fill:#ffc800;fill-rule:nonzero;"/>
            <path d="M733.813,436.395c0,0 40.813,0.417 39.979,2.708c-0.833,2.288 -17.283,6.871 -18.741,7.913c-1.455,1.042 -17.075,30.817 -21.238,30.817c-4.167,-0 0,-41.438 0,-41.438" style="fill:#ffc800;fill-rule:nonzero;"/>
            <path d="M730.804,483.872c0,0 40.813,0.417 39.98,2.709c-0.834,2.287 -17.284,6.87 -18.738,7.912c-1.458,1.042 -17.075,30.817 -21.242,30.817c-4.162,-0 0,-41.438 0,-41.438" style="fill:#ffc800;fill-rule:nonzero;"/>
            <path d="M727.797,531.349c0,-0 40.813,0.417 39.979,2.708c-0.829,2.288 -17.283,6.871 -18.737,7.913c-1.458,1.041 -17.075,30.816 -21.242,30.816c-4.162,0 0,-41.437 0,-41.437" style="fill:#ffc800;fill-rule:nonzero;"/>
            <g opacity="0.1">
                <path d="M735.054,413.816l-11.316,172.458l-10.059,1.584l0,-181.042l21.375,7Z" style="fill-rule:nonzero;"/>
            </g>
            <path d="M722.542,393.169l-3.346,198.787l-69.962,0l-3.346,-198.787l76.654,-0Z" style="fill:#ffc800;fill-rule:nonzero;"/>
            <path d="M709.155,428.452c0,13.775 -11.166,24.938 -24.937,24.938c-13.775,-0 -24.942,-11.163 -24.942,-24.938c0,-13.775 11.167,-24.941 24.942,-24.941c13.771,-0 24.937,11.166 24.937,24.941" style="fill:#f96a55;fill-rule:nonzero;"/>
            <path d="M709.155,554.273c0,13.775 -11.166,24.942 -24.937,24.942c-13.775,0 -24.942,-11.167 -24.942,-24.942c0,-13.775 11.167,-24.937 24.942,-24.937c13.771,-0 24.937,11.162 24.937,24.937" style="fill:#1d1d1f;fill-rule:nonzero;"/>
            <path d="M709.155,492.004c0,13.775 -11.166,24.937 -24.937,24.937c-13.775,0 -24.942,-11.162 -24.942,-24.937c0,-13.771 11.167,-24.938 24.942,-24.938c13.771,0 24.937,11.167 24.937,24.938" style="fill:#1d1d1f;fill-rule:nonzero;"/>
            <path d="M711.044,1460.48l-53.667,0l4.592,-140.425l1.408,-43.596l40.533,0l1.684,43.596l5.45,140.425Z" style="fill:#ffc800;fill-rule:nonzero;"/>
            <g opacity="0.1">
                <path d="M705.594,1320.05l-43.625,-0l1.409,-43.596l40.533,0l1.683,43.596Z" style="fill-rule:nonzero;"/>
            </g>
        </g>
        <g id="Smoke">
            <g opacity="0.5">
                <path d="M976.204,1249.73c27.125,19.259 180.575,-94.137 209.354,-115.97c28.775,-21.838 8.525,-101.725 -26.013,-116.938c-34.533,-15.217 -63.491,-32.446 -70.421,-74.992c-6.929,-42.55 4.467,-64.833 36.23,-75.408c31.766,-10.579 94.745,-29.337 80.629,-96.512c-14.117,-67.175 -87.413,-51.971 -127.317,-65c-39.908,-13.034 -84.096,-32.58 -81.004,-78.184c3.092,-45.608 45.808,-39.096 113.492,-41.266c67.683,-2.171 116.491,-116.188 121.95,-149.85c5.458,-33.663 -2.688,-106.959 -40.15,-109.675c-37.463,-2.713 -62.98,50.495 -85.784,30.404c-22.804,-20.088 41.804,-39.634 40.721,-64.609c-1.087,-24.975 -23.346,-47.237 -49.408,-28.775c-26.063,18.459 -73.296,39.634 -94.471,4.888c-21.175,-34.75 0.542,-70.042 28.775,-80.358c28.233,-10.313 67.325,-15.742 74.383,-49.405c7.059,-33.662 -41.262,-76.012 -21.175,-112.391c20.088,-36.375 50.492,-19 50.492,-19c-0,-0 -35.833,-17.917 -58.092,4.883c-22.262,22.804 19,91.758 -6.516,111.304c-25.517,19.546 -114.563,14.659 -142.792,45.067c-28.233,30.404 -64.613,78.725 -40.179,118.9c24.433,40.179 90.129,45.067 116.187,45.067c26.063,-0 49.409,-11.946 58.638,-7.059c9.233,4.888 -3.8,19.546 -26.604,28.775c-22.8,9.229 -72.755,49.95 -37.463,83.613c35.292,33.662 91.217,-8.688 113.475,-19.546c22.263,-10.858 0,118.904 -59.721,128.675c-59.725,9.775 -89.046,-33.663 -126.508,-26.604c-37.463,7.058 -87.579,69.496 -59.263,143.337c28.317,73.842 169.488,95.867 181.971,116.888c12.484,21.021 8.35,43.45 -11.029,54.225c-19.379,10.771 -119.808,20.816 -145.879,98.321c-26.063,77.504 -29.092,237.262 83.492,317.195" style="fill:#fff;fill-rule:nonzero;"/>
                <path d="M1169.56,1126.71c27.054,-14.375 36.862,-53.996 29.791,-82.779c-1.825,-7 -4.354,-13.488 -9.437,-18.413c-22.792,-19.5 -62.025,-21.162 -78.079,-51.275c-8.554,-17.254 -12.892,-36.466 -8.179,-56.046c5.145,-22.612 27.045,-37.566 47.991,-42.287c17.288,-3.146 34.367,-8.021 47.692,-20.042c27.058,-22.829 35.379,-61.9 28.179,-95.962c-3.208,-17.292 -12.929,-32.15 -28.3,-40.967c-15.162,-9.058 -33.55,-13.292 -51.746,-18.358c-18.408,-5.629 -39.925,-10.054 -51.087,-27.904c-11.838,-18.471 -1.329,-42.717 15.696,-53.442c8.154,-5.642 17.475,-9.129 26.945,-11.092c9.4,-1.775 18.513,-1.754 27.163,-5.825c34.283,-15.887 51.596,-54.754 62.2,-89.25c-9.75,35.613 -25.679,74.979 -60.663,92.7c-8.491,4.425 -18.67,5.021 -27.679,6.992c-8.896,2.158 -17.45,5.742 -24.654,11.104c-25.025,18.046 -22.162,49.658 7.929,59.667c26.813,10.258 55.2,11.162 81.625,25.466c18.138,9.359 31.484,28.121 35.65,47.975c15.063,58.75 -14.775,123.725 -77.654,135.846c-28.121,5.521 -46.171,23.821 -37.783,53.4c1.529,5.617 3.454,11.546 6.446,16.675c4.941,8.042 12.333,12.592 22.029,17.092c22.25,9.946 52.491,16.2 65.291,41.092c17.15,34.495 12.775,77.633 -8.929,109.17c-6.533,9.225 -15.254,17.313 -25.333,23.246l-15.104,-26.783Z" style="fill:#fff;fill-rule:nonzero;"/>
                <path d="M947.699,1266.92c-73.267,-71.184 -132.404,-171.559 -118.896,-277.067c6.5,-43.196 23.288,-85.737 52.642,-117.975c24.746,-24.712 57.491,-38.529 89.712,-49.821c6.179,-2.212 16.604,-5.533 22.238,-8.55c9.275,-4.633 11.237,-21.15 1.962,-26.583c-54.541,-30.942 -143.65,-54.125 -151.104,-127.788c11.363,72.588 100.85,89.871 156.663,117.917c17.508,9.392 15.3,37.6 -1.213,46.771c-6.879,3.983 -16.671,7.396 -23.996,10.396c-22.596,8.875 -45.433,19.116 -64.646,33.571c-12.716,9.6 -23.516,20.775 -31.058,34.387c-33.683,55.288 -40.3,123.213 -19.3,184.133c20.363,60.471 60.071,114.763 107.188,157.421l-20.192,23.188" style="fill:#fff;fill-rule:nonzero;"/>
            </g>
        </g>
        <g id="Car-1" serif:id="Car 1">
            <path d="M99.864,1461.79l-51.441,-0c-25.9,-0 -46.896,-20.996 -46.896,-46.896l-0,-209.121c-0,-25.9 20.996,-46.896 46.896,-46.896l51.441,0c25.9,0 46.896,20.996 46.896,46.896l0,209.121c0,25.9 -20.996,46.896 -46.896,46.896" style="fill:#1a2e35;fill-rule:nonzero;"/>
            <path d="M875.514,1454.36l51.163,5.35c25.758,2.696 48.825,-16.004 51.517,-41.762l21.75,-207.988c2.695,-25.758 -16.005,-48.825 -41.763,-51.517l-51.162,-5.35c-25.759,-2.695 -48.821,16.005 -51.517,41.763l-21.75,207.987c-2.692,25.759 16.004,48.825 41.762,51.517" style="fill:#1a2e35;fill-rule:nonzero;"/>
            <path d="M137.341,937.216c0,-0 -19.85,-9.225 -22.687,-14.079c-2.838,-4.854 -15.167,-25.313 -19.742,-26.267c-17.175,-3.587 -64.463,-3.679 -80.654,4.225c-8.863,4.325 -1.067,39.192 6.579,47.6c7.646,8.408 64.508,12.321 73.775,10.825c9.271,-1.496 16.433,-10.675 16.433,-10.675l22.404,7.192l3.892,-18.821Z" style="fill:#375a64;fill-rule:nonzero;"/>
            <path d="M143.924,912.029c-0,0 -15.425,1.625 -19.263,4.696c-3.837,3.067 -16.471,28.338 -16.079,37.275c0.392,8.933 9.433,18.454 9.433,18.454l25.909,-60.425Z" style="fill:#375a64;fill-rule:nonzero;"/>
            <g opacity="0.1">
                <path d="M143.924,912.029c-0,0 -15.425,1.625 -19.263,4.696c-3.837,3.067 -16.471,28.338 -16.079,37.275c0.392,8.933 9.433,18.454 9.433,18.454l25.909,-60.425Z" style="fill-rule:nonzero;"/>
            </g>
            <path d="M913.766,969.989c-0,-0 21.891,0.125 26.525,-3.05c4.637,-3.179 24.52,-16.425 29.062,-15.333c17.067,4.083 59.871,24.179 71.142,38.237c6.171,7.692 -15.759,35.9 -26.263,40.242c-10.504,4.341 -63.596,-16.384 -71.341,-21.692c-7.746,-5.308 -10.305,-16.667 -10.305,-16.667l-23.333,-3.054l4.513,-18.683Z" style="fill:#375a64;fill-rule:nonzero;"/>
            <path d="M894.408,953.637c0,-0 15.113,3.487 18.55,7c3.433,3.512 12.904,30.133 11.429,38.954c-1.475,8.821 -11.604,17.171 -11.604,17.171l-18.375,-63.125Z" style="fill:#375a64;fill-rule:nonzero;"/>
            <g opacity="0.1">
                <path d="M894.408,953.637c0,-0 15.113,3.487 18.55,7c3.433,3.512 12.904,30.133 11.429,38.954c-1.475,8.821 -11.604,17.171 -11.604,17.171l-18.375,-63.125Z" style="fill-rule:nonzero;"/>
            </g>
            <path d="M64.161,1053.67c0,0 -34.317,15.834 -42.854,31.355c-8.538,15.516 -7.046,179.425 -7.538,191.958c-0.491,12.533 20.671,95.287 24.967,104.046c4.3,8.758 67.9,21.162 67.9,21.162l-42.475,-348.521Z" style="fill:#375a64;fill-rule:nonzero;"/>
            <g opacity="0.1">
                <path d="M64.161,1053.67c0,0 -34.317,15.834 -42.854,31.355c-8.538,15.516 -7.046,179.425 -7.538,191.958c-0.491,12.533 20.671,95.287 24.967,104.046c4.3,8.758 67.9,21.162 67.9,21.162l-42.475,-348.521Z" style="fill-rule:nonzero;"/>
            </g>
            <path d="M955.369,1088.66c-0,0 20.604,21.442 24.008,30.034c0.821,2.062 1.996,17.712 2.708,21.666c0,0 7.875,20.838 8.163,28.175c0.229,5.896 -15.963,113.275 -15.192,124.467c0.754,10.946 6.638,17.667 6.454,22.421c-0.1,2.558 -5.329,12.808 -5.504,14.125c-0.146,1.062 2.346,10.766 1.425,13.875c-8.487,28.625 -18.812,67.554 -22.383,73.579c-4.971,8.396 -69.346,15.779 -69.346,15.779l69.667,-344.121Z" style="fill:#375a64;fill-rule:nonzero;"/>
            <g opacity="0.1">
                <path d="M955.369,1088.66c-0,0 20.604,21.442 24.008,30.034c0.821,2.062 1.996,17.712 2.708,21.666c0,0 7.875,20.838 8.163,28.175c0.229,5.896 -15.963,113.275 -15.192,124.467c0.754,10.946 6.638,17.667 6.454,22.421c-0.1,2.558 -5.329,12.808 -5.504,14.125c-0.146,1.062 2.346,10.766 1.425,13.875c-8.487,28.625 -18.812,67.554 -22.383,73.579c-4.971,8.396 -69.346,15.779 -69.346,15.779l69.667,-344.121Z" style="fill-rule:nonzero;"/>
            </g>
            <path d="M957.761,1361.29c-0.496,4.27 -17.425,65.058 -23.621,71.07c-6.167,6.046 -125.117,6.325 -132.375,6.038c-7.234,-0.283 -29.492,-14.029 -33.738,-15.179c-4.246,-1.179 -242.525,-9.85 -271.654,-10.996c-29.158,-1.142 -267.354,-11.179 -271.679,-10.338c-4.325,0.813 -27.592,12.775 -34.85,12.488c-7.263,-0.283 -125.792,-9.883 -131.496,-16.396c-5.675,-6.483 -17.787,-68.408 -17.946,-72.704c-0.158,-4.3 5.046,-19.292 5.179,-22.596c0.13,-3.304 5.609,-233.242 6.767,-237.667c1.154,-4.395 11.783,-35.208 16.271,-41.708c4.458,-6.533 43.933,-52.546 45.033,-55.483c25.842,-68.479 94.517,-167.467 104.775,-176.004c10.229,-8.509 23.567,-13.438 33.521,-14.3c9.929,-0.83 143.963,-0.517 269.175,4.4c125.208,4.916 258.854,15.112 268.688,16.716c9.858,1.642 22.737,7.6 32.295,16.888c9.53,9.312 70.23,113.379 90.655,183.675c0.866,3.016 36.612,51.983 40.545,58.841c3.934,6.83 12.113,38.384 12.921,42.855c0.392,2.108 -4.758,52.145 -7.591,106.65c-0.35,6.75 1.341,15.012 1.541,21.775c0.092,3.104 -18.271,33.066 -18.096,34.795c0.75,7.484 12.342,72.83 12.288,74.25c-0.129,3.3 3.887,18.659 3.392,22.93" style="fill:#375a64;fill-rule:nonzero;"/>
            <g opacity="0.1">
                <path d="M930.564,1319.24c-0.155,3.958 -6.721,34.546 -10.234,35.271c-96.479,20.025 -326.737,30.979 -422.696,25.633c-96.083,-2.196 -324.775,-31.171 -419.383,-58.696c-3.45,-1 -7.596,-32.008 -7.442,-35.962c0.159,-3.958 5.838,-47.663 10.767,-48.779c4.963,-1.15 105.3,21 189.838,35.612c117.866,20.396 229.537,23.288 229.537,23.288c0,-0 111.525,5.871 230.658,-5.217c85.396,-7.942 187.188,-22.154 192.046,-20.625c4.829,1.504 7.063,45.517 6.909,49.475" style="fill-rule:nonzero;"/>
            </g>
            <g opacity="0.5">
                <path d="M838.654,1278.8l-36.154,91.263c-106.471,9.645 -238.15,13.804 -304.879,10.083c-66.812,-1.521 -197.729,-15.988 -303.112,-33.954l-28.892,-93.817c32.646,6.467 70.592,13.858 105.787,19.95c117.867,20.392 229.538,23.283 229.538,23.283c-0,0 111.525,5.871 230.658,-5.216c35.563,-3.313 74,-7.704 107.054,-11.592" style="fill:#fff;fill-rule:nonzero;"/>
            </g>
            <path d="M731.611,1290.39c0.388,2.221 -19.304,37.804 -33.929,58.866c-4.358,6.267 -24.7,20.338 -29.321,21.142c-4.679,0.8 -62.208,14.008 -170.729,9.746c-108.517,-4.263 -164.833,-21.938 -169.438,-23.104c-4.541,-1.163 -23.716,-16.784 -27.57,-23.371c-12.93,-22.146 -29.771,-59.163 -29.209,-61.346c0.5,-2.187 67.967,16.942 229.538,23.288c161.571,6.341 230.329,-7.438 230.658,-5.221" style="fill:#1a2e35;fill-rule:nonzero;"/>
            <path d="M141.471,1287.78c-0.433,11.066 -9.758,19.683 -20.825,19.25c-11.067,-0.434 -19.683,-9.759 -19.25,-20.825c0.438,-11.063 9.758,-19.684 20.825,-19.25c11.067,0.437 19.683,9.758 19.25,20.825" style="fill:#fff;fill-rule:nonzero;"/>
            <path d="M107.822,1272.26c-7.925,7 -7.896,20.533 -0.013,27.321c17.138,14.937 40.817,-6.95 27.263,-25.204c-6.158,-8.384 -19.646,-9.471 -27.25,-2.117m-0,-0c13.112,-12.617 36.333,-2.946 36.204,15.612c0.35,12.296 -11.283,23.046 -23.479,21.717c-18.525,-1.308 -26.338,-25.246 -12.725,-37.329" style="fill:#dcdcdc;fill-rule:nonzero;"/>
            <path d="M857.762,1315.9c-0.433,11.067 8.184,20.387 19.25,20.825c11.067,0.433 20.392,-8.183 20.825,-19.25c0.434,-11.067 -8.183,-20.392 -19.25,-20.825c-11.066,-0.433 -20.391,8.183 -20.825,19.25" style="fill:#fff;fill-rule:nonzero;"/>
            <path d="M892.524,1303.07c12.617,13.113 2.963,36.363 -15.612,36.217c-12.258,0.367 -23.017,-11.258 -21.704,-23.492c1.325,-18.508 25.233,-26.333 37.316,-12.725m0,0c-7.004,-7.925 -20.533,-7.908 -27.329,-0.025c-14.95,17.142 6.946,40.809 25.2,27.263c8.388,-6.15 9.484,-19.638 2.129,-27.238" style="fill:#dcdcdc;fill-rule:nonzero;"/>
            <path d="M894.832,995.122c0,0 -179.079,0.809 -381.8,-7.154c-202.725,-7.958 -381.187,-22.804 -381.187,-22.804c40.2,-90.267 90.829,-159.296 96.254,-163.046c5.421,-3.75 24.496,-9.946 29.817,-11.05c22.683,-4.742 183.312,0.583 262.7,3.7c79.358,3.117 239.912,10.4 262.154,16.908c5.246,1.517 23.779,9.188 28.891,13.355c5.109,4.162 50.171,76.95 83.171,170.091" style="fill:#2b454e;fill-rule:nonzero;"/>
            <path d="M894.832,995.122c0,0 -179.079,0.809 -381.8,-7.154c-202.725,-7.958 -381.187,-22.804 -381.187,-22.804c3.791,-8.492 7.662,-16.804 11.554,-24.875c41.087,3.25 196.962,15.121 370.642,21.942c173.683,6.82 330.004,7.204 371.22,7.183c3.25,8.354 6.459,16.942 9.571,25.708" style="fill:#1a2e35;fill-rule:nonzero;"/>
            <g opacity="0.3">
                <path d="M894.832,995.122c-17.058,-12.425 -38.946,-26.8 -54.75,-39.462c0.004,-0 0.242,-25.938 0.242,-25.938l0.525,0.854l-38.758,-18.654l-0.25,-0.121l-0.155,-0.229l-28.887,-43.45c-19.175,-6.862 -43.467,-16.833 -64.25,-24.916c21.867,7.945 44.087,15.529 65.658,23.975l29.179,43.254l-0.404,-0.35l38.684,18.808l0.537,0.263l-0.008,0.595l-0.471,25.93c15.383,10.129 36.083,26.95 53.108,39.441" style="fill:#fff;fill-rule:nonzero;"/>
                <path d="M861.893,971.025c-17.863,1.158 -35.75,2.529 -53.613,3.429l-40.087,-12.091c-17.709,-1.317 -37.742,-2.925 -56.209,-4.505c-18.9,-1.583 -37.8,-3.15 -56.683,-4.9c-10.654,-13.679 -21.133,-27.495 -31.654,-41.275c10.121,12.838 23.637,28.292 32.067,39.938c18.82,1.317 37.62,2.812 56.429,4.287c18.875,1.455 37.75,3.009 56.604,4.659l39.946,12.554c16.466,-0.883 35.791,-1.425 53.2,-2.096" style="fill:#fff;fill-rule:nonzero;"/>
                <path d="M756.296,960.476c-12.759,-7.275 -25.717,-15.608 -37.888,-23.833c-7.075,-1.163 -18.112,-3.905 -26.425,-6.013c9.154,1.179 18.263,2.596 27.313,4.317c12.416,7.979 25.229,16.625 37,25.529" style="fill:#fff;fill-rule:nonzero;"/>
                <path d="M836.309,927.343c-3.954,-6.713 -7.662,-13.55 -11.241,-20.45c1.508,-7.65 3.929,-18.471 5.737,-26.167l0.104,0.633c-3.125,-5.691 -6.266,-11.375 -9.15,-17.208c3.784,5.429 7.296,11.021 10.83,16.592c-1.571,7.795 -3.842,18.579 -5.667,26.212c2.5,3.738 6.637,14.25 9.387,20.388" style="fill:#fff;fill-rule:nonzero;"/>
                <path d="M835.695,972.38c-7.462,-5.017 -16.129,-11.158 -22.741,-15.987l-16.792,-7.071l-16.692,-7.309l-0.425,-0.183c-1.196,-5.187 -2.171,-10.425 -3.258,-15.633c-1.038,-5.067 -1.979,-10.154 -2.875,-15.25c1.412,4.979 2.775,9.971 4.046,14.983c1.246,5.017 2.608,10.008 3.758,15.046l-0.525,-0.633l16.783,7.091l16.68,7.334c7.445,5.725 14.808,11.595 22.041,17.612" style="fill:#fff;fill-rule:nonzero;"/>
                <path d="M781.526,965.486c-7.358,4.333 -14.833,8.429 -22.395,12.362c-12.034,0.033 -24.063,-0.221 -36.084,-0.812c-3.983,-0.171 -7.962,-0.446 -11.941,-0.763c3.987,-0.212 7.975,-0.375 11.958,-0.442c11.242,-0.154 25.842,-0.375 35.425,0.267c7.583,-3.725 15.254,-7.283 23.037,-10.612" style="fill:#fff;fill-rule:nonzero;"/>
            </g>
            <path d="M194.604,952.492l62.863,2.467c-0,-0 -3.558,-13.704 -5.242,-15.742c-1.683,-2.037 -17.783,-5.508 -25.391,-5.804c-7.613,-0.3 -23.934,1.896 -25.771,3.796c-1.838,1.9 -6.459,15.283 -6.459,15.283" style="fill:#1a2e35;fill-rule:nonzero;"/>
            <path d="M224.889,934.934c0,-0 37.13,-12.096 40.638,-12.433c3.508,-0.334 151.729,-5.95 151.729,-5.95l0.225,3.254c0,-0 -143.183,10.416 -145.521,10.633c-2.341,0.213 -46.308,15.583 -46.308,15.583l-0.763,-11.087Z" style="fill:#1a2e35;fill-rule:nonzero;"/>
            <path d="M610.09,968.805l62.862,2.467c0,-0 -3.558,-13.704 -5.241,-15.742c-1.688,-2.037 -17.784,-5.508 -25.392,-5.804c-7.613,-0.3 -23.933,1.896 -25.771,3.796c-1.837,1.9 -6.458,15.283 -6.458,15.283" style="fill:#1a2e35;fill-rule:nonzero;"/>
            <path d="M640.374,951.247c0,-0 37.13,-12.096 40.638,-12.434c3.508,-0.333 151.729,-5.95 151.729,-5.95l0.225,3.255c0,-0 -143.183,10.416 -145.521,10.633c-2.341,0.212 -46.308,15.583 -46.308,15.583l-0.763,-11.087Z" style="fill:#1a2e35;fill-rule:nonzero;"/>
            <g opacity="0.1">
                <path d="M457.131,792.453l-196.892,182.017c-16.525,-1.067 -31.804,-2.117 -45.654,-3.075l195.129,-180.387c16.046,0.454 32.058,0.933 47.417,1.445" style="fill:#fff;fill-rule:nonzero;"/>
                <path d="M817.537,832.948l-172.212,159.2c-15.484,-0.396 -31.409,-0.812 -47.634,-1.271l191.388,-176.929c7.658,2.983 18.787,8.013 22.571,11.079c0.866,0.721 2.904,3.454 5.887,7.921" style="fill:#fff;fill-rule:nonzero;"/>
                <path d="M882.513,962.513l-35.221,32.562c-13.737,-0.067 -30.096,-0.171 -48.625,-0.362l70.013,-64.721c4.629,10.346 9.271,21.196 13.833,32.521" style="fill:#fff;fill-rule:nonzero;"/>
                <path d="M394.71,790.598l-194.446,179.759c-2.408,-0.154 -4.729,-0.338 -7.016,-0.488l194.137,-179.471l7.325,0.2Z" style="fill:#fff;fill-rule:nonzero;"/>
                <path d="M621.19,799.223l-199.767,184.641c-2.379,-0.121 -4.758,-0.246 -7.137,-0.366l199.737,-184.646c2.379,0.125 4.758,0.216 7.167,0.371" style="fill:#fff;fill-rule:nonzero;"/>
                <path d="M860.416,912.026l-89.121,82.387c-2.441,-0.037 -4.946,-0.075 -7.45,-0.083l94.259,-87.133c0.77,1.579 1.541,3.187 2.312,4.829" style="fill:#fff;fill-rule:nonzero;"/>
                <path d="M292.306,789.26l-136.22,125.925c5.866,-11.183 11.733,-21.771 17.429,-31.679l101.55,-93.879c4.987,-0.192 10.771,-0.321 17.241,-0.367" style="fill:#fff;fill-rule:nonzero;"/>
                <path d="M684.295,802.594l-199.271,184.217c-5.387,-0.213 -10.741,-0.454 -16.066,-0.692l199.491,-184.446c5.38,0.3 10.671,0.63 15.846,0.921" style="fill:#fff;fill-rule:nonzero;"/>
            </g>
            <g opacity="0.1">
                <path d="M131.844,965.166c-9.096,19.112 -21.221,36.825 -33.475,54c-0.333,0.458 -0.988,1.37 -1.304,1.833c-0.7,2.008 1.475,6.317 2.629,8.537c1.637,3.225 3.596,6.35 5.512,9.559c-4.837,-4.163 -16.066,-14.379 -11.745,-21.334c10.912,-18.683 23.604,-36.741 38.383,-52.595" style="fill-rule:nonzero;"/>
            </g>
            <g opacity="0.1">
                <path d="M894.833,995.122c13.487,16.963 24.729,35.967 34.141,55.446c3.759,7.283 -8.212,16.554 -13.383,20.342c2.163,-3.046 4.363,-6.009 6.246,-9.092c1.321,-2.112 3.837,-6.254 3.292,-8.304c-0.28,-0.483 -0.863,-1.446 -1.159,-1.933c-10.871,-18.088 -21.566,-36.688 -29.137,-56.459" style="fill-rule:nonzero;"/>
            </g>
            <path d="M405.22,1245.94l195.062,7.659l-2.046,52.112l-195.062,-7.658l2.046,-52.113Z" style="fill:#fff;"/>
            <g opacity="0.1">
                <path d="M616.841,1118.6l-20.433,-33.587l-118.354,47.15l121.529,-5.275l17.258,-8.288Z" style="fill-rule:nonzero;"/>
            </g>
            <g opacity="0.1">
                <path d="M821.085,1086.84l-122.375,-93.388l-14.5,55.683l136.875,37.705Z" style="fill-rule:nonzero;"/>
            </g>
            <path d="M925.132,1053.5c-1.492,17.517 -40.304,43.371 -40.304,43.371c-0,-0 -37.546,12.237 -85.596,25.004c-0.046,0.038 -0.088,0.038 -0.171,0.038c-10.733,1.979 -22.096,3.866 -34.037,5.537c-64.921,9.075 -248.684,6.388 -303.263,5.813c21.6,-1.084 146.875,-11.821 155.079,-14.667c8.713,-3.092 59.292,-64.817 67.371,-69.463c3.954,-2.275 125.096,32.496 136.875,37.7c1.142,0.509 57.654,-41.758 59.071,-44.529c1.412,-2.733 14.683,-47.179 14.683,-47.179c0,0 31.05,49.492 30.292,58.375" style="fill:#1a2e35;fill-rule:nonzero;"/>
            <g opacity="0.1">
                <path d="M880.155,1042.31l-52.475,-47.096l67.163,-0.084l-14.688,47.18Z" style="fill-rule:nonzero;"/>
            </g>
            <g opacity="0.1">
                <path d="M958.439,1147.43c-0.167,4.195 -1.288,28.229 -4.638,30.066c-9.35,5.117 -50.17,16.296 -75.495,19.954c-118.567,17.096 -290.167,22.609 -374.205,17.909c-84.141,-1.904 -254.783,-20.85 -371.645,-47.192c-24.959,-5.633 -64.78,-19.979 -73.696,-25.812c-3.196,-2.092 -2.434,-26.142 -2.267,-30.338c0.163,-4.196 30.358,-59.037 35.621,-60.229c5.262,-1.225 62.079,34.146 158.779,55.496c99.154,21.891 256.333,28.537 256.333,28.537c0,0 157.217,5.696 257.78,-8.354c98.079,-13.704 157.375,-41.533 162.525,-39.9c5.15,1.604 31.07,55.667 30.908,59.863" style="fill-rule:nonzero;"/>
            </g>
            <g opacity="0.5">
                <path d="M953.801,1177.5c-34.296,16.596 -72.029,24.487 -109.604,29.437c-37.554,5.338 -75.25,9.609 -113.029,12.975c-75.629,6.471 -151.579,11.113 -227.559,8.017c-123.237,-5.879 -245.579,-26.113 -365.579,-54.171c-27.571,-6.85 -54.621,-17.287 -79.271,-31.4c25.317,12.267 52.63,21.542 80.238,27.029c120.575,22.267 242.512,41.175 365.079,46.65c75.392,3.392 151.046,-0.866 226.375,-5.35c37.721,-2.558 75.425,-5.558 113.033,-9.491c18.75,-2.013 37.621,-3.38 56.038,-7.584c18.329,-4.362 36.862,-8.812 54.279,-16.112" style="fill:#fff;fill-rule:nonzero;"/>
            </g>
            <path d="M113.94,1041.49c20.225,2.675 114.254,66.308 118.121,71.391c3.87,5.088 11.7,54.959 5.433,59.571c-6.263,4.609 -79.008,-0.729 -100.804,-5.116c-21.796,-4.388 -66.667,-18.455 -76.567,-26.709c-9.904,-8.258 0.104,-63.275 10.558,-73.966c13.438,-13.734 30.288,-26.888 43.259,-25.171" style="fill:#fff;fill-rule:nonzero;"/>
            <path d="M113.94,1041.49c-16.363,-0.659 -29.413,12.387 -40.554,22.816c-4.05,3.584 -6.475,8.275 -8.284,13.292c-3.633,9.967 -5.675,20.471 -6.966,30.967c-0.855,7.816 -1.405,15.796 -0.159,23.55c0.709,3.946 1.721,6.971 5.267,8.821c17.483,9.262 36.975,14.204 55.946,19.491c20.391,5.779 41.525,7.484 62.608,9.1c10.575,0.829 21.175,1.484 31.746,1.759c7.317,-0.005 15.354,0.733 22.329,-0.955c-0.079,0.305 0.525,-0.695 0.721,-1.775c1.829,-11.304 0.046,-23.216 -1.363,-34.825c-1.025,-6.404 -1.9,-13 -4.095,-19.029c-0.28,-0.954 -1.259,-1.525 -2.117,-2.387c-18.775,-14.75 -38.738,-28.05 -58.763,-41.125c-13.508,-8.5 -27.066,-17.029 -41.437,-24.021c-4.7,-2.358 -9.721,-4.538 -14.879,-5.679m-0,-0c5.179,1.125 10.2,3.246 14.929,5.575c14.392,6.962 28.117,15.212 41.821,23.425c20.458,12.541 40.979,25.079 60.379,39.316c2.496,1.621 3.875,4.596 4.592,7.484c1.558,5.246 2.608,10.5 3.583,15.787c1.796,10.742 3.471,21.3 2.987,32.325c-0.408,6.196 -1.6,10.263 -8.425,10.829c-17.491,1.859 -35.012,0.234 -52.458,-0.77c-16.029,-1.425 -32.121,-2.559 -47.912,-6.025c-23.421,-5.788 -46.675,-12.988 -68.313,-23.763c-2.404,-1.404 -4.729,-2.529 -6.987,-4.967c-5.542,-9.737 -2.946,-21.875 -1.867,-32.391c2.679,-14.234 5.204,-29.629 13.925,-41.538c11.662,-10.979 26.567,-26.183 43.746,-25.287" style="fill:#dcdcdc;fill-rule:nonzero;"/>
            <path d="M161.066,1117.27c1.029,-22.637 -27.134,-34.733 -42.713,-18.608c-9.117,8.908 -9.729,24.216 -1.337,33.816c14.266,17.317 43.308,7.442 44.05,-15.208m-0,0c-0.688,24.008 -30.713,36.004 -47.805,18.679c-11.337,-10.937 -10.541,-31.083 1.605,-41.058c18.391,-15.95 47.408,-1.608 46.2,22.379" style="fill:#dcdcdc;fill-rule:nonzero;"/>
            <path d="M214.297,1136.95c0.808,-19.183 -22.863,-29.171 -35.975,-15.5c-12.229,11.962 -4.438,33.962 12.692,35.596c11.587,1.65 23.083,-8.221 23.283,-20.096m-0,-0c-0.404,20.312 -26.392,30.9 -40.842,16.112c-9.841,-9.383 -9.154,-26.837 1.384,-35.383c15.562,-13.633 40.654,-1.012 39.458,19.271" style="fill:#dcdcdc;fill-rule:nonzero;"/>
            <path d="M103.172,1090.18c-3.463,8.887 -8.492,52.625 -7.063,58.479c0.592,2.391 2.88,5.908 5.375,9.2c-17.991,-5.642 -35.6,-12.417 -41.375,-17.238c-9.9,-8.241 0.113,-63.262 10.584,-73.958c13.416,-13.746 30.291,-26.9 43.241,-25.167c4.571,0.609 12.963,4.338 23.196,9.821c0,0 -30.525,29.975 -33.958,38.863" style="fill:#ffc800;fill-rule:nonzero;"/>
            <path d="M906.698,1072.62c-20.371,1.079 -119.1,57.146 -123.354,61.913c-4.259,4.766 -15.971,53.87 -10.088,58.958c5.883,5.087 78.821,5.471 100.896,2.804c22.075,-2.662 67.908,-13.171 78.425,-20.625c10.517,-7.454 4.858,-63.087 -4.729,-74.562c-12.321,-14.746 -28.084,-29.18 -41.15,-28.488" style="fill:#fff;fill-rule:nonzero;"/>
            <path d="M906.698,1072.62c17.216,0.454 30.846,16.779 41.629,28.642c7.767,12.554 9.062,28.1 10.621,42.5c0.258,10.637 1.896,22.783 -4.392,32.146c-2.446,2.25 -4.854,3.191 -7.362,4.404c-22.413,9.046 -46.159,14.396 -69.963,18.333c-26.683,3.183 -53.55,2.504 -80.333,1.275c-6.725,-0.454 -13.559,-0.937 -20.263,-2.371c-1.454,-0.396 -2.691,-0.512 -4.733,-1.8c-1.608,-1.087 -2.358,-3.454 -2.575,-5.271c-0.942,-12.458 2.475,-24.45 5.271,-36.375c1.387,-5.2 2.846,-10.354 4.808,-15.458c0.971,-2.817 2.513,-5.679 5.167,-7.104c20.454,-12.671 41.896,-23.563 63.275,-34.463c14.308,-7.108 28.637,-14.258 43.529,-20.07c4.892,-1.95 10.079,-3.688 15.321,-4.388m-0,0c-5.242,0.75 -10.4,2.508 -15.279,4.496c-14.875,5.842 -29.059,13.279 -43.192,20.696c-20.988,11.466 -41.933,23.162 -61.808,36.391c-0.925,0.792 -1.942,1.288 -2.296,2.217c-2.659,5.838 -4.05,12.342 -5.575,18.646c-2.317,11.462 -5.025,23.2 -4.092,34.612c0.113,1.092 0.638,2.134 0.583,1.825c0.217,0.146 1.642,0.621 2.763,0.817c16.833,2.638 34.15,2.408 51.208,2.625c21.146,0.042 42.346,-0.004 63.129,-4.167c19.325,-3.783 39.146,-7.183 57.3,-15.041c3.671,-1.571 4.95,-4.5 5.942,-8.384c1.85,-7.633 1.929,-15.629 1.688,-23.487c-0.459,-10.567 -1.675,-21.2 -4.513,-31.417c-1.412,-5.146 -3.454,-10.016 -7.221,-13.9c-10.275,-11.279 -22.283,-25.296 -38.637,-25.929" style="fill:#dcdcdc;fill-rule:nonzero;"/>
            <path d="M853.775,1144.47c0.679,-24.009 30.729,-36.034 47.813,-18.688c11.325,10.896 10.541,31.042 -1.621,41.058c-18.396,15.93 -47.392,1.617 -46.192,-22.37m0,-0c-1.037,22.637 27.15,34.762 42.721,18.616c9.117,-8.912 9.713,-24.225 1.321,-33.816c-14.275,-17.3 -43.292,-7.45 -44.042,15.2" style="fill:#dcdcdc;fill-rule:nonzero;"/>
            <path d="M799.165,1159.92c0.4,-20.312 26.404,-30.929 40.85,-16.121c9.829,9.346 9.154,26.8 -1.4,35.384c-15.559,13.608 -40.642,1.021 -39.45,-19.263m-0,0c-0.729,11.85 9.954,22.6 21.637,21.863c25.892,-1.542 27.329,-38.379 1.646,-41.946c-11.579,-1.675 -23.092,8.262 -23.283,20.083" style="fill:#dcdcdc;fill-rule:nonzero;"/>
            <path d="M913.615,1122c2.754,9.129 4.338,53.129 2.459,58.85c-0.78,2.341 -3.334,5.666 -6.084,8.754c18.379,-4.217 36.463,-9.588 42.6,-13.942c10.513,-7.437 4.846,-63.075 -4.75,-74.558c-12.3,-14.759 -28.091,-29.196 -41.137,-28.479c-4.604,0.245 -13.263,3.304 -23.892,7.966c0,0 28.079,32.279 30.804,41.409" style="fill:#ffc800;fill-rule:nonzero;"/>
            <path d="M958.249,1149.55l-13.942,11.021l-8.471,16.133l-10.279,-10.142l-8.675,3.425l-12.233,4.834l-12.083,-3.205l-8.492,2.55l-7.921,-18.066l-13.792,-0.192l-1.604,-10.812l7.354,-13.692l20.371,-14.683l-7.908,-3.609l2.1,-13.512l10.425,-6.775l11.604,-7.513l13.775,-7.937l13.679,14.604l11.854,4.746c1.313,1.437 2.584,2.912 3.813,4.387c3.733,4.467 6.912,15.721 8.742,28.163l-3.217,9.791l4.754,5.855c0.063,1.545 0.125,3.087 0.146,4.629" style="fill:#1a2e35;fill-rule:nonzero;"/>
            <path d="M882.673,1099.6c-4.479,0.233 -8.958,0.408 -13.433,0.463c-4.65,3.416 -13.063,8.045 -19.025,11.791c-11.454,4.542 -22.929,9.025 -34.663,12.834c10.813,-5.25 23.038,-10.309 33.609,-14.617c6.629,-3.8 13.195,-7.696 19.937,-11.308c4.525,0.179 9.05,0.479 13.575,0.837" style="fill:#dcdcdc;fill-rule:nonzero;"/>
            <path d="M862.362,1155.91c-6.208,-0.638 -14.7,-2.013 -19.596,-3.15c-8.104,0.866 -16.217,1.479 -24.383,1.425c8.046,-1.688 16.179,-2.709 24.35,-3.475c6.6,1.471 13.166,3.087 19.629,5.2" style="fill:#dcdcdc;fill-rule:nonzero;"/>
            <path d="M765.007,1127.47c0.421,2.221 -26.137,53.93 -30.854,60.209c-4.687,6.254 -26.396,16.546 -31.404,17.333c-4.979,0.788 -81.758,13.242 -198.579,8.654c-116.821,-4.587 -192.388,-23.021 -197.317,-24.196c-4.9,-1.179 -25.742,-13.141 -29.921,-19.741c-4.212,-6.634 -26.629,-60.263 -26.037,-62.442c0.562,-2.183 73.229,14.971 117.437,18.438c21.746,1.716 89.859,8.175 138.896,10.1c49.033,1.925 117.442,0.829 139.258,0.82c44.342,0.013 118.134,-11.395 118.521,-9.175" style="fill:#1a2e35;fill-rule:nonzero;"/>
            <path d="M344.992,1197.19c9.913,1.758 21.613,3.65 34.979,5.516l248.875,9.771c13.471,-0.812 25.28,-1.779 35.305,-2.758l-319.159,-12.529Zm-49.691,-13.367c3.204,1.887 6.212,3.462 8.495,4.479l402.088,15.788c2.354,-0.834 5.508,-2.171 8.85,-3.796l-419.433,-16.471Zm-16.78,-12.1c1.259,1.358 2.988,2.829 4.984,4.367l443.596,17.416c2.108,-1.375 3.95,-2.704 5.308,-3.962l-453.888,-17.821Zm-6.366,-11.663c0.716,1.546 1.404,2.975 1.979,4.25l463.233,18.188c0.675,-1.229 1.471,-2.596 2.304,-4.083l-467.516,-18.355Zm-5.117,-11.616c0.629,1.454 1.258,2.879 1.858,4.246l474.6,18.633c0.709,-1.313 1.446,-2.683 2.188,-4.088l-478.646,-18.791Zm-4.908,-11.609c0.571,1.425 1.171,2.821 1.771,4.213l485.491,19.062c0.709,-1.341 1.417,-2.687 2.096,-4.058l-489.358,-19.217Zm290.621,0c-15.725,-0.17 -31.421,-0.458 -45.525,-1.012c-14.105,-0.554 -29.771,-1.5 -45.467,-2.563l-204.388,-8.025c0.542,1.363 1.113,2.759 1.713,4.213l496.021,19.475c0.712,-1.404 1.391,-2.75 2.037,-4.063l-204.391,-8.025Zm163.837,-5.012c-10.025,1.037 -20.767,2.104 -31.408,2.937l75.433,2.963c0.742,-1.492 1.392,-2.867 1.946,-4.096l-45.971,-1.804Zm-417.767,-16.404c9.913,1.821 20.538,3.729 31.08,5.396l-75.43,-2.963c-0.625,-1.546 -1.166,-2.967 -1.62,-4.237l45.97,1.804Z" style="fill:#375a64;fill-rule:nonzero;"/>
            <path d="M942.081,1264.11l-14.317,-22.171l-40.645,-1.154l-33.38,-4.121l-59.454,17.979l-25.121,-0.233l25.121,3.466l59.463,-12.933l33.833,6.983l27.021,0l30.329,29.896l-2.85,-17.712Z" style="fill:#2b454e;fill-rule:nonzero;"/>
        </g>
        <g id="Car-2" serif:id="Car 2">
            <path d="M1272.06,1004.68c0,-0 -145.762,-117.23 -153.212,-121.825c-4.025,-2.488 -59.529,20.133 -60.733,19.737c-1.205,-0.392 -38.675,-41.737 -39.763,-43.117c-1.083,-1.383 -41.65,-6.175 -41.65,-6.175" style="fill:none;fill-rule:nonzero;stroke:#ffc800;stroke-width:12.5px;"/>
            <path d="M2543.01,1286.36l-389.47,1.871c-0,0 41.787,-182.162 193.862,-182.892c152.075,-0.729 188.729,140.417 195.608,181.021" style="fill:#ffc800;fill-rule:nonzero;"/>
            <g opacity="0.2">
                <path d="M2543.01,1286.36l-389.47,1.871c-0,0 41.787,-182.162 193.862,-182.892c152.075,-0.729 188.729,140.417 195.608,181.021" style="fill-rule:nonzero;"/>
            </g>
            <path d="M1412.76,1311.43l-389.471,1.871c-0,-0 41.787,-182.163 193.862,-182.892c152.075,-0.729 188.73,140.417 195.609,181.021" style="fill:#ffc800;fill-rule:nonzero;"/>
            <g opacity="0.2">
                <path d="M1412.76,1311.43l-389.471,1.871c-0,-0 41.787,-182.163 193.862,-182.892c152.075,-0.729 188.73,140.417 195.609,181.021" style="fill-rule:nonzero;"/>
            </g>
            <path d="M2630.49,954.041c8.413,13.221 23.779,159.275 24.654,164.387c0.88,5.109 13.13,27.425 13.363,31.684c0.233,4.262 3.533,70.091 1.85,74.362c-1.683,4.267 -11.2,19.871 -13.317,22.438c-2.116,2.566 -57.079,50.35 -63.254,51.016c-6.179,0.671 -63.283,1.371 -64.354,0.309c-1.067,-1.059 -8.517,-176.821 -181.754,-175.988c-173.238,0.829 -170.425,187.484 -173.617,188.138c-3.196,0.654 -778.521,22.062 -778.521,22.062c-0.137,-28.554 -3.191,-198.583 -173.125,-197.766c-110.696,0.529 -162.029,92.108 -163.621,159.404c-0.666,28.021 4.175,58.791 2.625,58.8c-5.112,0.025 -22.579,1.387 -25.57,0.125c-2.988,-1.267 2.333,-24.329 -0.655,-25.167c-2.987,-0.837 -23.87,-1.162 -28.991,-2.417c-5.121,-1.254 -42.054,-40.662 -42.7,-41.937c-0.646,-1.279 2.946,-98.838 2.925,-102.888c-0.004,-1.591 6.733,-23.075 15.841,-49.229c2.225,-6.391 14.955,-11.404 17.396,-18.129c12.938,-35.604 23.517,-77.7 32.996,-80.079c3.25,-0.817 30.096,16.762 33.821,14.583c5.612,-3.287 11.671,-14.908 21.475,-23.666c0.521,-0.467 16.117,-0.188 16.692,-0.684c0.429,-0.375 10.087,-25.716 12.175,-25.571c6.429,0.446 25.208,13.713 29.166,13.371c3.379,-0.296 14.55,-21.425 14.863,-21.504c6.362,-1.55 13.383,-1.654 20.329,-3.312c16.708,-3.984 71.129,11.9 79.454,11.25c14.3,-1.117 63.613,-35.65 65.996,-37.334c6.371,-4.504 305.575,-178.033 357.708,-190.937c42.142,-10.434 530.6,1.287 556.175,2.441c25.575,1.159 96.384,13.605 103.2,13.571c6.817,-0.033 85.234,-0.837 89.929,1.271c4.7,2.108 0.1,20.883 -5.85,24.321c-5.95,3.437 188.096,120.133 202.696,143.075" style="fill:#ffc800;fill-rule:nonzero;"/>
            <g opacity="0.2">
                <path d="M1353.11,1204.14c-0,0 772.833,-21.358 777.271,-14.787c4.437,6.575 -767.75,46.417 -767.75,46.417l-9.521,-31.63Z" style="fill:#fff;fill-rule:nonzero;"/>
            </g>
            <g opacity="0.2">
                <path d="M2630.48,954.028c-0,0 -346.496,38.35 -361.992,38.075c-15.496,-0.279 -839.266,30.604 -854.212,29.754c-14.992,-0.812 -153.654,-24.246 -153.654,-24.246c14.312,-1.075 63.629,-35.625 65.991,-37.295c6.4,-4.53 305.6,-178.067 357.717,-190.946c42.162,-10.45 530.625,1.271 556.196,2.45c25.566,1.137 96.387,13.583 103.179,13.562c6.833,-0.021 85.233,-0.837 89.95,1.275c4.679,2.113 0.1,20.879 -5.867,24.292c-5.929,3.45 188.079,120.146 202.692,143.079" style="fill:#fff;fill-rule:nonzero;"/>
            </g>
            <g opacity="0.1">
                <path d="M1190.02,1026.96c-0.025,1.542 -15.958,-0.242 -17.333,-0.262c-1.375,-0.021 -26.684,-15.488 -26.684,-15.488c3.379,-0.325 14.534,-21.45 14.867,-21.529c-0,-0 29.175,35.696 29.15,37.279" style="fill-rule:nonzero;"/>
            </g>
            <g opacity="0.1">
                <path d="M1104.48,1053.84c-0.7,2.075 -15.721,0.638 -16.392,0.838c-0.708,0.237 -21.604,-6.913 -21.604,-6.913c5.592,-3.291 11.683,-14.908 21.487,-23.679c0,0 17.25,27.642 16.509,29.754" style="fill-rule:nonzero;"/>
            </g>
            <g opacity="0.1">
                <path d="M1116.83,997.813l-1.295,27.734l-10.884,-2.167c0.421,-0.367 10.054,-25.6 12.179,-25.567" style="fill-rule:nonzero;"/>
            </g>
            <path d="M2619.26,943.009c-1.854,1.704 -32.384,2.613 -35.584,1.35c-3.204,-1.266 -196.162,-128.304 -196.32,-132.025c-0.08,-1.875 36.075,-1.558 40.445,-1.366c4.367,0.191 194.959,128.829 191.459,132.041" style="fill:#375a64;fill-rule:nonzero;"/>
            <path d="M2405.01,942.011c-8.221,24.658 -981.891,66.05 -987.487,54.145c-4.142,-8.812 49.571,-72.329 91.646,-96.183c42.079,-23.854 162.566,-92.833 221.983,-100.154c59.417,-7.317 180.021,-7.271 285.087,-5.842c104.205,1.417 226.955,3.384 270.513,21.717c38.208,16.075 124.792,106.712 118.258,126.317" style="fill:#1a2e35;fill-rule:nonzero;"/>
            <path d="M2376.79,927.78c-2.505,9.254 -225.496,34.325 -486.892,47.725c-261.396,13.4 -390.513,15.937 -393.717,14.675c-3.204,-1.263 8.609,-71 13.054,-76.775c4.45,-5.775 191.288,-102.563 220.684,-105.259c29.391,-2.7 188.246,-3.779 268.475,-2.887c80.233,0.892 247.446,9.679 275.946,21.05c25.066,10 104.962,92.187 102.45,101.471" style="fill:#2b454e;fill-rule:nonzero;"/>
            <g opacity="0.1">
                <path d="M2030.11,805.893l150.466,149.029c26.709,-2.471 51.38,-4.937 73.592,-7.312l-139.533,-138.2c-29.613,-1.629 -59.109,-2.834 -84.525,-3.517" style="fill:#fff;fill-rule:nonzero;"/>
                <path d="M1496.62,975.392l15.184,15.038c15.183,-0.113 41.479,-0.7 79.037,-1.879l-78.267,-77.521c-1.879,1.162 -3.029,1.975 -3.333,2.362c-3.171,4.129 -10.108,40.879 -12.621,62" style="fill:#fff;fill-rule:nonzero;"/>
                <path d="M1918.37,805.007l160.009,158.479c12.762,-0.946 25.291,-1.929 37.512,-2.946l-157.037,-155.537c-12.842,-0.055 -26.488,-0.063 -40.484,0.004" style="fill:#fff;fill-rule:nonzero;"/>
                <path d="M1576.88,876.428l109.633,108.55c12.342,-0.521 25.296,-1.046 38.825,-1.65l-121.65,-120.446c-9.204,4.579 -18.217,9.121 -26.808,13.546" style="fill:#fff;fill-rule:nonzero;"/>
                <path d="M2141.43,810.933l135.362,134.109l0.038,-0c3.5,-0.4 6.916,-0.804 10.262,-1.204l-133.396,-132.117c-4.037,-0.25 -8.15,-0.538 -12.266,-0.788" style="fill:#fff;fill-rule:nonzero;"/>
                <path d="M1553.72,888.419l98.817,97.913c3.617,-0.134 7.304,-0.267 11.071,-0.438l-102.371,-101.396c-2.571,1.321 -5.063,2.642 -7.517,3.921" style="fill:#fff;fill-rule:nonzero;"/>
                <path d="M1694.72,820.152l158.696,157.179c3.654,-0.171 7.304,-0.342 10.995,-0.513l-161.558,-160.012c-2.571,1.012 -5.296,2.142 -8.133,3.346" style="fill:#fff;fill-rule:nonzero;"/>
                <path d="M2248.4,820.685l113.266,112.183c3.763,-0.787 6.875,-1.533 9.255,-2.237l-108.63,-107.55c-4.004,-0.829 -8.658,-1.613 -13.891,-2.396" style="fill:#fff;fill-rule:nonzero;"/>
            </g>
            <path d="M2236.3,819.051c-1.038,-0.105 -1.505,1.379 -0.6,3.837c5.333,14.463 46.595,96.396 56.916,115.525c1.663,3.075 5.042,3.825 5.804,4.033l-72.004,8.05c0,0 4.321,-1.637 3.517,-6.537c-0.746,-4.533 -27.942,-100.958 -36.454,-124.629c-1.1,-3.054 -4.542,-5.009 -4.85,-5.034c-1.429,-0.116 12.287,0.146 25.308,1.438c11.467,1.137 22.363,3.317 22.363,3.317" style="fill:#1a2e35;fill-rule:nonzero;"/>
            <path d="M2141.28,810.918c-0,0 -1.308,0.746 -1.35,3.355c-0.354,22.729 -2.346,136.466 -0.129,142.708c0.283,0.792 0.629,1.3 1.046,1.479l-13.617,1.15c0.229,-0.171 1.104,-1.662 1.233,-3.417c1.429,-19.229 2.317,-123.495 1.979,-142.779c-0.029,-1.591 -1.183,-3.054 -1.3,-3.225l12.138,0.729Z" style="fill:#1a2e35;fill-rule:nonzero;"/>
            <path d="M1917.32,809.688c-1.583,5.058 -3.504,153.558 -3.483,158.35c0.025,4.795 5.463,5.904 5.463,5.904l-84.392,4.321c-0,-0 5.454,-1.563 6.404,-4.121c0.946,-2.563 26.704,-162.825 26.533,-164.9c-0.166,-2.075 -4.333,-4.038 -4.333,-4.038l58.813,-0.246c-0,0 -3.988,1.484 -5.005,4.73" style="fill:#1a2e35;fill-rule:nonzero;"/>
            <path d="M2615.67,974.995c10.367,1.288 33.792,25.408 35.521,30.513c1.729,5.108 8.288,39.595 4.9,44.725c-3.383,5.133 -15.683,17.975 -26.333,18.454c-10.65,0.475 -62.763,-23.992 -67.471,-28.229c-4.708,-4.242 -8.242,-30.175 -2.742,-38.534c5.5,-8.362 42.905,-28.571 56.125,-26.929" style="fill:#fff;fill-rule:nonzero;"/>
            <path d="M2562.29,1040.47c4.7,4.234 56.833,28.696 67.471,28.221c8.112,-0.367 17.208,-7.942 22.55,-13.792c-7.767,5.013 -15.054,7.209 -20.788,6.68c-5.729,-0.496 -54.537,-21.213 -60.816,-26.909c-6.279,-5.7 -6.646,-27.271 -5.846,-31.171c0.767,-3.895 32.158,-24.308 32.158,-24.308c-15.516,6.063 -33.762,17.083 -37.466,22.733c-5.492,8.371 -1.963,34.28 2.737,38.546" style="fill:#ececec;fill-rule:nonzero;"/>
            <path d="M2659.64,1167.63c2.892,2.863 3.954,24.488 0.979,26.417c-2.975,1.933 -20.45,1.804 -23.866,0.117c-3.417,-1.688 -12.23,-17.842 -11.617,-23.384c0.612,-5.546 31.079,-6.541 34.504,-3.15" style="fill:#fff;fill-rule:nonzero;"/>
            <path d="M1090.95,1085.15c-3.534,10.405 -54.742,26.467 -79.534,26.259c-8.079,-0.038 -11.841,-7.596 -14.95,-11.521l3.504,-8.654l2.292,0.033l2.421,-5.754l2.454,0.496l2.521,-9.879l3.333,-5.492l-4.054,-4.646c1.792,-2.725 3.575,-4.946 5.304,-6.337c4.896,-3.967 25.796,-11.113 44.55,-11.038c6.25,0.013 37.654,20.238 32.159,36.533" style="fill:#1a2e35;fill-rule:nonzero;"/>
            <path d="M1090.95,1085.15c-3.534,10.405 -54.742,26.467 -79.534,26.259c-6.041,-0.05 -9.683,-4.271 -12.462,-8.063l2.562,-1.379l9.309,-0.9l23.262,-0.692l7.517,-17.429l3.55,4.929l6.296,-8.658l-6.446,-6.304l6.625,-5.317l-11.221,-7.671l-16.65,-1.045l-4.85,3.72l-2.283,-3.287l-6.963,5.646c1.533,-2.225 3.104,-4.075 4.579,-5.304c4.896,-3.967 25.796,-11.113 44.55,-11.038c6.25,0.013 37.654,20.238 32.159,36.533" style="fill:#fff;fill-rule:nonzero;"/>
            <path d="M1026.11,1126.37l10.992,-8.554l1.971,6.1l4.325,0.758l-6.55,9.95l-6.205,-6.562l-4.533,-1.692Z" style="fill:#fff;fill-rule:nonzero;"/>
            <path d="M1051.47,1118.3l5.584,-2.738l2.679,6.234l-8.263,-3.496Z" style="fill:#fff;fill-rule:nonzero;"/>
            <path d="M1001.81,1114.69l-1.329,2.058l2.788,-0.995l-1.459,-1.063Z" style="fill:#fff;fill-rule:nonzero;"/>
            <path d="M1003.52,1117.95l1.03,10.179l3.483,-3.729l1.687,-0.329l-1.15,-4.154l-5.05,-1.967Z" style="fill:#fff;fill-rule:nonzero;"/>
            <path d="M1041.1,1143.37l2.963,2.725l1.991,-1.958l3.588,-0.638l-5.354,-4.7l-3.188,4.571Z" style="fill:#fff;fill-rule:nonzero;"/>
            <path d="M1076.02,1088.39c-6.313,1.717 -14,3.588 -19.742,4.775c-4.075,2.621 -8.158,5.225 -12.304,7.733c-3.3,-0.108 -6.592,-0.308 -9.888,-0.516c2.938,-0.038 7.429,-0.342 9.592,-0.159c3.975,-2.704 8.012,-5.312 12.054,-7.908c6.704,-1.512 13.488,-2.8 20.288,-3.925" style="fill:#dcdcdc;fill-rule:nonzero;"/>
            <path d="M1068.29,1080.52c-1.654,4.033 -3.913,7.721 -6.763,11.021c1.65,-4.038 3.917,-7.721 6.763,-11.021" style="fill:#dcdcdc;fill-rule:nonzero;"/>
            <path d="M1051.63,1067.6c1.988,0.946 3.925,1.971 5.833,3.046l-0.308,-0.058c5.05,-1.058 10.138,-1.929 15.308,-2.338c-5.041,1.463 -10.17,2.442 -15.333,3.238c-1.867,-1.238 -3.712,-2.517 -5.5,-3.888" style="fill:#dcdcdc;fill-rule:nonzero;"/>
            <g opacity="0.1">
                <path d="M2410.57,1069.63c6.408,6.212 15.308,9.575 24.079,9.333c8.791,-0.187 17.304,-4.025 23.266,-10.283c6.059,-6.175 9.475,-14.763 9.334,-23.358c0.046,-8.592 -3.442,-17.15 -9.563,-23.263c-6.025,-6.192 -14.562,-9.954 -23.358,-10.054c-8.771,-0.163 -17.638,3.287 -23.988,9.554c-6.345,6.263 -10.054,15.113 -10.05,24.083c0.084,8.971 3.875,17.788 10.28,23.988m-0.53,-48.367c6.225,-6.521 15.113,-10.521 24.284,-10.708c9.141,-0.246 18.429,3.267 25.1,9.746c6.671,6.462 10.633,15.662 10.704,25.008c0.008,9.342 -3.854,18.579 -10.467,25.104c-6.612,6.534 -15.858,10.142 -25.004,9.984c-9.167,-0.096 -18.092,-4.013 -24.383,-10.471c-6.384,-6.375 -10.042,-15.317 -9.984,-24.284c-0.145,-8.966 3.425,-17.941 9.75,-24.379" style="fill-rule:nonzero;"/>
                <path d="M2542.35,1148.8c3.433,-7.721 6.571,-15.546 9.658,-23.392c3.1,-7.837 5.954,-15.771 8.942,-23.65c2.767,-7.962 5.65,-15.879 8.308,-23.879c2.659,-8 5.271,-16.017 7.584,-24.146c-3.438,7.717 -6.575,15.546 -9.667,23.388c-3.092,7.846 -5.954,15.771 -8.933,23.654c-2.763,7.962 -5.655,15.879 -8.309,23.883c-2.654,8 -5.266,16.017 -7.583,24.142" style="fill-rule:nonzero;"/>
                <path d="M2662.23,1148.23c-16.783,-0.221 -33.558,-0.13 -50.333,0.012l-50.317,0.779l-50.304,1.446c-16.763,0.604 -33.525,1.254 -50.283,2.225c16.783,0.225 33.558,0.133 50.333,-0.008l50.317,-0.784l50.304,-1.45c16.762,-0.604 33.525,-1.254 50.283,-2.22" style="fill-rule:nonzero;"/>
                <path d="M1869.36,988.806l-5.571,40.9l-2.395,20.508c-0.359,3.425 -0.717,6.846 -0.959,10.313c-0.254,3.483 -0.021,6.891 -0.058,10.337l1.137,82.571l0.867,41.288l0.433,20.637l0.225,10.321l0.834,10.287l3.383,41.15l3.688,41.117l-2.28,-41.208l-2.575,-41.171l-0.637,-10.292l-0.146,-10.308l-0.304,-20.621l-0.608,-41.237l-1.809,-82.475c-0.033,-3.425 -0.329,-6.905 -0.141,-10.284c0.17,-3.404 0.462,-6.829 0.754,-10.25l1.983,-20.525l4.179,-41.058Z" style="fill-rule:nonzero;"/>
                <path d="M1416.15,1009.73l-6.746,41.133l-3.375,20.571l-0.842,5.142c-0.295,1.712 -0.604,3.421 -0.6,5.187c-0.075,3.488 -0.045,6.959 -0.016,10.434c0.366,27.787 1.183,55.562 2.183,83.333c0.246,6.946 0.575,13.883 0.967,20.829c0.008,7.046 2.246,13.904 4.096,20.525c3.879,13.363 8.291,26.563 13.133,39.604c4.925,13.009 10.096,25.971 16.821,38.23l2.591,4.562c0.905,1.5 1.925,2.933 2.884,4.404c0.912,1.5 2.058,2.854 3.2,4.213l1.696,2.05c1.337,0.883 2.145,0.679 3.054,0.9c7.021,0.708 13.941,0.775 20.904,0.971c55.596,0.87 111.158,0.091 166.729,-0.542c55.567,-0.738 111.125,-1.754 166.683,-3.025c55.555,-1.442 111.1,-3.088 166.634,-5.404c27.762,-1.275 55.521,-2.309 83.266,-4.95c3.505,-0.442 6.85,-0.642 10.525,-1.713c1.955,-0.754 3.1,-1.671 4.746,-2.408c1.525,-0.792 3.092,-1.517 4.654,-2.242c6.284,-2.871 12.771,-5.429 19.025,-8.591c6.259,-3.13 12.284,-6.925 17.463,-11.75c4.829,-5.342 8.554,-11.167 12.55,-16.88c15.537,-23.07 30.375,-46.558 45.221,-70.05c14.816,-23.508 29.487,-47.104 44.058,-70.762c14.513,-23.696 28.983,-47.413 43.183,-71.3l5.263,-8.996c0.442,-0.742 0.846,-1.575 1.262,-2.358l0.617,-1.188c0.133,-0.416 0.129,-0.866 0.188,-1.296l0.475,-5.191c0.558,-6.929 1.062,-13.859 1.275,-20.809c0.029,-1.741 0.079,-3.479 -0.038,-5.225c-0.192,-1.758 -0.675,-3.433 -1.146,-5.108c-0.979,-3.337 -2.125,-6.617 -3.296,-9.887c-2.358,-6.538 -4.883,-13.009 -7.487,-19.446c2.55,6.458 5.021,12.954 7.321,19.504c1.141,3.279 2.262,6.567 3.208,9.904c0.454,1.667 0.921,3.35 1.092,5.054c0.1,1.721 0.037,3.463 -0.009,5.192c-0.266,6.933 -0.829,13.858 -1.45,20.775l-0.512,5.175c-0.063,0.425 -0.063,0.875 -0.196,1.271l-0.612,1.104c-0.417,0.737 -0.771,1.471 -1.23,2.221l-5.329,8.946c-14.4,23.754 -29.071,47.35 -43.779,70.916c-29.417,47.125 -58.717,94.375 -89.662,140.475c-3.967,5.65 -7.817,11.55 -12.313,16.513c-5.017,4.641 -10.871,8.312 -17.033,11.375c-6.154,3.091 -12.617,5.616 -18.979,8.5c-1.584,0.733 -3.175,1.462 -4.738,2.266c-1.525,0.675 -3.221,1.85 -4.533,2.3c-2.996,0.871 -6.642,1.167 -10.017,1.559c-27.587,2.55 -55.396,3.508 -83.133,4.7c-55.513,2.158 -111.059,3.621 -166.604,4.929c-55.542,1.429 -111.096,2.608 -166.65,3.508c-55.55,0.796 -111.125,1.734 -166.655,1.025c-6.92,-0.175 -13.912,-0.233 -20.72,-0.9c-0.775,-0.087 -1.8,-0.304 -1.942,-0.337l-1.629,-1.963c-1.1,-1.296 -2.204,-2.591 -3.104,-4.066c-0.942,-1.438 -1.946,-2.83 -2.834,-4.3l-2.571,-4.492c-6.679,-12.092 -11.883,-25.004 -16.825,-37.946c-4.862,-12.987 -9.304,-26.146 -13.208,-39.454c-1.883,-6.713 -4.071,-13.225 -4.1,-20.183l-1.05,-20.796c-1.229,-27.75 -2.283,-55.517 -2.883,-83.284c-0.059,-3.47 -0.117,-6.945 -0.067,-10.404c-0.025,-1.721 0.267,-3.437 0.55,-5.15l0.8,-5.146l3.196,-20.583l6.4,-41.175Z" style="fill-rule:nonzero;"/>
                <path d="M1075.89,1097.23c5.808,4.733 12.587,8.304 19.079,12.162c6.571,3.771 13.283,7.338 19.95,10.959c6.767,3.475 13.492,7.008 20.329,10.366c6.842,3.363 13.704,6.679 20.713,9.771c-6.517,-3.867 -13.15,-7.537 -19.792,-11.192l-20.042,-10.787l-20.212,-10.517l-10.117,-5.241c-3.358,-1.759 -6.8,-3.417 -9.908,-5.521" style="fill-rule:nonzero;"/>
                <path d="M2228.96,1157.74l-108.229,3.362l-108.216,3.813l-216.425,7.646l-216.392,8.612l-108.196,4.317l-108.179,4.771l108.233,-3.363l108.213,-3.812l216.429,-7.65l216.387,-8.613l108.196,-4.317l108.179,-4.766Z" style="fill-rule:nonzero;"/>
                <path d="M2234.59,1002.61l4.23,0.196l1.058,0.037c0.217,-0.054 0.271,0.2 0.408,0.53c0.2,0.629 0.3,1.325 0.392,2.008c0.308,2.767 0.329,5.583 0.212,8.367c-0.058,1.387 -0.137,2.783 -0.345,4.12c-0.1,0.65 -0.246,1.346 -0.459,1.792c-0.046,0.092 -0.112,0.163 -0.062,0.113l-0.317,0.008c-0.212,0.017 -0.412,0.079 -0.808,0.1c-2.734,0.262 -5.575,0.342 -8.379,0.454c-11.246,0.408 -22.517,0.829 -33.784,1.071l-16.891,0.567l-8.434,0.175l-2.087,-0.005c-0.354,0.005 -0.713,0.005 -0.967,-0.02l-0.425,-0.017c-0.175,0.008 -0.3,-0.025 -0.15,-0.021c0.129,0.221 -0.321,-0.5 -0.446,-1.033c-0.162,-0.613 -0.312,-1.246 -0.408,-1.921c-0.413,-2.671 -0.475,-5.483 -0.408,-8.242c0.058,-1.379 0.141,-2.771 0.358,-4.1c0.092,-0.587 0.337,-1.446 0.433,-1.562c0.1,-0.167 0.954,-0.354 1.579,-0.471c5.467,-0.983 11.15,-1.329 16.75,-1.913c-5.658,-0.066 -11.266,-0.016 -16.979,0.517c-0.725,0.154 -1.412,0.042 -2.387,0.75c-0.8,0.992 -0.746,1.608 -0.988,2.371c-0.304,1.442 -0.454,2.871 -0.587,4.304c-0.2,2.863 -0.279,5.717 0.033,8.642c0.071,0.729 0.2,1.479 0.371,2.233c0.312,0.763 0.204,1.583 1.558,2.567c0.421,0.262 0.646,0.266 0.829,0.275l0.634,0.054c0.446,0.042 0.791,0.042 1.146,0.05l2.141,0.033l8.484,-0.041l16.933,-0.313c11.275,-0.483 22.554,-0.862 33.825,-1.746c2.825,-0.246 5.621,-0.454 8.487,-0.862c0.309,-0.025 0.796,-0.129 1.271,-0.279c0.238,-0.084 0.446,-0.109 0.692,-0.263c0.321,-0.283 0.425,-0.525 0.537,-0.75c0.342,-0.85 0.417,-1.567 0.509,-2.304c0.15,-1.463 0.179,-2.892 0.146,-4.321c-0.096,-2.854 -0.334,-5.687 -0.867,-8.5c-0.15,-0.704 -0.3,-1.404 -0.583,-2.1c-0.075,-0.175 -0.163,-0.354 -0.292,-0.529c-0.063,-0.192 -0.563,-0.375 -0.675,-0.304l-1.058,0.046l-4.23,0.237Z" style="fill-rule:nonzero;"/>
                <path d="M1820.38,1014.84l4.229,0.195l1.058,0.038c0.217,-0.05 0.271,0.2 0.409,0.529c0.2,0.629 0.3,1.325 0.391,2.008c0.313,2.767 0.329,5.584 0.213,8.367c-0.059,1.388 -0.138,2.783 -0.346,4.121c-0.1,0.65 -0.246,1.346 -0.458,1.792c-0.046,0.091 -0.113,0.162 -0.063,0.112l-0.317,0.008c-0.212,0.017 -0.412,0.08 -0.808,0.1c-2.733,0.263 -5.579,0.342 -8.379,0.455c-11.246,0.408 -22.517,0.829 -33.783,1.07l-16.892,0.571l-8.433,0.171l-2.088,-0.004c-0.354,0.004 -0.712,0.004 -0.967,-0.021l-0.425,-0.017c-0.175,0.009 -0.3,-0.025 -0.15,-0.02c0.13,0.22 -0.32,-0.5 -0.445,-1.034c-0.163,-0.612 -0.313,-1.246 -0.409,-1.921c-0.412,-2.67 -0.475,-5.479 -0.408,-8.241c0.058,-1.379 0.142,-2.767 0.358,-4.1c0.092,-0.588 0.338,-1.446 0.434,-1.563c0.095,-0.166 0.954,-0.354 1.579,-0.471c5.466,-0.983 11.15,-1.329 16.75,-1.912c-5.659,-0.067 -11.267,-0.017 -16.979,0.517c-0.725,0.154 -1.413,0.041 -2.388,0.75c-0.8,0.991 -0.746,1.608 -0.987,2.37c-0.305,1.442 -0.455,2.871 -0.588,4.305c-0.2,2.862 -0.279,5.716 0.033,8.641c0.067,0.729 0.205,1.479 0.371,2.234c0.313,0.762 0.204,1.583 1.559,2.566c0.42,0.263 0.645,0.267 0.829,0.275l0.633,0.054c0.446,0.042 0.792,0.042 1.146,0.05l2.142,0.034l8.483,-0.042l16.929,-0.312c11.279,-0.484 22.558,-0.863 33.829,-1.746c2.825,-0.246 5.621,-0.454 8.488,-0.863c0.308,-0.025 0.796,-0.125 1.271,-0.275c0.237,-0.087 0.445,-0.112 0.691,-0.266c0.321,-0.28 0.425,-0.525 0.538,-0.75c0.341,-0.85 0.416,-1.567 0.508,-2.305c0.15,-1.462 0.179,-2.891 0.146,-4.32c-0.096,-2.855 -0.333,-5.688 -0.867,-8.5c-0.15,-0.705 -0.3,-1.405 -0.583,-2.1c-0.075,-0.175 -0.163,-0.355 -0.292,-0.53c-0.062,-0.191 -0.562,-0.375 -0.679,-0.304l-1.054,0.046l-4.229,0.238Z" style="fill-rule:nonzero;"/>
            </g>
            <path d="M2193.82,1305.7c1.771,88.95 75.317,159.625 164.271,157.854c88.95,-1.775 159.625,-75.321 157.85,-164.271c-1.771,-88.954 -75.317,-159.625 -164.267,-157.854c-88.954,1.775 -159.625,75.321 -157.854,164.271" style="fill:#1a2e35;fill-rule:nonzero;"/>
            <path d="M2220.69,1305.8c1.475,74.108 62.467,131.708 136.575,130.233c74.109,-1.475 133.271,-61.471 131.792,-135.579c-1.475,-74.108 -62.746,-132.987 -136.854,-131.512c-74.108,1.479 -132.988,62.75 -131.513,136.858" style="fill:#2b454e;fill-rule:nonzero;"/>
            <path d="M2237.28,1304.84c1.291,64.95 54.995,116.55 119.941,115.258c64.95,-1.295 116.554,-54.995 115.259,-119.945c-1.296,-64.946 -54.996,-116.55 -119.942,-115.255c-64.95,1.292 -116.554,54.992 -115.258,119.942" style="fill:#dcdcdc;fill-rule:nonzero;"/>
            <path d="M2246.45,1304.65c1.192,59.888 50.709,107.467 110.596,106.275c59.883,-1.196 107.463,-50.708 106.271,-110.596c-1.192,-59.887 -50.708,-107.466 -110.596,-106.27c-59.883,1.191 -107.462,50.704 -106.271,110.591" style="fill:#a8a8a8;fill-rule:nonzero;"/>
            <path d="M2337.31,1275.64l34.059,-0.679c-11.825,-16.375 27.075,-75.1 27.075,-75.1l-18.034,-5.641c-11.508,20.687 -17.345,26.804 -27.15,26.995c-9.8,0.196 -15.879,-5.679 -28.241,-25.891l-17.754,6.35c-0,-0 41.208,57.133 30.045,73.966" style="fill:#dcdcdc;fill-rule:nonzero;"/>
            <path d="M2374.26,1276.97l11.171,32.179c11.921,-16.304 79.792,2.546 79.792,2.546l-0.209,-18.896c-23.229,-4.55 -30.85,-8.212 -34.066,-17.475c-3.213,-9.262 0.5,-16.858 15.9,-34.862l-11.529,-14.921c-0,-0 -41.6,56.841 -61.059,51.429" style="fill:#dcdcdc;fill-rule:nonzero;"/>
            <path d="M2384.41,1312.53l-27.154,20.567c19.191,6.3 22.241,76.675 22.241,76.675l17.9,-6.038c-2.845,-23.5 -1.716,-31.879 6.096,-37.8c7.817,-5.921 16.188,-4.737 38.071,4.35l10.629,-15.575c0,0 -66.916,-22 -67.783,-42.179" style="fill:#dcdcdc;fill-rule:nonzero;"/>
            <path d="M2353.73,1333.16l-27.954,-19.471c-0.058,20.2 -66.046,44.846 -66.046,44.846l11.271,15.162c21.471,-9.971 29.792,-11.487 37.833,-5.883c8.046,5.604 9.509,13.929 7.629,37.55l18.1,5.296c0,-0 0.242,-70.442 19.167,-77.5" style="fill:#dcdcdc;fill-rule:nonzero;"/>
            <path d="M2324.63,1310.37l9.879,-32.6c-19.229,6.183 -63.058,-48.959 -63.058,-48.959l-10.938,15.409c16.117,17.337 20.129,24.779 17.288,34.162c-2.846,9.384 -10.313,13.346 -33.354,18.859l0.554,18.845c-0,0 67.066,-21.533 79.629,-5.716" style="fill:#dcdcdc;fill-rule:nonzero;"/>
            <path d="M2323.39,1302.36c0.346,17.383 14.721,31.196 32.105,30.85c17.383,-0.346 31.195,-14.721 30.85,-32.104c-0.346,-17.383 -14.721,-31.196 -32.105,-30.85c-17.383,0.346 -31.195,14.721 -30.85,32.104" style="fill:#dcdcdc;fill-rule:nonzero;"/>
            <path d="M1344.03,1462.45l-232.125,0c-21.333,0 -7.875,-11.083 -3.416,-11.083c3.75,-0 3.666,-7.25 6.25,-9.667c0.5,-0.416 0.791,-0.708 0.791,-0.708l112.417,-5.708l112.458,5.708c0,-0 0.209,0.167 0.542,0.542c2.25,2.041 2.583,9.833 6.458,9.833c4.459,-0 17.917,11.083 -3.375,11.083" style="fill:#1a2e35;fill-rule:nonzero;"/>
            <path d="M1389.03,1324.45c0.917,46 -17.666,87.5 -48.083,117.084c-8.083,7.875 -17,14.875 -26.667,20.916l-173.208,0c-9.5,-6 -18.333,-12.958 -26.333,-20.75c-28.834,-28.083 -47,-67.083 -47.834,-110.833c-1.791,-88.917 68.875,-162.458 157.834,-164.25c88.958,-1.792 162.5,68.917 164.291,157.833" style="fill:#1a2e35;fill-rule:nonzero;"/>
            <path d="M1093.77,1330.23c1.475,74.108 62.466,131.708 136.575,130.233c74.108,-1.475 133.271,-61.471 131.791,-135.579c-1.475,-74.108 -62.75,-132.987 -136.858,-131.512c-74.104,1.479 -132.983,62.75 -131.508,136.858" style="fill:#2b454e;fill-rule:nonzero;"/>
            <path d="M1110.35,1330.02c1.292,64.95 54.996,116.55 119.942,115.258c64.95,-1.296 116.554,-54.996 115.258,-119.946c-1.296,-64.945 -54.996,-116.55 -119.942,-115.254c-64.95,1.292 -116.554,54.992 -115.258,119.942" style="fill:#dcdcdc;fill-rule:nonzero;"/>
            <path d="M1119.52,1329.84c1.192,59.888 50.708,107.467 110.592,106.271c59.887,-1.191 107.466,-50.704 106.275,-110.591c-1.192,-59.888 -50.709,-107.467 -110.596,-106.275c-59.883,1.195 -107.463,50.708 -106.271,110.595" style="fill:#a8a8a8;fill-rule:nonzero;"/>
            <path d="M1210.39,1300.83l34.059,-0.68c-11.825,-16.375 27.075,-75.1 27.075,-75.1l-18.034,-5.641c-11.508,20.687 -17.346,26.804 -27.15,26.996c-9.8,0.195 -15.879,-5.68 -28.241,-25.892l-17.755,6.354c0,0 41.209,57.129 30.046,73.963" style="fill:#dcdcdc;fill-rule:nonzero;"/>
            <path d="M1247.34,1302.16l11.171,32.179c11.92,-16.304 79.791,2.542 79.791,2.542l-0.208,-18.892c-23.229,-4.55 -30.85,-8.212 -34.067,-17.475c-3.212,-9.262 0.5,-16.858 15.9,-34.862l-11.529,-14.921c0,-0 -41.596,56.842 -61.058,51.429" style="fill:#dcdcdc;fill-rule:nonzero;"/>
            <path d="M1257.49,1337.71l-27.154,20.567c19.191,6.3 22.241,76.675 22.241,76.675l17.9,-6.038c-2.846,-23.5 -1.716,-31.879 6.096,-37.8c7.817,-5.921 16.188,-4.737 38.071,4.35l10.629,-15.575c0,0 -66.921,-22 -67.783,-42.179" style="fill:#dcdcdc;fill-rule:nonzero;"/>
            <path d="M1226.81,1358.35l-27.95,-19.471c-0.063,20.2 -66.05,44.846 -66.05,44.846l11.275,15.162c21.467,-9.971 29.787,-11.487 37.829,-5.883c8.046,5.604 9.508,13.929 7.629,37.55l18.1,5.296c0,-0 0.242,-70.442 19.167,-77.5" style="fill:#dcdcdc;fill-rule:nonzero;"/>
            <path d="M1197.7,1335.55l9.879,-32.6c-19.229,6.183 -63.058,-48.958 -63.058,-48.958l-10.938,15.408c16.117,17.337 20.129,24.779 17.288,34.162c-2.846,9.384 -10.313,13.346 -33.355,18.859l0.555,18.846c-0,-0 67.066,-21.534 79.629,-5.717" style="fill:#dcdcdc;fill-rule:nonzero;"/>
            <path d="M1196.46,1327.55c0.346,17.384 14.721,31.196 32.104,30.85c17.383,-0.346 31.196,-14.721 30.85,-32.104c-0.346,-17.383 -14.721,-31.196 -32.104,-30.85c-17.383,0.346 -31.196,14.721 -30.85,32.104" style="fill:#dcdcdc;fill-rule:nonzero;"/>
            <path d="M1532.88,929.904c5.896,5.842 5.609,58.358 1.367,62.642c-4.242,4.283 -62.608,8.395 -67.454,-24.184c-4.842,-32.579 56.879,-47.575 66.087,-38.458" style="fill:#ffc800;fill-rule:nonzero;"/>
            <path d="M1659.89,798.46c0,0 -169.25,81.492 -292.466,163.596l-43.592,0.217c1.433,-0.98 2.358,-1.675 2.696,-1.875c0.041,-0.042 0.083,-0.042 0.125,-0.084c0.171,-0.121 0.508,-0.325 1.054,-0.65c0.25,-0.162 0.546,-0.366 0.925,-0.571c1.554,-0.933 3.912,-2.358 7.067,-4.225c0.879,-0.487 1.804,-1.058 2.816,-1.666c0.504,-0.284 1.05,-0.609 1.638,-0.934c1.008,-0.608 2.1,-1.22 3.237,-1.908c0.629,-0.367 1.304,-0.775 2.017,-1.179c3.783,-2.192 8.117,-4.713 12.867,-7.475c2.058,-1.175 4.162,-2.396 6.391,-3.696c0.796,-0.487 1.638,-0.975 2.521,-1.458c1.679,-0.975 3.404,-1.95 5.213,-3.009c0.883,-0.483 1.808,-1.012 2.733,-1.583c2.604,-1.458 5.254,-3.004 8.029,-4.587c0.292,-0.163 0.588,-0.325 0.883,-0.53c2.771,-1.541 5.588,-3.162 8.488,-4.829c0.296,-0.162 0.587,-0.325 0.883,-0.487c3.784,-2.192 7.692,-4.425 11.729,-6.738c3.238,-1.829 6.517,-3.737 9.921,-5.641c1.554,-0.855 3.15,-1.746 4.75,-2.68c1.846,-1.058 3.696,-2.112 5.588,-3.166c3.741,-2.154 7.566,-4.304 11.475,-6.496c2.058,-1.175 4.162,-2.354 6.304,-3.571c7.271,-4.058 14.708,-8.237 22.233,-12.5c2.479,-1.379 5,-2.754 7.479,-4.175c4.121,-2.275 8.238,-4.587 12.4,-6.9c3.571,-1.987 7.142,-3.975 10.759,-5.962c1.258,-0.688 2.562,-1.421 3.866,-2.15c2.563,-1.38 5.125,-2.796 7.73,-4.259c2.566,-1.421 5.17,-2.837 7.733,-4.258c11.596,-6.367 23.192,-12.65 34.537,-18.771c2.521,-1.337 5.042,-2.717 7.521,-4.054c1.259,-0.646 2.521,-1.338 3.779,-2.025c1.596,-0.813 3.196,-1.663 4.75,-2.513c0.884,-0.487 1.763,-0.933 2.646,-1.42c2.438,-1.296 4.913,-2.592 7.309,-3.888c1.216,-0.608 2.395,-1.258 3.612,-1.904c2.438,-1.254 4.829,-2.513 7.183,-3.767c1.175,-0.608 2.355,-1.216 3.53,-1.862c3.529,-1.784 6.97,-3.604 10.375,-5.388c-0,0 -0,0.042 0.041,0c2.267,-1.133 4.492,-2.304 6.675,-3.441c1.388,-0.688 2.771,-1.375 4.159,-2.105c2.983,-1.495 5.92,-2.991 8.82,-4.45c3.905,-1.983 7.725,-3.841 11.417,-5.658l28.154,6.675Z" style="fill:#2b454e;fill-rule:nonzero;"/>
            <g opacity="0.5">
                <path d="M2542.55,1189.71c-9.75,-16.437 -22.446,-31.017 -36.329,-44.175c-14.025,-13.05 -29.675,-24.4 -46.562,-33.558c-33.75,-18.475 -72.513,-27.263 -110.917,-26.729l-14.396,0.75l-7.2,0.379c-2.383,0.275 -4.758,0.679 -7.137,1.012l-14.271,2.1c-4.7,1 -9.35,2.271 -14.025,3.396c-18.492,5.071 -36.725,12.117 -52.725,22.908c-16.129,10.496 -30.5,23.571 -42.584,38.455c-12.175,14.862 -21.483,31.725 -29.979,48.775c9.275,-16.663 18.875,-33.255 31.434,-47.575c12.258,-14.496 26.666,-27.134 42.716,-37.159c32.171,-20.287 70.459,-28.666 108.213,-29.204c18.937,-0.487 37.896,1.65 56.358,5.783c18.45,4.263 36.325,10.946 53.129,19.705c16.834,8.725 32.513,19.687 46.684,32.345c14.212,12.605 27.12,26.834 37.591,42.792" style="fill:#fff;fill-rule:nonzero;"/>
                <path d="M1413.92,1195.13c-9.75,-16.438 -22.446,-31.017 -36.329,-44.175c-14.025,-13.05 -29.675,-24.4 -46.562,-33.558c-33.75,-18.475 -72.513,-27.263 -110.917,-26.73l-14.396,0.75l-7.2,0.38c-2.383,0.279 -4.758,0.679 -7.137,1.012l-14.271,2.1c-4.704,1 -9.35,2.271 -14.029,3.396c-18.488,5.071 -36.721,12.117 -52.721,22.908c-16.129,10.496 -30.5,23.575 -42.584,38.454c-12.175,14.863 -21.483,31.725 -29.979,48.775c9.275,-16.658 18.875,-33.254 31.434,-47.575c12.258,-14.495 26.662,-27.133 42.716,-37.158c32.171,-20.287 70.459,-28.662 108.213,-29.204c18.937,-0.488 37.896,1.65 56.358,5.787c18.446,4.259 36.325,10.942 53.129,19.7c16.834,8.725 32.513,19.688 46.684,32.346c14.212,12.604 27.12,26.834 37.591,42.792" style="fill:#fff;fill-rule:nonzero;"/>
                <path d="M2517.95,922.493c-25.188,-19.558 -50.746,-38.629 -76.484,-57.462c-25.783,-18.771 -51.725,-37.305 -78.47,-54.834c-3.388,-2.129 -6.784,-4.246 -10.284,-6.254c-1.737,-1.012 -3.525,-1.983 -5.375,-2.9c-1.925,-0.942 -3.971,-1.658 -5.879,-2.175c-7.733,-2.233 -15.462,-4.146 -23.221,-6.046c-15.521,-3.729 -31.071,-7.341 -46.762,-10.308c-15.721,-3.317 -31.813,-4.142 -47.734,-4.667c-15.966,-0.275 -31.925,-0.158 -47.85,0.659c15.942,0.05 31.88,0.308 47.775,1.216c15.888,0.913 31.771,2.059 47.221,5.684c15.542,3.412 31.075,6.916 46.509,10.808c7.708,1.946 15.441,3.929 23.008,6.171c1.937,0.541 3.654,1.175 5.304,1.996c1.717,0.866 3.425,1.808 5.125,2.816c3.4,1.979 6.75,4.109 10.096,6.242c26.767,17.158 52.7,35.746 78.821,53.992l78.2,55.062Z" style="fill:#fff;fill-rule:nonzero;"/>
            </g>
            <g opacity="0.1">
                <path d="M1269.39,1139.44c123.55,27.625 126.025,167.371 126.15,193.017c0,-0 775.342,-21.408 778.529,-22.079c2.575,-0.55 1.217,-122.921 92.496,-169.996c-41,20.533 -93.437,70 -113.046,141.992c-2.116,7.658 -114.975,20.237 -307.987,27.312c-193.046,7.042 -360.809,4 -392.663,-0.304c-31.854,-4.346 -70.025,-170.988 -183.479,-169.942" style="fill-rule:nonzero;"/>
            </g>
            <g opacity="0.1">
                <path d="M1054.62,1294.03c-0.675,27.992 4.155,58.78 2.655,58.755c-3.292,0.033 -11.596,0.616 -17.93,0.687l-0.125,0c-1.583,-0.067 -2.787,-0.208 -3.366,-0.467c-2.984,-1.254 2.325,-24.304 -0.663,-25.179c-2.987,-0.837 -23.862,-1.154 -28.966,-2.4c-5.15,-1.241 -42.1,-40.683 -42.705,-41.941c7.638,1.908 48.892,24.158 53.805,18.775c5,-5.425 -0.534,-8.717 20.687,-53.567c21.179,-44.854 73.971,-88.517 105.746,-95.413c-58.421,30.284 -87.983,91.93 -89.138,140.75" style="fill-rule:nonzero;"/>
            </g>
        </g>
    </g>
</svg>