<?xml version="1.0" encoding="UTF-8" standalone="no"?><!DOCTYPE svg PUBLIC "-//W3C//DTD SVG 1.1//EN" "http://www.w3.org/Graphics/SVG/1.1/DTD/svg11.dtd"><svg width="100%" height="100%" viewBox="0 0 2913 1730" version="1.1" xmlns="http://www.w3.org/2000/svg" xmlns:xlink="http://www.w3.org/1999/xlink" xml:space="preserve" xmlns:serif="http://www.serif.com/" style="fill-rule:evenodd;clip-rule:evenodd;stroke-linejoin:round;stroke-miterlimit:2;"><g><rect x="725.533" y="313.413" width="309.217" height="1307.65" style="fill:#ececec;"/><rect x="783.167" y="405.067" width="93.983" height="181.112" style="fill:#fff;"/><path d="M832.805,586.181c-0.696,-0 -1.258,-40.546 -1.258,-90.55c-0,-50.025 0.562,-90.563 1.258,-90.563c0.696,0 1.254,40.538 1.254,90.563c0,50.004 -0.558,90.55 -1.254,90.55" style="fill:#e1e1e1;fill-rule:nonzero;"/><path d="M877.149,467.99c0,0.696 -21.041,1.259 -46.987,1.259c-25.959,-0 -46.996,-0.563 -46.996,-1.259c-0,-0.695 21.037,-1.254 46.996,-1.254c25.946,0 46.987,0.559 46.987,1.254" style="fill:#e1e1e1;fill-rule:nonzero;"/><path d="M877.643,532.763c0,0.696 -21.212,1.254 -47.375,1.254c-26.17,0 -47.383,-0.558 -47.383,-1.254c0,-0.696 21.213,-1.258 47.383,-1.258c26.163,-0 47.375,0.562 47.375,1.258" style="fill:#e1e1e1;fill-rule:nonzero;"/><rect x="783.167" y="641.638" width="93.983" height="181.113" style="fill:#fff;"/><path d="M832.805,822.749c-0.696,0 -1.258,-40.546 -1.258,-90.55c-0,-50.025 0.562,-90.562 1.258,-90.562c0.696,-0 1.254,40.537 1.254,90.562c0,50.004 -0.558,90.55 -1.254,90.55" style="fill:#e1e1e1;fill-rule:nonzero;"/><path d="M877.149,704.559c0,0.696 -21.041,1.258 -46.987,1.258c-25.959,0 -46.996,-0.562 -46.996,-1.258c-0,-0.696 21.037,-1.254 46.996,-1.254c25.946,-0 46.987,0.558 46.987,1.254" style="fill:#e1e1e1;fill-rule:nonzero;"/><path d="M877.643,769.329c0,0.696 -21.212,1.259 -47.375,1.259c-26.17,-0 -47.383,-0.563 -47.383,-1.259c0,-0.696 21.213,-1.254 47.383,-1.254c26.163,0 47.375,0.558 47.375,1.254" style="fill:#e1e1e1;fill-rule:nonzero;"/><rect x="783.167" y="878.208" width="93.983" height="181.108" style="fill:#fff;"/><path d="M832.805,1059.32c-0.696,0 -1.258,-40.545 -1.258,-90.545c-0,-50.025 0.562,-90.563 1.258,-90.563c0.696,0 1.254,40.538 1.254,90.563c0,50 -0.558,90.545 -1.254,90.545" style="fill:#e1e1e1;fill-rule:nonzero;"/><path d="M877.149,941.127c0,0.696 -21.041,1.258 -46.987,1.258c-25.959,0 -46.996,-0.563 -46.996,-1.258c-0,-0.696 21.037,-1.259 46.996,-1.259c25.946,0 46.987,0.563 46.987,1.259" style="fill:#e1e1e1;fill-rule:nonzero;"/><path d="M877.643,1005.9c0,0.696 -21.212,1.258 -47.375,1.258c-26.171,0 -47.383,-0.562 -47.383,-1.258c0,-0.692 21.212,-1.258 47.383,-1.258c26.163,-0 47.375,0.566 47.375,1.258" style="fill:#e1e1e1;fill-rule:nonzero;"/><rect x="783.167" y="1114.78" width="93.983" height="181.108" style="fill:#fff;"/><path d="M832.805,1295.88c-0.696,0 -1.258,-40.541 -1.258,-90.55c-0,-50.021 0.562,-90.558 1.258,-90.558c0.696,-0 1.254,40.537 1.254,90.558c0,50.009 -0.558,90.55 -1.254,90.55" style="fill:#e1e1e1;fill-rule:nonzero;"/><path d="M877.149,1177.69c0,0.696 -21.041,1.258 -46.987,1.258c-25.959,0 -46.996,-0.562 -46.996,-1.258c-0,-0.692 21.037,-1.258 46.996,-1.258c25.946,-0 46.987,0.566 46.987,1.258" style="fill:#e1e1e1;fill-rule:nonzero;"/><path d="M877.643,1242.46c0,0.696 -21.212,1.259 -47.375,1.259c-26.171,-0 -47.383,-0.563 -47.383,-1.259c0,-0.691 21.212,-1.258 47.383,-1.258c26.163,0 47.375,0.567 47.375,1.258" style="fill:#e1e1e1;fill-rule:nonzero;"/><rect x="940.95" y="313.413" width="225.304" height="1307.65" style="fill:#e1e1e1;"/><rect x="1010.92" y="405.067" width="93.983" height="181.112" style="fill:#fff;"/><path d="M1060.56,586.181c-0.696,-0 -1.259,-40.546 -1.259,-90.55c0,-50.025 0.563,-90.563 1.259,-90.563c0.691,0 1.254,40.538 1.254,90.563c-0,50.004 -0.563,90.55 -1.254,90.55" style="fill:#e1e1e1;fill-rule:nonzero;"/><path d="M1104.9,467.99c-0,0.696 -21.042,1.259 -46.988,1.259c-25.958,-0 -46.996,-0.563 -46.996,-1.259c0,-0.695 21.038,-1.254 46.996,-1.254c25.946,0 46.988,0.559 46.988,1.254" style="fill:#e1e1e1;fill-rule:nonzero;"/><path d="M1105.4,532.763c-0,0.696 -21.213,1.254 -47.375,1.254c-26.171,0 -47.379,-0.558 -47.379,-1.254c-0,-0.696 21.208,-1.258 47.379,-1.258c26.162,-0 47.375,0.562 47.375,1.258" style="fill:#e1e1e1;fill-rule:nonzero;"/><rect x="1010.92" y="643.579" width="93.983" height="181.113" style="fill:#fff;"/><path d="M1060.56,824.69c-0.696,0 -1.259,-40.546 -1.259,-90.55c0,-50.025 0.563,-90.563 1.259,-90.563c0.691,0 1.254,40.538 1.254,90.563c-0,50.004 -0.563,90.55 -1.254,90.55" style="fill:#e1e1e1;fill-rule:nonzero;"/><path d="M1104.9,706.5c-0,0.695 -21.042,1.258 -46.988,1.258c-25.958,-0 -46.996,-0.563 -46.996,-1.258c0,-0.696 21.038,-1.255 46.996,-1.255c25.946,0 46.988,0.559 46.988,1.255" style="fill:#e1e1e1;fill-rule:nonzero;"/><path d="M1105.4,771.27c-0,0.696 -21.213,1.258 -47.375,1.258c-26.171,0 -47.379,-0.562 -47.379,-1.258c-0,-0.696 21.208,-1.254 47.379,-1.254c26.162,-0 47.375,0.558 47.375,1.254" style="fill:#e1e1e1;fill-rule:nonzero;"/><rect x="1010.92" y="882.083" width="93.983" height="181.113" style="fill:#fff;"/><path d="M1060.56,1063.2c-0.696,0 -1.259,-40.542 -1.259,-90.55c0,-50.021 0.563,-90.562 1.259,-90.562c0.691,-0 1.254,40.541 1.254,90.562c-0,50.008 -0.563,90.55 -1.254,90.55" style="fill:#e1e1e1;fill-rule:nonzero;"/><path d="M1104.9,945.009c-0,0.696 -21.042,1.258 -46.988,1.258c-25.958,0 -46.996,-0.562 -46.996,-1.258c0,-0.692 21.038,-1.259 46.996,-1.259c25.946,0 46.988,0.567 46.988,1.259" style="fill:#e1e1e1;fill-rule:nonzero;"/><path d="M1105.4,1009.78c-0,0.696 -21.213,1.258 -47.375,1.258c-26.171,0 -47.379,-0.562 -47.379,-1.258c-0,-0.692 21.208,-1.258 47.379,-1.258c26.162,-0 47.375,0.567 47.375,1.258" style="fill:#e1e1e1;fill-rule:nonzero;"/><rect x="1010.92" y="1120.6" width="93.983" height="181.108" style="fill:#fff;"/><path d="M1060.56,1301.71c-0.696,0 -1.259,-40.541 -1.259,-90.55c0,-50.021 0.563,-90.558 1.259,-90.558c0.691,-0 1.254,40.537 1.254,90.558c-0,50.009 -0.563,90.55 -1.254,90.55" style="fill:#e1e1e1;fill-rule:nonzero;"/><path d="M1104.9,1183.52c-0,0.696 -21.042,1.258 -46.988,1.258c-25.958,0 -46.996,-0.562 -46.996,-1.258c0,-0.692 21.038,-1.258 46.996,-1.258c25.946,-0 46.988,0.566 46.988,1.258" style="fill:#e1e1e1;fill-rule:nonzero;"/><path d="M1105.4,1248.29c-0,0.696 -21.213,1.259 -47.375,1.259c-26.171,-0 -47.379,-0.563 -47.379,-1.259c-0,-0.691 21.208,-1.258 47.379,-1.258c26.162,0 47.375,0.567 47.375,1.258" style="fill:#e1e1e1;fill-rule:nonzero;"/><rect x="783.167" y="1351.34" width="93.983" height="181.113" style="fill:#fff;"/><path d="M832.805,1532.45c-0.696,-0 -1.258,-40.542 -1.258,-90.55c-0,-50.021 0.562,-90.563 1.258,-90.563c0.696,0 1.254,40.542 1.254,90.563c0,50.008 -0.558,90.55 -1.254,90.55" style="fill:#e1e1e1;fill-rule:nonzero;"/><path d="M877.149,1414.26c0,0.696 -21.041,1.259 -46.987,1.259c-25.959,-0 -46.996,-0.563 -46.996,-1.259c-0,-0.691 21.037,-1.258 46.996,-1.258c25.946,0 46.987,0.567 46.987,1.258" style="fill:#e1e1e1;fill-rule:nonzero;"/><path d="M877.643,1479.03c0,0.696 -21.212,1.258 -47.375,1.258c-26.171,0 -47.383,-0.562 -47.383,-1.258c0,-0.692 21.212,-1.259 47.383,-1.259c26.163,0 47.375,0.567 47.375,1.259" style="fill:#e1e1e1;fill-rule:nonzero;"/><rect x="1010.92" y="1359.1" width="93.983" height="181.117" style="fill:#fff;"/><path d="M1060.56,1540.22c-0.696,0 -1.259,-40.546 -1.259,-90.554c0,-50.021 0.563,-90.562 1.259,-90.562c0.691,-0 1.254,40.541 1.254,90.562c-0,50.008 -0.563,90.554 -1.254,90.554" style="fill:#e1e1e1;fill-rule:nonzero;"/><path d="M1104.9,1422.03c-0,0.695 -21.042,1.258 -46.988,1.258c-25.958,-0 -46.996,-0.563 -46.996,-1.258c0,-0.692 21.038,-1.259 46.996,-1.259c25.946,0 46.988,0.567 46.988,1.259" style="fill:#e1e1e1;fill-rule:nonzero;"/><path d="M1105.4,1486.8c-0,0.695 -21.213,1.258 -47.375,1.258c-26.171,-0 -47.379,-0.563 -47.379,-1.258c-0,-0.692 21.208,-1.259 47.379,-1.259c26.162,0 47.375,0.567 47.375,1.259" style="fill:#e1e1e1;fill-rule:nonzero;"/><rect x="2079.9" y="309.629" width="309.221" height="1307.65" style="fill:#ececec;"/><rect x="2137.54" y="401.288" width="93.983" height="181.108" style="fill:#fff;"/><path d="M2187.18,582.397c-0.692,-0 -1.258,-40.546 -1.258,-90.55c-0,-50.021 0.566,-90.559 1.258,-90.559c0.696,0 1.258,40.538 1.258,90.559c0,50.004 -0.562,90.55 -1.258,90.55" style="fill:#e1e1e1;fill-rule:nonzero;"/><path d="M2231.52,464.208c0,0.696 -21.041,1.259 -46.987,1.259c-25.959,-0 -46.996,-0.563 -46.996,-1.259c-0,-0.695 21.037,-1.254 46.996,-1.254c25.946,0 46.987,0.559 46.987,1.254" style="fill:#e1e1e1;fill-rule:nonzero;"/><path d="M2232.02,528.979c-0,0.696 -21.217,1.258 -47.375,1.258c-26.171,0 -47.384,-0.562 -47.384,-1.258c0,-0.696 21.213,-1.254 47.384,-1.254c26.158,-0 47.375,0.558 47.375,1.254" style="fill:#e1e1e1;fill-rule:nonzero;"/><rect x="2137.54" y="637.858" width="93.983" height="181.108" style="fill:#fff;"/><path d="M2187.18,818.965c-0.692,-0 -1.258,-40.546 -1.258,-90.55c-0,-50.025 0.566,-90.558 1.258,-90.558c0.696,-0 1.258,40.533 1.258,90.558c0,50.004 -0.562,90.55 -1.258,90.55" style="fill:#e1e1e1;fill-rule:nonzero;"/><path d="M2231.52,700.776c0,0.696 -21.041,1.259 -46.987,1.259c-25.959,-0 -46.996,-0.563 -46.996,-1.259c-0,-0.696 21.037,-1.258 46.996,-1.258c25.946,-0 46.987,0.562 46.987,1.258" style="fill:#e1e1e1;fill-rule:nonzero;"/><path d="M2232.02,765.547c-0,0.696 -21.217,1.258 -47.375,1.258c-26.171,0 -47.384,-0.562 -47.384,-1.258c0,-0.696 21.213,-1.258 47.384,-1.258c26.158,-0 47.375,0.562 47.375,1.258" style="fill:#e1e1e1;fill-rule:nonzero;"/><rect x="2137.54" y="874.421" width="93.983" height="181.112" style="fill:#fff;"/><path d="M2187.18,1055.54c-0.692,0 -1.258,-40.546 -1.258,-90.55c-0,-50.021 0.566,-90.563 1.258,-90.563c0.696,0 1.258,40.542 1.258,90.563c0,50.004 -0.562,90.55 -1.258,90.55" style="fill:#e1e1e1;fill-rule:nonzero;"/><path d="M2231.52,937.343c0,0.695 -21.041,1.258 -46.987,1.258c-25.959,-0 -46.996,-0.563 -46.996,-1.258c-0,-0.692 21.037,-1.255 46.996,-1.255c25.946,0 46.987,0.563 46.987,1.255" style="fill:#e1e1e1;fill-rule:nonzero;"/><path d="M2232.02,1002.12c-0,0.692 -21.217,1.254 -47.375,1.254c-26.171,0 -47.384,-0.562 -47.384,-1.254c0,-0.696 21.213,-1.258 47.384,-1.258c26.158,-0 47.375,0.562 47.375,1.258" style="fill:#e1e1e1;fill-rule:nonzero;"/><rect x="2137.54" y="1110.99" width="93.983" height="181.112" style="fill:#fff;"/><path d="M2187.18,1292.1c-0.692,0 -1.258,-40.546 -1.258,-90.55c-0,-50.025 0.566,-90.562 1.258,-90.562c0.696,-0 1.258,40.537 1.258,90.562c0,50.004 -0.562,90.55 -1.258,90.55" style="fill:#e1e1e1;fill-rule:nonzero;"/><path d="M2231.52,1173.91c0,0.696 -21.041,1.258 -46.987,1.258c-25.959,0 -46.996,-0.562 -46.996,-1.258c-0,-0.692 21.037,-1.254 46.996,-1.254c25.946,-0 46.987,0.562 46.987,1.254" style="fill:#e1e1e1;fill-rule:nonzero;"/><path d="M2232.02,1238.68c-0,0.692 -21.217,1.255 -47.375,1.255c-26.171,-0 -47.384,-0.563 -47.384,-1.255c0,-0.695 21.213,-1.258 47.384,-1.258c26.158,0 47.375,0.563 47.375,1.258" style="fill:#e1e1e1;fill-rule:nonzero;"/><rect x="2295.33" y="309.629" width="225.3" height="1307.65" style="fill:#e1e1e1;"/><rect x="2365.29" y="401.288" width="93.988" height="181.108" style="fill:#fff;"/><path d="M2414.93,582.397c-0.696,-0 -1.259,-40.546 -1.259,-90.55c0,-50.021 0.563,-90.559 1.259,-90.559c0.691,0 1.258,40.538 1.258,90.559c0,50.004 -0.567,90.55 -1.258,90.55" style="fill:#e1e1e1;fill-rule:nonzero;"/><path d="M2459.28,464.208c-0,0.696 -21.042,1.259 -46.988,1.259c-25.962,-0 -47,-0.563 -47,-1.259c0,-0.695 21.038,-1.254 47,-1.254c25.946,0 46.988,0.559 46.988,1.254" style="fill:#e1e1e1;fill-rule:nonzero;"/><path d="M2459.77,528.979c0,0.696 -21.217,1.258 -47.375,1.258c-26.175,0 -47.383,-0.562 -47.383,-1.258c-0,-0.696 21.208,-1.254 47.383,-1.254c26.158,-0 47.375,0.558 47.375,1.254" style="fill:#e1e1e1;fill-rule:nonzero;"/><rect x="2365.29" y="639.796" width="93.988" height="181.108" style="fill:#fff;"/><path d="M2414.93,820.906c-0.696,-0 -1.259,-40.546 -1.259,-90.55c0,-50.021 0.563,-90.559 1.259,-90.559c0.691,0 1.258,40.538 1.258,90.559c0,50.004 -0.567,90.55 -1.258,90.55" style="fill:#e1e1e1;fill-rule:nonzero;"/><path d="M2459.28,702.717c-0,0.696 -21.042,1.259 -46.988,1.259c-25.962,-0 -47,-0.563 -47,-1.259c0,-0.695 21.038,-1.258 47,-1.258c25.946,0 46.988,0.563 46.988,1.258" style="fill:#e1e1e1;fill-rule:nonzero;"/><path d="M2459.77,767.488c0,0.696 -21.217,1.258 -47.375,1.258c-26.175,0 -47.383,-0.562 -47.383,-1.258c-0,-0.696 21.208,-1.254 47.383,-1.254c26.158,-0 47.375,0.558 47.375,1.254" style="fill:#e1e1e1;fill-rule:nonzero;"/><rect x="2365.29" y="878.304" width="93.988" height="181.112" style="fill:#fff;"/><path d="M2414.93,1059.42c-0.696,0 -1.259,-40.546 -1.259,-90.55c0,-50.025 0.563,-90.562 1.259,-90.562c0.691,-0 1.258,40.537 1.258,90.562c0,50.004 -0.567,90.55 -1.258,90.55" style="fill:#e1e1e1;fill-rule:nonzero;"/><path d="M2459.28,941.228c-0,0.692 -21.042,1.255 -46.988,1.255c-25.962,-0 -47,-0.563 -47,-1.255c0,-0.695 21.038,-1.258 47,-1.258c25.946,0 46.988,0.563 46.988,1.258" style="fill:#e1e1e1;fill-rule:nonzero;"/><path d="M2459.77,1006c0,0.692 -21.217,1.254 -47.375,1.254c-26.175,0 -47.383,-0.562 -47.383,-1.254c-0,-0.696 21.208,-1.258 47.383,-1.258c26.158,-0 47.375,0.562 47.375,1.258" style="fill:#e1e1e1;fill-rule:nonzero;"/><rect x="2365.29" y="1116.81" width="93.988" height="181.113" style="fill:#fff;"/><path d="M2414.93,1297.93c-0.696,0 -1.259,-40.546 -1.259,-90.55c0,-50.021 0.563,-90.562 1.259,-90.562c0.691,-0 1.258,40.541 1.258,90.562c0,50.004 -0.567,90.55 -1.258,90.55" style="fill:#e1e1e1;fill-rule:nonzero;"/><path d="M2459.28,1179.73c-0,0.696 -21.042,1.259 -46.988,1.259c-25.962,-0 -47,-0.563 -47,-1.259c0,-0.691 21.038,-1.254 47,-1.254c25.946,0 46.988,0.563 46.988,1.254" style="fill:#e1e1e1;fill-rule:nonzero;"/><path d="M2459.77,1244.51c0,0.692 -21.217,1.254 -47.375,1.254c-26.175,0 -47.383,-0.562 -47.383,-1.254c-0,-0.696 21.208,-1.258 47.383,-1.258c26.158,-0 47.375,0.562 47.375,1.258" style="fill:#e1e1e1;fill-rule:nonzero;"/><rect x="2137.54" y="1347.56" width="93.983" height="181.113" style="fill:#fff;"/><path d="M2187.18,1528.67c-0.692,-0 -1.258,-40.546 -1.258,-90.55c-0,-50.025 0.566,-90.563 1.258,-90.563c0.696,0 1.258,40.538 1.258,90.563c0,50.004 -0.562,90.55 -1.258,90.55" style="fill:#e1e1e1;fill-rule:nonzero;"/><path d="M2231.52,1410.48c0,0.696 -21.041,1.259 -46.987,1.259c-25.959,-0 -46.996,-0.563 -46.996,-1.259c-0,-0.691 21.037,-1.254 46.996,-1.254c25.946,0 46.987,0.563 46.987,1.254" style="fill:#e1e1e1;fill-rule:nonzero;"/><path d="M2232.02,1475.25c-0,0.691 -21.217,1.254 -47.375,1.254c-26.171,-0 -47.384,-0.563 -47.384,-1.254c0,-0.696 21.213,-1.259 47.384,-1.259c26.158,0 47.375,0.563 47.375,1.259" style="fill:#e1e1e1;fill-rule:nonzero;"/><rect x="2365.29" y="1355.32" width="93.988" height="181.113" style="fill:#fff;"/><path d="M2414.93,1536.43c-0.696,0 -1.259,-40.546 -1.259,-90.55c0,-50.025 0.563,-90.562 1.259,-90.562c0.691,-0 1.258,40.537 1.258,90.562c0,50.004 -0.567,90.55 -1.258,90.55" style="fill:#e1e1e1;fill-rule:nonzero;"/><path d="M2459.28,1418.24c-0,0.695 -21.042,1.262 -46.988,1.262c-25.962,0 -47,-0.567 -47,-1.262c0,-0.692 21.038,-1.255 47,-1.255c25.946,0 46.988,0.563 46.988,1.255" style="fill:#e1e1e1;fill-rule:nonzero;"/><path d="M2459.77,1483.02c0,0.692 -21.217,1.254 -47.375,1.254c-26.175,0 -47.383,-0.562 -47.383,-1.254c-0,-0.696 21.208,-1.258 47.383,-1.258c26.158,-0 47.375,0.562 47.375,1.258" style="fill:#e1e1e1;fill-rule:nonzero;"/><rect x="1141.72" y="3.833" width="382.063" height="1615.68" style="fill:#ececec;"/><rect x="1212.92" y="117.083" width="116.125" height="223.775" style="fill:#fff;"/><path d="M1274.26,340.858c-0.858,0 -1.554,-50.096 -1.554,-111.883c-0,-61.804 0.696,-111.892 1.554,-111.892c0.858,0 1.554,50.088 1.554,111.892c0,61.787 -0.696,111.883 -1.554,111.883" style="fill:#e1e1e1;fill-rule:nonzero;"/><path d="M1329.05,194.828c0,0.858 -25.996,1.554 -58.058,1.554c-32.075,-0 -58.067,-0.696 -58.067,-1.554c0,-0.859 25.992,-1.555 58.067,-1.555c32.062,0 58.058,0.696 58.058,1.555" style="fill:#e1e1e1;fill-rule:nonzero;"/><path d="M1329.66,274.857c-0,0.858 -26.213,1.554 -58.534,1.554c-32.341,-0 -58.545,-0.696 -58.545,-1.554c-0,-0.859 26.204,-1.555 58.545,-1.555c32.321,0 58.534,0.696 58.534,1.555" style="fill:#e1e1e1;fill-rule:nonzero;"/><rect x="1212.92" y="409.379" width="116.125" height="223.775" style="fill:#fff;"/><path d="M1274.26,633.153c-0.858,0 -1.554,-50.096 -1.554,-111.883c-0,-61.804 0.696,-111.892 1.554,-111.892c0.858,0 1.554,50.088 1.554,111.892c0,61.787 -0.696,111.883 -1.554,111.883" style="fill:#e1e1e1;fill-rule:nonzero;"/><path d="M1329.05,487.123c0,0.858 -25.996,1.554 -58.058,1.554c-32.075,0 -58.067,-0.696 -58.067,-1.554c0,-0.858 25.992,-1.554 58.067,-1.554c32.062,-0 58.058,0.696 58.058,1.554" style="fill:#e1e1e1;fill-rule:nonzero;"/><path d="M1329.66,567.15c-0,0.858 -26.213,1.554 -58.534,1.554c-32.341,0 -58.545,-0.696 -58.545,-1.554c-0,-0.858 26.204,-1.554 58.545,-1.554c32.321,-0 58.534,0.696 58.534,1.554" style="fill:#e1e1e1;fill-rule:nonzero;"/><rect x="1212.92" y="701.675" width="116.125" height="223.775" style="fill:#fff;"/><path d="M1274.26,925.449c-0.858,-0 -1.554,-50.096 -1.554,-111.884c-0,-61.804 0.696,-111.891 1.554,-111.891c0.858,-0 1.554,50.087 1.554,111.891c0,61.788 -0.696,111.884 -1.554,111.884" style="fill:#e1e1e1;fill-rule:nonzero;"/><path d="M1329.05,779.418c0,0.859 -25.996,1.555 -58.058,1.555c-32.075,-0 -58.067,-0.696 -58.067,-1.555c0,-0.858 25.992,-1.554 58.067,-1.554c32.062,0 58.058,0.696 58.058,1.554" style="fill:#e1e1e1;fill-rule:nonzero;"/><path d="M1329.66,859.445c-0,0.859 -26.213,1.555 -58.534,1.555c-32.341,-0 -58.545,-0.696 -58.545,-1.555c-0,-0.858 26.204,-1.554 58.545,-1.554c32.321,0 58.534,0.696 58.534,1.554" style="fill:#e1e1e1;fill-rule:nonzero;"/><rect x="1212.92" y="993.967" width="116.125" height="223.775" style="fill:#fff;"/><path d="M1274.26,1217.74c-0.858,0 -1.554,-50.096 -1.554,-111.883c-0,-61.804 0.696,-111.892 1.554,-111.892c0.858,0 1.554,50.088 1.554,111.892c0,61.787 -0.696,111.883 -1.554,111.883" style="fill:#e1e1e1;fill-rule:nonzero;"/><path d="M1329.05,1071.71c0,0.854 -25.996,1.55 -58.058,1.55c-32.075,0 -58.067,-0.696 -58.067,-1.55c0,-0.858 25.992,-1.554 58.067,-1.554c32.062,0 58.058,0.696 58.058,1.554" style="fill:#e1e1e1;fill-rule:nonzero;"/><path d="M1329.66,1151.74c-0,0.858 -26.213,1.554 -58.534,1.554c-32.341,-0 -58.545,-0.696 -58.545,-1.554c-0,-0.854 26.204,-1.55 58.545,-1.55c32.321,-0 58.534,0.696 58.534,1.55" style="fill:#e1e1e1;fill-rule:nonzero;"/><rect x="1407.89" y="3.833" width="278.375" height="1615.68" style="fill:#e1e1e1;"/><rect x="1494.33" y="117.083" width="116.125" height="223.775" style="fill:#fff;"/><path d="M1555.67,340.858c-0.859,0 -1.554,-50.096 -1.554,-111.883c-0,-61.804 0.695,-111.892 1.554,-111.892c0.854,0 1.55,50.088 1.55,111.892c-0,61.787 -0.696,111.883 -1.55,111.883" style="fill:#e1e1e1;fill-rule:nonzero;"/><path d="M1610.46,194.828c-0,0.858 -25.996,1.554 -58.063,1.554c-32.071,-0 -58.062,-0.696 -58.062,-1.554c-0,-0.859 25.991,-1.555 58.062,-1.555c32.067,0 58.063,0.696 58.063,1.555" style="fill:#e1e1e1;fill-rule:nonzero;"/><path d="M1611.07,274.857c0,0.858 -26.212,1.554 -58.537,1.554c-32.338,-0 -58.542,-0.696 -58.542,-1.554c0,-0.859 26.204,-1.555 58.542,-1.555c32.325,0 58.537,0.696 58.537,1.555" style="fill:#e1e1e1;fill-rule:nonzero;"/><rect x="1494.33" y="411.775" width="116.125" height="223.775" style="fill:#fff;"/><path d="M1555.67,635.55c-0.859,0 -1.554,-50.096 -1.554,-111.883c-0,-61.804 0.695,-111.892 1.554,-111.892c0.854,0 1.55,50.088 1.55,111.892c-0,61.787 -0.696,111.883 -1.55,111.883" style="fill:#e1e1e1;fill-rule:nonzero;"/><path d="M1610.46,489.522c-0,0.858 -25.996,1.554 -58.063,1.554c-32.071,-0 -58.062,-0.696 -58.062,-1.554c-0,-0.859 25.991,-1.555 58.062,-1.555c32.067,0 58.063,0.696 58.063,1.555" style="fill:#e1e1e1;fill-rule:nonzero;"/><path d="M1611.07,569.549c0,0.858 -26.212,1.554 -58.537,1.554c-32.338,-0 -58.542,-0.696 -58.542,-1.554c0,-0.859 26.204,-1.554 58.542,-1.554c32.325,-0 58.537,0.695 58.537,1.554" style="fill:#e1e1e1;fill-rule:nonzero;"/><rect x="1494.33" y="706.467" width="116.125" height="223.779" style="fill:#fff;"/><path d="M1555.67,930.246c-0.859,0 -1.554,-50.1 -1.554,-111.883c-0,-61.808 0.695,-111.896 1.554,-111.896c0.854,0 1.55,50.088 1.55,111.896c-0,61.783 -0.696,111.883 -1.55,111.883" style="fill:#e1e1e1;fill-rule:nonzero;"/><path d="M1610.46,784.213c-0,0.859 -25.996,1.555 -58.063,1.555c-32.071,-0 -58.062,-0.696 -58.062,-1.555c-0,-0.858 25.991,-1.554 58.062,-1.554c32.067,0 58.063,0.696 58.063,1.554" style="fill:#e1e1e1;fill-rule:nonzero;"/><path d="M1611.07,864.243c0,0.858 -26.212,1.554 -58.537,1.554c-32.338,0 -58.542,-0.696 -58.542,-1.554c0,-0.858 26.204,-1.554 58.542,-1.554c32.325,-0 58.537,0.696 58.537,1.554" style="fill:#e1e1e1;fill-rule:nonzero;"/><rect x="1494.33" y="1001.16" width="116.125" height="223.775" style="fill:#fff;"/><path d="M1555.67,1224.94c-0.859,0 -1.554,-50.096 -1.554,-111.883c-0,-61.804 0.695,-111.892 1.554,-111.892c0.854,0 1.55,50.088 1.55,111.892c-0,61.787 -0.696,111.883 -1.55,111.883" style="fill:#e1e1e1;fill-rule:nonzero;"/><path d="M1610.46,1078.91c-0,0.858 -25.996,1.554 -58.063,1.554c-32.071,-0 -58.062,-0.696 -58.062,-1.555c-0,-0.858 25.991,-1.554 58.062,-1.554c32.067,0 58.063,0.696 58.063,1.554" style="fill:#e1e1e1;fill-rule:nonzero;"/><path d="M1611.07,1158.94c0,0.854 -26.212,1.55 -58.537,1.55c-32.338,-0 -58.542,-0.696 -58.542,-1.55c0,-0.859 26.204,-1.555 58.542,-1.555c32.325,0 58.537,0.696 58.537,1.555" style="fill:#e1e1e1;fill-rule:nonzero;"/><rect x="1212.92" y="1286.27" width="116.125" height="223.771" style="fill:#fff;"/><path d="M1274.26,1510.04c-0.858,0 -1.554,-50.091 -1.554,-111.879c-0,-61.808 0.696,-111.891 1.554,-111.891c0.858,-0 1.554,50.083 1.554,111.891c0,61.788 -0.696,111.879 -1.554,111.879" style="fill:#e1e1e1;fill-rule:nonzero;"/><path d="M1329.05,1364.01c0,0.858 -25.996,1.554 -58.058,1.554c-32.075,-0 -58.067,-0.696 -58.067,-1.554c0,-0.854 25.992,-1.55 58.067,-1.55c32.062,-0 58.058,0.696 58.058,1.55" style="fill:#e1e1e1;fill-rule:nonzero;"/><path d="M1329.66,1444.04c-0,0.859 -26.213,1.554 -58.534,1.554c-32.341,0 -58.545,-0.695 -58.545,-1.554c-0,-0.858 26.204,-1.55 58.545,-1.55c32.321,0 58.534,0.692 58.534,1.55" style="fill:#e1e1e1;fill-rule:nonzero;"/><rect x="1494.33" y="1295.86" width="116.125" height="223.771" style="fill:#fff;"/><path d="M1555.67,1519.63c-0.859,0 -1.554,-50.096 -1.554,-111.883c-0,-61.804 0.695,-111.888 1.554,-111.888c0.854,0 1.55,50.084 1.55,111.888c-0,61.787 -0.696,111.883 -1.55,111.883" style="fill:#e1e1e1;fill-rule:nonzero;"/><path d="M1610.46,1373.6c-0,0.858 -25.996,1.55 -58.063,1.55c-32.071,-0 -58.062,-0.692 -58.062,-1.55c-0,-0.859 25.991,-1.554 58.062,-1.554c32.067,-0 58.063,0.695 58.063,1.554" style="fill:#e1e1e1;fill-rule:nonzero;"/><path d="M1611.07,1453.63c0,0.854 -26.212,1.55 -58.537,1.55c-32.338,-0 -58.542,-0.696 -58.542,-1.55c0,-0.858 26.204,-1.554 58.542,-1.554c32.325,-0 58.537,0.696 58.537,1.554" style="fill:#e1e1e1;fill-rule:nonzero;"/><path d="M2225.7,138.752c2.125,-15.45 -19.68,-28.158 -36.059,-29.479c-7.812,-0.629 -15.933,0.567 -23.333,-2.012c-16.038,-5.592 -22.442,-26.309 -38.088,-32.909c-11.695,-4.933 -25.166,-0.541 -36.504,5.167c-11.341,5.708 -22.55,12.892 -35.221,13.7c-11.02,0.708 -22.987,-3.379 -32.629,2.004c-7.187,4.013 -10.95,12.292 -17.571,17.175c-6.483,4.779 -14.933,5.792 -22.97,6.229c-8.042,0.438 -16.363,0.517 -23.684,3.871c-7.316,3.35 -13.371,11.092 -11.854,18.996l277.913,-2.742Z" style="fill:#ececec;fill-rule:nonzero;"/><path d="M417.192,260.868c2.125,-15.45 -19.675,-28.155 -36.058,-29.475c-7.813,-0.634 -15.929,0.562 -23.329,-2.017c-16.038,-5.588 -22.442,-26.308 -38.092,-32.908c-11.696,-4.934 -25.163,-0.538 -36.504,5.166c-11.342,5.709 -22.546,12.892 -35.217,13.704c-11.021,0.705 -22.992,-3.383 -32.633,2c-7.188,4.013 -10.95,12.292 -17.571,17.175c-6.479,4.78 -14.933,5.792 -22.971,6.23c-8.037,0.437 -16.362,0.516 -23.683,3.87c-7.317,3.35 -13.371,11.092 -11.854,18.996l277.912,-2.741Z" style="fill:#ececec;fill-rule:nonzero;"/><path d="M865.876,107.1c3.3,-23.975 -30.538,-43.7 -55.963,-45.746c-12.125,-0.979 -24.72,0.871 -36.208,-3.129c-24.887,-8.675 -34.829,-40.83 -59.112,-51.071c-18.159,-7.659 -39.059,-0.842 -56.659,8.016c-17.6,8.859 -34.996,20.009 -54.658,21.267c-17.104,1.096 -35.679,-5.25 -50.646,3.108c-11.15,6.225 -16.992,19.075 -27.271,26.655c-10.054,7.416 -23.171,8.987 -35.65,9.666c-12.475,0.679 -25.392,0.804 -36.754,6.004c-11.358,5.205 -20.758,17.217 -18.4,29.484l431.321,-4.254Z" style="fill:#f5f5f5;fill-rule:nonzero;"/><path d="M2661.45,992.481l-1445.6,-13.675l1.849,-195.417l1445.6,13.675l-1.849,195.417Z" style="fill:#ffcb00;"/><g opacity="0.4"><path d="M2661.45,992.481l-1445.6,-13.675l1.849,-195.417l1445.6,13.675l-1.849,195.417Z"/></g><path d="M1156.99,766.338c15.95,-42.283 54.329,-72.004 99.263,-76.858l324.896,-35.113l119.262,-83.416c82.913,-57.996 181.867,-88.65 283.046,-87.692l633.904,5.996l0.013,-0l136.237,1.291c4.233,0.038 8.192,2.088 10.667,5.521c5.012,6.954 2.237,16.767 -5.675,20.063l-55.759,23.233c2.013,3.517 3.884,7.146 5.48,10.946l30.679,72.983c7.479,17.788 11.241,36.913 11.058,56.204c17.533,0.167 31.617,14.517 31.45,32.05l-1.196,126.584l32.763,15.012c15.746,7.217 25.783,23.017 25.621,40.342l-0.313,32.837c-0.237,25.559 -18.492,47.396 -43.608,52.175l-174.454,33.18l0.145,-15.738c0.88,-92.829 -73.658,-168.792 -166.487,-169.671c-92.829,-0.879 -168.792,73.663 -169.671,166.492l-0.15,15.733l-699.579,-6.621l0.146,-15.733c0.879,-92.829 -73.659,-168.792 -166.488,-169.671c-92.829,-0.879 -168.791,73.663 -169.671,166.488l-0.15,15.741l-85.883,-0.816c-23.187,-0.217 -41.808,-19.196 -41.587,-42.384l0.904,-96.016l35.137,-93.142Z" style="fill:#ffcb00;fill-rule:nonzero;"/><path d="M2708.32,550.31l30.679,72.984c7.475,17.783 11.242,36.912 11.058,56.2l-43.312,-0.409l-41.159,-124.196l37.255,-15.525c2.012,3.517 3.879,7.142 5.479,10.946" style="fill:#375a64;fill-rule:nonzero;"/><path d="M1156.99,766.338c2.704,-7.179 6.109,-13.958 10.029,-20.35l46.017,0.438l-42.558,96.245l-48.725,27.521l0.1,-10.712l35.137,-93.142Z" style="fill:#ffcb00;fill-rule:nonzero;"/><g opacity="0.2"><path d="M1156.99,766.338c2.704,-7.179 6.109,-13.958 10.029,-20.35l46.017,0.438l-42.558,96.245l-48.725,27.521l0.1,-10.712l35.137,-93.142Z" style="fill-rule:nonzero;"/></g><path d="M2777.38,795.346l-23.846,-0.225c-13.625,-0.129 -26.888,-4.417 -38.008,-12.287l-39.438,-27.913c-6.95,-4.917 -11.042,-12.925 -10.958,-21.437c0.133,-14.338 11.866,-25.85 26.204,-25.717l86.775,0.821c2.1,0.021 3.783,1.737 3.767,3.841l-0.655,79.142c-0.016,2.104 -1.737,3.796 -3.841,3.775" style="fill:#ececec;fill-rule:nonzero;"/><path d="M1119.29,865.828l13.92,-7.863l-8.45,-0.079c-2.766,-0.029 -4.991,-2.296 -4.962,-5.062c0.021,-2.767 2.292,-4.992 5.058,-4.967l25.817,0.246l8.742,-4.938l-29.455,-0.279c-2.766,-0.029 -4.991,-2.296 -4.966,-5.062c0.025,-2.767 2.291,-4.992 5.062,-4.967l39.117,0.371l2.212,-5l-35.441,-0.338c-2.767,-0.025 -4.996,-2.291 -4.967,-5.058c0.025,-2.771 2.292,-4.996 5.063,-4.967l39.762,0.375l2.208,-5.004l-36.995,-0.35c-2.767,-0.025 -4.992,-2.292 -4.967,-5.058c0.025,-2.767 2.296,-4.992 5.062,-4.967l41.317,0.392l2.213,-5l-37.709,-0.359c-2.766,-0.025 -4.991,-2.291 -4.966,-5.062c0.025,-2.767 2.295,-4.992 5.062,-4.963l42.025,0.396l2.213,-5l-38.446,-0.362c-2.767,-0.029 -4.992,-2.296 -4.967,-5.063c0.029,-2.771 2.296,-4.991 5.063,-4.966l42.762,0.404l2.213,-5l-39.58,-0.375c-2.766,-0.025 -4.991,-2.292 -4.966,-5.063c0.025,-2.766 2.291,-4.991 5.062,-4.966l43.9,0.416l3.063,-6.925l-38.396,-0.362c-2.767,-0.025 -4.992,-2.292 -4.967,-5.059c0.025,-2.77 2.292,-4.995 5.063,-4.966l46.012,0.433c1.688,0.017 3.254,0.879 4.167,2.296c0.912,1.421 1.054,3.2 0.371,4.746l-14.084,31.858l-0.008,0.013l-6.617,14.97c-0.004,0.009 -0.008,0.017 -0.012,0.025l-6.617,14.967c0,0.004 -0.004,0.008 -0.004,0.008l-6.621,14.975c-0.004,0.009 -0.004,0.017 -0.008,0.021l-6.621,14.975l-0.004,0.004l-1.958,4.43c-0.438,0.987 -1.18,1.808 -2.121,2.337l-48.721,27.521c-0.796,0.45 -1.658,0.658 -2.508,0.65c-1.734,-0.017 -3.413,-0.933 -4.325,-2.546c-1.363,-2.412 -0.513,-5.471 1.9,-6.833" style="fill:#ffcb00;fill-rule:nonzero;"/><g opacity="0.2"><path d="M1119.29,865.828l13.92,-7.863l-8.45,-0.079c-2.766,-0.029 -4.991,-2.296 -4.962,-5.062c0.021,-2.767 2.292,-4.992 5.058,-4.967l25.817,0.246l8.742,-4.938l-29.455,-0.279c-2.766,-0.029 -4.991,-2.296 -4.966,-5.062c0.025,-2.767 2.291,-4.992 5.062,-4.967l39.117,0.371l2.212,-5l-35.441,-0.338c-2.767,-0.025 -4.996,-2.291 -4.967,-5.058c0.025,-2.771 2.292,-4.996 5.063,-4.967l39.762,0.375l2.208,-5.004l-36.995,-0.35c-2.767,-0.025 -4.992,-2.292 -4.967,-5.058c0.025,-2.767 2.296,-4.992 5.062,-4.967l41.317,0.392l2.213,-5l-37.709,-0.359c-2.766,-0.025 -4.991,-2.291 -4.966,-5.062c0.025,-2.767 2.295,-4.992 5.062,-4.963l42.025,0.396l2.213,-5l-38.446,-0.362c-2.767,-0.029 -4.992,-2.296 -4.967,-5.063c0.029,-2.771 2.296,-4.991 5.063,-4.966l42.762,0.404l2.213,-5l-39.58,-0.375c-2.766,-0.025 -4.991,-2.292 -4.966,-5.063c0.025,-2.766 2.291,-4.991 5.062,-4.966l43.9,0.416l3.063,-6.925l-38.396,-0.362c-2.767,-0.025 -4.992,-2.292 -4.967,-5.059c0.025,-2.77 2.292,-4.995 5.063,-4.966l46.012,0.433c1.688,0.017 3.254,0.879 4.167,2.296c0.912,1.421 1.054,3.2 0.371,4.746l-14.084,31.858l-0.008,0.013l-6.617,14.97c-0.004,0.009 -0.008,0.017 -0.012,0.025l-6.617,14.967c0,0.004 -0.004,0.008 -0.004,0.008l-6.621,14.975c-0.004,0.009 -0.004,0.017 -0.008,0.021l-6.621,14.975l-0.004,0.004l-1.958,4.43c-0.438,0.987 -1.18,1.808 -2.121,2.337l-48.721,27.521c-0.796,0.45 -1.658,0.658 -2.508,0.65c-1.734,-0.017 -3.413,-0.933 -4.325,-2.546c-1.363,-2.412 -0.513,-5.471 1.9,-6.833" style="fill:#fff;fill-rule:nonzero;"/></g><path d="M2595.04,1000.55c0.405,80.904 -64.858,146.812 -145.762,147.216c-80.904,0.404 -146.821,-64.858 -147.221,-145.762c-0.4,-80.909 64.858,-146.821 145.767,-147.221c80.904,-0.404 146.816,64.862 147.216,145.767" style="fill:#1a2e35;fill-rule:nonzero;"/><path d="M2595.02,1000.17c-0,0.125 0.021,0.25 0.021,0.379c0.404,80.904 -64.863,146.813 -145.767,147.217c-80.904,0.404 -146.817,-64.863 -147.221,-145.767c0,-0.125 0.017,-0.25 0.021,-0.375l292.946,-1.454Z" style="fill:#1a2e35;fill-rule:nonzero;"/><path d="M2551.39,1000.77c0.279,56.8 -45.537,103.075 -102.337,103.358c-56.8,0.28 -103.075,-45.537 -103.359,-102.337c-0.283,-56.804 45.538,-103.079 102.338,-103.358c56.804,-0.284 103.079,45.533 103.358,102.337" style="fill:#fafafa;fill-rule:nonzero;"/><path d="M2448.04,898.429c56.804,-0.284 103.075,45.533 103.358,102.337l-205.7,1.021c-0.279,-56.804 45.538,-103.079 102.342,-103.358" style="fill:#e1e1e1;fill-rule:nonzero;"/><path d="M2511.2,1000.97c0.171,34.6 -27.737,62.787 -62.337,62.958c-34.604,0.171 -62.788,-27.738 -62.963,-62.338c-0.171,-34.6 27.742,-62.787 62.342,-62.958c34.596,-0.175 62.787,27.733 62.958,62.338" style="fill:#1a2e35;fill-rule:nonzero;"/><path d="M1562.39,990.777c0.404,80.904 -64.859,146.817 -145.763,147.217c-80.908,0.404 -146.821,-64.859 -147.221,-145.759c-0.404,-80.908 64.859,-146.821 145.767,-147.221c80.904,-0.404 146.817,64.859 147.217,145.763" style="fill:#1a2e35;fill-rule:nonzero;"/><path d="M1562.37,990.398c0,0.125 0.021,0.254 0.021,0.379c0.404,80.904 -64.862,146.817 -145.766,147.217c-80.905,0.404 -146.817,-64.863 -147.217,-145.763c-0.004,-0.129 0.017,-0.25 0.017,-0.375l292.945,-1.458Z" style="fill:#1a2e35;fill-rule:nonzero;"/><path d="M1518.75,990.992c0.279,56.804 -45.538,103.079 -102.338,103.363c-56.8,0.279 -103.075,-45.538 -103.358,-102.342c-0.284,-56.8 45.537,-103.075 102.337,-103.358c56.804,-0.279 103.075,45.537 103.359,102.337" style="fill:#fafafa;fill-rule:nonzero;"/><path d="M1415.39,888.657c56.804,-0.279 103.07,45.537 103.358,102.337l-205.696,1.021c-0.283,-56.8 45.538,-103.079 102.338,-103.358" style="fill:#e1e1e1;fill-rule:nonzero;"/><path d="M1478.55,991.192c0.17,34.604 -27.738,62.787 -62.338,62.962c-34.6,0.171 -62.792,-27.737 -62.962,-62.341c-0.171,-34.596 27.737,-62.788 62.341,-62.959c34.596,-0.17 62.788,27.738 62.959,62.338" style="fill:#1a2e35;fill-rule:nonzero;"/><path d="M1581.15,654.369l119.262,-83.42c34.529,-24.15 71.871,-43.488 110.971,-57.846l39.05,0.371l-238.471,155.254l-30.812,-14.359Z" style="fill:#375a64;fill-rule:nonzero;"/><path d="M1230.78,737.33l-57.58,-0.546c8.771,-11.258 18.7,-20.904 29.9,-28.783c13.2,-4.1 29.109,12.546 27.679,29.329" style="fill:#fafafa;fill-rule:nonzero;"/><path d="M2404.87,680.746l-762.046,-7.208l218.98,-148.087c16.058,-11.542 35.375,-17.667 55.15,-17.48l472.42,4.471c0.001,0 169.746,-2.554 206.513,48.996l-191.017,119.308Z" style="fill:#1a2e35;fill-rule:nonzero;"/><path d="M1673.68,674.185l197.1,-144.404c11.171,-8.187 24.696,-12.542 38.55,-12.408l90.279,0.854l-32.062,158.737l-293.867,-2.779Zm373.229,3.529l1.509,-159.025l261.104,2.467l26.821,159.3l-289.434,-2.742Zm351.446,3.33l-26.891,-159.3l88.645,0.841c32.25,0.304 69.596,7.788 99.471,19.938l26.654,12.041c7.567,3.075 13.059,9.384 15.071,17.305c2.013,7.92 0.192,16.087 -4.996,22.408l-31.508,38.354c-24.117,29.371 -58.962,46.858 -96.6,48.8c-2.758,0.142 -5.529,0.221 -8.308,0.192l-61.538,-0.579Z" style="fill:#375a64;fill-rule:nonzero;"/><path d="M1996.02,966.607c0.025,-0 0.046,-0.258 0.067,-0.754c0.016,-0.571 0.029,-1.3 0.054,-2.209c0.021,-2.037 0.054,-4.883 0.091,-8.495c0.021,-7.475 0.046,-18.121 0.075,-31.242c-0.058,-26.458 -0.145,-62.858 -0.237,-103.063c-0.108,-20.125 -0.204,-39.295 -0.296,-56.745c-0.058,-8.717 -0.112,-17.005 -0.166,-24.763c-0.167,-7.771 0.02,-14.937 0.941,-21.462c1.746,-13.038 4.929,-23.28 7.354,-30.213c1.234,-3.471 2.288,-6.129 3.025,-7.925c0.35,-0.837 0.634,-1.508 0.85,-2.033c0.188,-0.463 0.284,-0.7 0.263,-0.709c-0.021,-0.012 -0.154,0.205 -0.383,0.646c-0.238,0.442 -0.559,1.113 -0.971,1.988c-0.821,1.766 -1.959,4.4 -3.271,7.854c-2.583,6.904 -5.921,17.15 -7.8,30.267c-0.984,6.541 -1.229,13.858 -1.109,21.591c0.017,7.759 0.03,16.046 0.042,24.763c0.059,17.45 0.125,36.616 0.188,56.746c0.25,40.204 0.475,76.604 0.633,103.062c0.146,13.117 0.262,23.767 0.346,31.242c0.066,3.612 0.121,6.458 0.158,8.491c0.034,0.909 0.058,1.638 0.075,2.209c0.025,0.496 0.05,0.754 0.071,0.754" style="fill:#1a2e35;fill-rule:nonzero;"/><path d="M1667.92,685.206c-0.013,-0.021 -0.217,0.117 -0.609,0.408c-0.446,0.338 -1.008,0.771 -1.712,1.309c-0.38,0.296 -0.796,0.625 -1.25,0.979c-0.409,0.429 -0.85,0.896 -1.321,1.392c-0.946,1.012 -2.1,2.141 -3.117,3.633c-4.408,5.704 -9.312,15.025 -13.483,27.183c-2.1,6.075 -4.096,12.834 -5.867,20.175c-0.904,3.667 -1.712,7.492 -2.458,11.45c-0.854,3.913 -1.079,8.2 -1.042,12.413c-0.133,16.971 0.179,35.596 0.479,55.158c0.654,39.129 1.504,74.542 2.188,100.171c0.379,12.742 0.687,23.083 0.904,30.35c0.133,3.508 0.242,6.267 0.317,8.25c0.05,0.879 0.087,1.587 0.12,2.146c0.03,0.479 0.059,0.729 0.084,0.729c0.021,-0 0.037,-0.25 0.05,-0.733c0.004,-0.559 0.008,-1.267 0.016,-2.15c-0.016,-1.98 -0.041,-4.742 -0.07,-8.255c-0.113,-7.266 -0.28,-17.612 -0.48,-30.358c-0.462,-25.721 -1.1,-61.092 -1.804,-100.175c-0.3,-19.55 -0.65,-38.192 -0.583,-55.121c-0.046,-4.262 0.137,-8.262 0.967,-12.216c0.725,-3.938 1.504,-7.75 2.379,-11.405c1.725,-7.32 3.65,-14.062 5.691,-20.12c4.03,-12.138 8.767,-21.446 13.009,-27.184c4.225,-5.779 7.754,-7.85 7.591,-8.029" style="fill:#1a2e35;fill-rule:nonzero;"/><path d="M1642.83,679.805c0.087,-9.463 5.279,-18.138 13.567,-22.692l34.491,-18.95c9.838,-5.404 20.896,-8.183 32.117,-8.079c6.979,0.067 13.837,1.246 20.337,3.446c14.621,4.946 24.25,18.962 24.692,34.387c0.613,21.438 -16.708,39.088 -38.146,38.884l-61.133,-0.575c-14.454,-0.138 -26.063,-11.967 -25.925,-26.421" style="fill:#ffcb00;fill-rule:nonzero;"/><path d="M1642.83,679.805c0.083,-0 0.087,1.158 0.362,3.316c0.263,2.155 1.013,5.342 2.925,8.992c1.98,3.583 5.309,7.613 10.425,10.454c2.559,1.379 5.538,2.421 8.796,2.863c3.242,0.416 6.834,0.233 10.55,0.3c14.938,0.091 32.663,0.204 52.338,0.325c4.887,0.075 9.829,-0.484 14.591,-2.25c4.746,-1.717 9.234,-4.471 13.021,-8.104c3.775,-3.63 6.9,-8.117 8.859,-13.18c1.975,-5.05 2.787,-10.608 2.437,-16.158c-0.737,-11.133 -6.604,-21.492 -15.183,-27.537c-4.25,-3.117 -9.167,-4.896 -14.125,-6.113c-4.95,-1.225 -9.933,-1.837 -14.804,-1.896c-9.75,-0.104 -18.984,1.992 -26.904,5.5c-3.967,1.725 -7.596,3.925 -11.192,5.825c-3.575,1.942 -7,3.804 -10.275,5.588c-6.538,3.537 -12.463,6.746 -17.679,9.579c-5.192,2.725 -8.6,6.696 -10.604,10.262c-2.03,3.596 -2.784,6.784 -3.13,8.921c-0.333,2.159 -0.32,3.317 -0.408,3.313c0,-0 -0.146,-1.159 0.088,-3.354c0.25,-2.18 0.912,-5.45 2.904,-9.18c1.962,-3.691 5.416,-7.858 10.721,-10.745c5.187,-2.888 11.07,-6.167 17.566,-9.788c3.259,-1.808 6.667,-3.7 10.221,-5.675c3.575,-1.921 7.188,-4.15 11.25,-5.954c8.063,-3.633 17.483,-5.825 27.458,-5.758c4.98,0.037 10.084,0.645 15.155,1.887c5.033,1.213 10.22,3.067 14.662,6.313c8.983,6.304 15.096,17.095 15.867,28.7c0.371,5.783 -0.484,11.587 -2.55,16.854c-2.05,5.275 -5.313,9.95 -9.254,13.721c-3.955,3.779 -8.634,6.637 -13.584,8.412c-4.933,1.825 -10.175,2.383 -15.121,2.283c-19.67,-0.25 -37.4,-0.475 -52.333,-0.666c-3.729,-0.104 -7.262,0.05 -10.683,-0.421c-3.384,-0.5 -6.463,-1.621 -9.084,-3.088c-5.254,-3.012 -8.604,-7.225 -10.541,-10.945c-1.879,-3.784 -2.534,-7.046 -2.696,-9.238c-0.175,-2.2 -0.046,-3.358 -0.046,-3.358" style="fill:#1a2e35;fill-rule:nonzero;"/><path d="M1737.9,644.667c-0.12,0.087 -0.891,-1.208 -2.916,-2.875c-2.004,-1.65 -5.438,-3.55 -10.071,-4.179c-4.638,-0.663 -10.263,0.079 -16.329,1.612c-6.088,1.459 -12.667,3.554 -19.325,6.371c-13.354,5.596 -24.259,13.108 -31.521,19.188c-7.329,6.041 -11.221,10.508 -11.442,10.291c-0.083,-0.071 0.85,-1.216 2.613,-3.229c1.8,-1.975 4.496,-4.767 8.1,-7.921c7.137,-6.354 18.096,-14.125 31.633,-19.796c6.742,-2.85 13.421,-4.937 19.608,-6.333c6.142,-1.471 12,-2.137 16.83,-1.296c4.841,0.809 8.358,2.963 10.308,4.825c0.996,0.929 1.633,1.779 2.025,2.371c0.375,0.604 0.533,0.942 0.487,0.971" style="fill:#fff;fill-rule:nonzero;"/><path d="M2235.15,1003.75c-0,-0 0.008,-0.617 -0.038,-1.813c-0.05,-1.233 -0.129,-2.996 -0.229,-5.296c-0.071,-2.329 -0.341,-5.204 -0.337,-8.608c0.095,-3.412 0.204,-7.337 0.325,-11.754c0.208,-4.408 0.887,-9.292 1.383,-14.642c0.267,-2.679 0.904,-5.421 1.371,-8.304c0.562,-2.858 0.925,-5.879 1.704,-8.921c2.8,-12.241 7.129,-25.916 13.496,-40.383c6.541,-14.379 15.346,-29.413 26.783,-44.038c11.442,-14.604 25.604,-28.77 42.579,-40.933c16.954,-12.117 36.696,-22.292 58.475,-28.8c21.729,-6.6 45.255,-10.046 69.346,-9.808c24.1,0.483 47.517,4.554 69.121,11.579c21.662,6.933 41.254,17.308 58.317,29.296c17.079,12.025 31.604,25.766 43.67,39.879c12.071,14.121 21.717,28.596 29.4,42.404c7.5,13.921 13.117,27.104 17.342,38.933c1.075,2.95 1.879,5.88 2.783,8.655c0.83,2.795 1.792,5.437 2.421,8.054c1.259,5.229 2.6,9.971 3.484,14.3c0.825,4.341 1.558,8.2 2.195,11.55c0.571,3.358 0.846,6.233 1.184,8.533c0.312,2.279 0.55,4.029 0.716,5.254c0.171,1.184 0.288,1.788 0.288,1.788c-0,-0 -0.029,-0.613 -0.154,-1.8c-0.134,-1.229 -0.329,-2.988 -0.579,-5.275c-0.3,-2.309 -0.534,-5.192 -1.063,-8.559c-0.608,-3.366 -1.304,-7.241 -2.083,-11.595c-0.842,-4.346 -2.146,-9.109 -3.375,-14.363c-0.609,-2.629 -1.563,-5.279 -2.375,-8.092c-0.892,-2.787 -1.679,-5.729 -2.742,-8.695c-4.166,-11.888 -9.742,-25.138 -17.216,-39.138c-7.659,-13.887 -17.3,-28.45 -29.388,-42.671c-12.079,-14.204 -26.65,-28.046 -43.804,-40.162c-17.138,-12.079 -36.838,-22.542 -58.613,-29.534c-21.725,-7.079 -45.271,-11.179 -69.512,-11.67c-24.225,-0.242 -47.892,3.237 -69.746,9.895c-21.904,6.563 -41.758,16.825 -58.804,29.05c-17.058,12.259 -31.271,26.538 -42.733,41.246c-11.463,14.734 -20.259,29.863 -26.775,44.334c-6.338,14.554 -10.625,28.304 -13.363,40.608c-0.762,3.054 -1.112,6.092 -1.658,8.962c-0.45,2.892 -1.071,5.65 -1.321,8.338c-0.458,5.375 -1.096,10.275 -1.267,14.7c-0.079,4.429 -0.146,8.362 -0.204,11.783c0.033,3.409 0.35,6.288 0.458,8.621c0.159,2.296 0.28,4.054 0.367,5.292c0.087,1.191 0.171,1.8 0.171,1.8" style="fill:#1a2e35;fill-rule:nonzero;"/><path d="M2387.08,787.644c0.042,0.02 0.3,-0.321 0.758,-0.996c0.526,-0.817 1.159,-1.804 1.93,-2.996c1.637,-2.625 3.958,-6.454 6.704,-11.263c2.716,-4.816 5.962,-10.558 8.929,-17.3c0.7,-1.716 1.442,-3.445 1.838,-5.45c0.274,-1.033 0.045,-2.062 -0.126,-3.104c-0.237,-0.983 -0.541,-1.921 -0.812,-2.9c-1.225,-3.816 -2.65,-7.687 -4.188,-11.621c-6.158,-15.737 -12.316,-29.72 -16.795,-39.837c-2.255,-5.05 -4.113,-9.117 -5.434,-11.913c-0.616,-1.279 -1.125,-2.337 -1.55,-3.212c-0.37,-0.725 -0.579,-1.096 -0.625,-1.079c-0.041,0.021 0.092,0.425 0.384,1.187c0.358,0.9 0.791,1.992 1.321,3.309c1.27,3.045 2.975,7.129 5.041,12.083c4.259,10.2 10.279,24.246 16.425,39.942c1.525,3.92 2.959,7.775 4.175,11.529c0.504,1.904 1.321,3.708 0.934,5.412c-0.334,1.754 -1.046,3.509 -1.713,5.179c-2.867,6.667 -6.021,12.459 -8.625,17.321c-2.596,4.696 -4.737,8.567 -6.333,11.454c-0.679,1.242 -1.246,2.271 -1.713,3.121c-0.379,0.721 -0.562,1.109 -0.525,1.134" style="fill:#1a2e35;fill-rule:nonzero;"/><path d="M2598.57,838.712c0,0.367 41.004,0.867 91.575,1.117c50.588,0.25 91.584,0.154 91.588,-0.213c-0,-0.367 -40.996,-0.867 -91.584,-1.117c-50.566,-0.245 -91.575,-0.154 -91.579,0.213" style="fill:#1a2e35;fill-rule:nonzero;"/><path d="M1641.16,960.951c-0.004,0.367 133.012,1.917 297.058,3.463c164.108,1.545 297.1,2.5 297.104,2.133c0.004,-0.367 -132.983,-1.917 -297.091,-3.463c-164.046,-1.541 -297.071,-2.5 -297.071,-2.133" style="fill:#1a2e35;fill-rule:nonzero;"/><path d="M1120.98,957.614c-0.004,0.367 20.367,0.859 45.488,1.096c25.133,0.238 45.504,0.134 45.508,-0.233c0.004,-0.367 -20.362,-0.858 -45.496,-1.096c-25.12,-0.233 -45.495,-0.133 -45.5,0.233" style="fill:#1a2e35;fill-rule:nonzero;"/><path d="M1235.76,718.548c0,0.021 0.333,0.016 0.975,-0.013c0.708,-0.041 1.654,-0.096 2.858,-0.166c2.584,-0.184 6.263,-0.446 10.971,-0.78c9.525,-0.687 23.3,-1.825 40.309,-3.358c34.016,-3.054 80.954,-7.933 132.633,-14.654c51.696,-6.742 98.321,-14.046 131.987,-19.804c16.834,-2.875 30.438,-5.304 39.821,-7.079c4.634,-0.88 8.259,-1.571 10.804,-2.059c1.18,-0.237 2.109,-0.425 2.805,-0.566c0.629,-0.134 0.945,-0.217 0.941,-0.238c-0.004,-0.021 -0.333,0.013 -0.966,0.104c-0.705,0.109 -1.642,0.254 -2.83,0.438c-2.554,0.429 -6.191,1.037 -10.845,1.812c-9.492,1.584 -23.096,3.859 -39.884,6.663c-33.696,5.516 -80.329,12.671 -132.004,19.412c-51.662,6.717 -98.567,11.746 -132.55,15.038c-16.946,1.587 -30.683,2.879 -40.267,3.775c-4.691,0.441 -8.366,0.783 -10.945,1.029c-1.2,0.125 -2.142,0.225 -2.846,0.296c-0.642,0.075 -0.967,0.129 -0.967,0.15" style="fill:#1a2e35;fill-rule:nonzero;"/><path d="M1897.73,740.84c-0,-0.075 -0.725,-0.071 -2.058,-0.325c-1.325,-0.238 -3.288,-0.792 -5.417,-2.213c-2.1,-1.408 -4.358,-3.808 -5.463,-7.254c-0.579,-1.721 -0.758,-3.617 -0.654,-5.704c0.067,-2.029 0.6,-4.154 1.663,-6.133c2.1,-3.934 6.65,-7.2 11.983,-7.146c5.467,0.066 11.304,0.137 17.433,0.216c12.305,0.134 25.805,0.275 39.98,0.43c3.383,0.033 6.675,1.379 9.075,3.637c2.412,2.238 3.933,5.329 4.241,8.508c0.296,3.25 -0.166,6.434 -1.741,9.117c-1.513,2.683 -3.967,4.696 -6.671,5.817c-2.734,1.183 -5.675,0.983 -8.617,0.966c-2.908,-0.016 -5.733,-0.033 -8.467,-0.045c-5.454,-0.025 -10.541,-0.046 -15.2,-0.063c-9.191,0.004 -16.679,0.004 -22.016,0.008c-2.5,0.025 -4.492,0.05 -5.984,0.067c-1.37,0.029 -2.087,0.071 -2.087,0.117c-0.004,0.046 0.717,0.1 2.083,0.154c1.492,0.046 3.484,0.108 5.984,0.183c5.337,0.104 12.82,0.246 22.012,0.425c4.658,0.067 9.746,0.142 15.196,0.225c2.733,0.038 5.562,0.075 8.471,0.113c1.475,-0.004 2.891,0.087 4.471,0.008c1.554,-0.1 3.129,-0.408 4.616,-1.008c2.963,-1.204 5.65,-3.396 7.325,-6.325c1.742,-2.892 2.254,-6.504 1.942,-9.892c-0.333,-3.487 -1.996,-6.896 -4.646,-9.358c-2.629,-2.479 -6.254,-3.967 -9.975,-4c-14.175,-0.117 -27.675,-0.225 -39.979,-0.325c-6.138,-0.034 -11.979,-0.063 -17.454,-0.092c-5.771,-0.004 -10.629,3.579 -12.813,7.808c-1.112,2.134 -1.646,4.417 -1.683,6.567c-0.071,2.096 0.15,4.188 0.796,5.963c1.241,3.612 3.671,6.062 5.891,7.454c2.255,1.408 4.305,1.887 5.663,2.046c1.371,0.166 2.1,0.054 2.1,0.054" style="fill:#1a2e35;fill-rule:nonzero;"/><path d="M1902.94,707.689c-0.004,0.371 10.146,0.771 22.654,0.888c12.521,0.117 22.671,-0.088 22.675,-0.458c0.005,-0.371 -10.141,-0.771 -22.658,-0.888c-12.512,-0.121 -22.667,0.088 -22.671,0.458" style="fill:#fff;fill-rule:nonzero;"/><path d="M2274.38,746.73c0.004,-0.075 -0.721,-0.075 -2.054,-0.325c-1.325,-0.242 -3.288,-0.792 -5.421,-2.213c-2.096,-1.408 -4.354,-3.808 -5.462,-7.258c-0.575,-1.717 -0.755,-3.613 -0.655,-5.7c0.071,-2.029 0.605,-4.158 1.667,-6.138c2.1,-3.929 6.646,-7.195 11.983,-7.141c5.467,0.066 11.3,0.137 17.434,0.216c12.3,0.13 25.804,0.275 39.975,0.43c3.387,0.033 6.679,1.379 9.079,3.633c2.412,2.242 3.929,5.333 4.242,8.508c0.295,3.254 -0.167,6.438 -1.742,9.121c-1.517,2.679 -3.967,4.696 -6.671,5.813c-2.737,1.187 -5.675,0.983 -8.617,0.966c-2.908,-0.012 -5.733,-0.029 -8.466,-0.041c-5.454,-0.025 -10.542,-0.046 -15.2,-0.063c-9.196,0 -16.679,0.004 -22.021,0.004c-2.496,0.029 -4.492,0.054 -5.983,0.071c-1.367,0.029 -2.088,0.071 -2.088,0.117c0,0.046 0.721,0.096 2.088,0.154c1.491,0.046 3.483,0.104 5.983,0.183c5.333,0.1 12.821,0.246 22.008,0.425c4.659,0.067 9.75,0.142 15.2,0.225c2.734,0.038 5.559,0.071 8.467,0.113c1.475,-0.004 2.896,0.087 4.475,0.008c1.554,-0.1 3.125,-0.408 4.617,-1.008c2.962,-1.204 5.65,-3.396 7.325,-6.325c1.737,-2.892 2.254,-6.504 1.941,-9.892c-0.333,-3.487 -2,-6.896 -4.65,-9.358c-2.625,-2.479 -6.254,-3.967 -9.971,-4c-14.175,-0.117 -27.679,-0.225 -39.979,-0.325c-6.137,-0.034 -11.983,-0.063 -17.454,-0.092c-5.771,-0.004 -10.633,3.579 -12.817,7.808c-1.108,2.134 -1.645,4.413 -1.679,6.567c-0.075,2.096 0.15,4.188 0.796,5.963c1.238,3.612 3.667,6.062 5.892,7.454c2.254,1.408 4.3,1.883 5.662,2.046c1.371,0.166 2.096,0.054 2.096,0.054" style="fill:#1a2e35;fill-rule:nonzero;"/><path d="M2279.6,713.579c-0.004,0.371 10.142,0.771 22.654,0.888c12.521,0.117 22.671,-0.088 22.675,-0.458c0.005,-0.375 -10.141,-0.771 -22.662,-0.888c-12.508,-0.121 -22.663,0.088 -22.667,0.458" style="fill:#fff;fill-rule:nonzero;"/><path d="M1209.33,998.784c-0,0 0.045,-0.612 0.075,-1.808c0.016,-1.233 0.041,-2.996 0.079,-5.292c0.062,-2.325 -0.025,-5.208 0.166,-8.604c0.271,-3.391 0.58,-7.3 0.925,-11.7c0.425,-4.391 1.309,-9.229 2.046,-14.55c0.371,-2.662 1.113,-5.371 1.688,-8.229c0.662,-2.837 1.171,-5.825 2.025,-8.842c3.225,-12.12 7.896,-25.654 14.546,-39.966c6.833,-14.217 15.791,-29.117 27.333,-43.634c11.533,-14.495 25.712,-28.595 42.625,-40.783c16.9,-12.142 36.508,-22.483 58.212,-29.137c21.642,-6.767 45.109,-10.375 69.163,-10.296c24.067,0.371 47.467,4.421 68.983,11.591c21.579,7.063 40.992,17.775 57.663,30.234c16.687,12.508 30.596,26.871 41.854,41.587c11.267,14.734 19.942,29.796 26.508,44.138c6.375,14.441 10.792,28.058 13.788,40.237c0.796,3.029 1.246,6.029 1.854,8.879c0.521,2.863 1.212,5.592 1.533,8.255c0.634,5.337 1.429,10.187 1.767,14.587c0.267,4.404 0.504,8.317 0.708,11.717c0.125,3.396 -0.012,6.275 0.004,8.6c-0.008,2.296 -0.012,4.058 -0.016,5.296c-0,1.191 0.037,1.804 0.037,1.804c0,-0 0.054,-0.609 0.096,-1.8c0.038,-1.234 0.088,-2.996 0.15,-5.296c0.025,-2.325 0.208,-5.213 0.125,-8.613c-0.171,-3.408 -0.367,-7.337 -0.587,-11.75c-0.3,-4.416 -1.059,-9.287 -1.659,-14.637c-0.304,-2.679 -0.979,-5.417 -1.483,-8.292c-0.592,-2.862 -1.025,-5.875 -1.808,-8.925c-2.938,-12.229 -7.305,-25.925 -13.655,-40.446c-6.537,-14.429 -15.204,-29.587 -26.487,-44.425c-11.275,-14.816 -25.233,-29.283 -41.992,-41.895c-16.754,-12.563 -36.283,-23.363 -57.983,-30.488c-21.646,-7.229 -45.183,-11.312 -69.383,-11.683c-24.2,-0.084 -47.805,3.554 -69.571,10.379c-21.829,6.712 -41.554,17.146 -58.538,29.387c-16.996,12.288 -31.216,26.492 -42.771,41.092c-11.562,14.621 -20.512,29.613 -27.32,43.913c-6.625,14.404 -11.246,28.008 -14.417,40.187c-0.838,3.029 -1.329,6.033 -1.975,8.883c-0.563,2.867 -1.283,5.592 -1.642,8.263c-0.7,5.342 -1.55,10.2 -1.933,14.608c-0.304,4.409 -0.571,8.329 -0.808,11.738c-0.15,3.4 -0.017,6.287 -0.038,8.616c0.021,2.3 0.038,4.063 0.05,5.296c0.017,1.196 0.063,1.804 0.063,1.804" style="fill:#1a2e35;fill-rule:nonzero;"/><path d="M2326.08,511.844c-0,0.021 0.387,0.046 1.141,0.075c0.821,0.017 1.93,0.046 3.359,0.079c3.021,0.046 7.354,0.108 12.908,0.192c11.275,0.104 27.479,0.258 47.475,0.446c40.146,0.25 95.5,0.595 156.638,0.979c30.595,0.133 59.733,0.262 86.245,0.379c26.505,0.046 50.392,0.454 70.442,-0.517c20.046,-0.85 36.192,-2.941 47.225,-4.966c5.521,-1.009 9.779,-1.925 12.642,-2.65c1.387,-0.346 2.462,-0.613 3.258,-0.813c0.733,-0.192 1.104,-0.3 1.1,-0.321c0,0 -0.387,0.042 -1.133,0.188c-0.796,0.166 -1.888,0.396 -3.284,0.687c-2.879,0.638 -7.15,1.471 -12.67,2.4c-11.038,1.863 -27.163,3.809 -47.18,4.538c-20.016,0.85 -43.879,0.346 -70.391,0.229c-26.513,-0.15 -55.65,-0.313 -86.242,-0.483c-61.142,-0.23 -116.496,-0.438 -156.642,-0.588c-19.995,-0.012 -36.2,-0.021 -47.475,-0.029c-5.558,0.029 -9.895,0.05 -12.912,0.062c-1.429,0.021 -2.542,0.038 -3.358,0.05c-0.759,0.017 -1.146,0.063 -1.146,0.063" style="fill:#1a2e35;fill-rule:nonzero;"/><path d="M2144.68,577.644c-0.175,0.325 27.442,15.458 61.675,33.808c34.246,18.35 62.133,32.963 62.308,32.638c0.171,-0.321 -27.437,-15.459 -61.683,-33.809c-34.233,-18.345 -62.129,-32.962 -62.3,-32.637" style="fill:#fafafa;fill-rule:nonzero;"/><path d="M2086.7,565.451c-0.021,0.042 0.433,0.329 1.329,0.833c1.021,0.563 2.325,1.284 3.933,2.167c3.579,1.925 8.509,4.567 14.534,7.8c12.275,6.575 29.204,15.717 47.77,26.05c18.567,10.342 35.255,19.917 47.309,26.888c5.921,3.42 10.762,6.216 14.287,8.245c1.6,0.9 2.892,1.63 3.909,2.205c0.9,0.487 1.391,0.729 1.408,0.687c0.025,-0.037 -0.413,-0.354 -1.267,-0.917c-0.987,-0.629 -2.237,-1.429 -3.783,-2.416c-3.3,-2.075 -8.104,-5.021 -14.075,-8.609c-11.942,-7.187 -28.563,-16.895 -47.146,-27.245c-18.575,-10.338 -35.583,-19.355 -47.979,-25.717c-6.196,-3.188 -11.233,-5.721 -14.733,-7.433c-1.65,-0.792 -2.992,-1.434 -4.042,-1.942c-0.933,-0.429 -1.433,-0.638 -1.454,-0.596" style="fill:#fafafa;fill-rule:nonzero;"/><path d="M1834.45,584.209c-0.021,0.042 0.35,0.255 1.075,0.609c0.871,0.412 1.921,0.912 3.187,1.508c2.971,1.363 6.95,3.188 11.784,5.404c9.945,4.559 23.637,10.963 38.6,18.359c14.966,7.408 28.362,14.412 38.021,19.55c4.691,2.495 8.558,4.554 11.441,6.091c1.246,0.642 2.279,1.175 3.134,1.617c0.725,0.354 1.116,0.525 1.141,0.487c0.021,-0.041 -0.325,-0.287 -1.004,-0.72c-0.825,-0.5 -1.817,-1.105 -3.017,-1.838c-2.625,-1.575 -6.466,-3.783 -11.241,-6.458c-9.555,-5.359 -22.9,-12.5 -37.884,-19.917c-14.983,-7.408 -28.758,-13.683 -38.812,-18.029c-5.025,-2.171 -9.113,-3.883 -11.959,-5.017c-1.304,-0.512 -2.391,-0.933 -3.287,-1.283c-0.754,-0.275 -1.163,-0.404 -1.179,-0.363" style="fill:#fafafa;fill-rule:nonzero;"/><path d="M1870.75,580.989c-0.079,0.179 2.73,1.55 7.238,3.808c4.504,2.262 10.692,5.458 17.367,9.267c6.679,3.812 12.579,7.508 16.812,10.237c4.242,2.729 6.85,4.454 6.963,4.292c0.104,-0.138 -2.313,-2.129 -6.438,-5.067c-4.117,-2.942 -9.967,-6.783 -16.679,-10.617c-6.713,-3.829 -13,-6.908 -17.625,-8.962c-4.621,-2.05 -7.571,-3.117 -7.638,-2.958" style="fill:#fafafa;fill-rule:nonzero;"/><path d="M2439.83,584.944c-0.133,0.342 18.171,7.896 40.883,16.867c22.717,8.979 41.234,15.975 41.367,15.633c0.138,-0.342 -18.162,-7.892 -40.879,-16.867c-22.708,-8.975 -41.238,-15.975 -41.371,-15.633" style="fill:#fafafa;fill-rule:nonzero;"/><path d="M2463.55,577.526c-0.125,0.346 15.667,6.596 35.275,13.963c19.617,7.37 35.617,13.062 35.746,12.716c0.125,-0.341 -15.667,-6.591 -35.279,-13.962c-19.608,-7.363 -35.613,-13.063 -35.742,-12.717" style="fill:#fafafa;fill-rule:nonzero;"/><path d="M1386.96,767.876c0.004,0.046 0.725,0.009 2.087,-0.095c1.483,-0.138 3.467,-0.317 5.954,-0.542c1.304,-0.129 2.738,-0.267 4.296,-0.421c1.575,-0.117 3.288,-0.162 5.129,-0.258c3.679,-0.146 7.863,-0.5 12.5,-0.388c2.321,0.004 4.75,0.009 7.275,0.017c2.529,0.017 5.154,0.242 7.875,0.358c5.45,0.159 11.229,0.863 17.325,1.479c12.142,1.584 25.4,4.071 39.017,7.884c13.583,3.937 26.167,8.812 37.321,13.871c5.504,2.683 10.787,5.133 15.504,7.87c2.375,1.334 4.725,2.525 6.883,3.846c2.146,1.329 4.213,2.604 6.188,3.825c4,2.346 7.37,4.854 10.421,6.913c1.508,1.054 2.945,1.996 4.22,2.925c1.246,0.954 2.388,1.829 3.429,2.621c1.992,1.504 3.584,2.7 4.771,3.595c1.104,0.813 1.7,1.221 1.729,1.184c0.025,-0.034 -0.512,-0.513 -1.558,-1.392c-1.15,-0.946 -2.692,-2.208 -4.629,-3.796c-1.021,-0.825 -2.142,-1.733 -3.363,-2.716c-1.254,-0.967 -2.67,-1.942 -4.166,-3.025c-3.021,-2.125 -6.367,-4.692 -10.35,-7.105c-1.971,-1.245 -4.025,-2.55 -6.167,-3.908c-2.154,-1.346 -4.5,-2.567 -6.875,-3.929c-4.717,-2.792 -10.004,-5.288 -15.521,-8.021c-11.183,-5.142 -23.816,-10.079 -37.475,-14.037c-13.687,-3.83 -27.025,-6.296 -39.233,-7.817c-6.129,-0.588 -11.942,-1.254 -17.417,-1.367c-2.733,-0.091 -5.371,-0.296 -7.912,-0.283c-2.538,0.021 -4.971,0.046 -7.304,0.071c-4.655,-0.05 -8.85,0.366 -12.534,0.583c-1.846,0.133 -3.562,0.213 -5.137,0.371c-1.559,0.196 -2.992,0.375 -4.296,0.537c-2.479,0.33 -4.454,0.592 -5.933,0.788c-1.355,0.192 -2.059,0.317 -2.055,0.362" style="fill:#fafafa;fill-rule:nonzero;"/><path d="M2443.61,771.048c0.004,0.046 0.571,0.088 1.65,0.129c1.217,0.029 2.779,0.063 4.717,0.109c2.05,0.008 4.55,0.058 7.45,0.275c2.904,0.183 6.216,0.275 9.85,0.712c1.821,0.183 3.729,0.375 5.712,0.575c1.979,0.225 4.034,0.567 6.159,0.863c4.27,0.529 8.77,1.47 13.52,2.341c9.463,2.009 19.759,4.688 30.35,8.2c10.575,3.579 20.409,7.646 29.213,11.654c8.762,4.1 16.504,8.109 22.862,11.742c3.221,1.738 6.029,3.5 8.534,4.975c2.516,1.463 4.637,2.792 6.362,3.9c1.642,1.021 2.975,1.846 4.008,2.488c0.925,0.558 1.425,0.829 1.45,0.791c0.026,-0.037 -0.42,-0.387 -1.3,-1.012c-0.999,-0.696 -2.287,-1.592 -3.879,-2.7c-1.683,-1.175 -3.766,-2.575 -6.25,-4.1c-2.475,-1.538 -5.254,-3.359 -8.458,-5.159c-6.313,-3.75 -14.042,-7.854 -22.813,-12.033c-8.812,-4.083 -18.679,-8.208 -29.308,-11.804c-10.646,-3.533 -21.008,-6.192 -30.525,-8.138c-4.783,-0.85 -9.312,-1.75 -13.612,-2.237c-2.142,-0.271 -4.204,-0.588 -6.2,-0.792c-1.992,-0.166 -3.909,-0.333 -5.746,-0.487c-3.654,-0.379 -6.983,-0.409 -9.896,-0.525c-2.917,-0.142 -5.429,-0.117 -7.483,-0.046c-1.938,0.058 -3.504,0.104 -4.721,0.137c-1.079,0.05 -1.646,0.096 -1.646,0.142" style="fill:#fafafa;fill-rule:nonzero;"/><path d="M2898.44,1266.35l-1984.42,16.98l0,-76.913l1984.42,0l0,59.933Z" style="fill:#1a2e35;fill-rule:nonzero;"/><rect x="345.533" y="1157.96" width="479.513" height="202.204" style="fill:#1a2e35;"/><rect x="308.925" y="1332.59" width="2455.49" height="141.513" style="fill:#1a2e35;"/><path d="M815.888,1378.39l89.587,-0l0,-644.93c0,-36.387 -29.5,-65.883 -65.887,-65.883l-23.7,0l-0,710.813Z" style="fill:#1a2e35;fill-rule:nonzero;"/><path d="M25.515,1017.25c0.18,-29.088 11.305,-48.475 31.909,-77.829l266.579,-336.23c6.929,-7.116 17.058,-11.391 27.642,-11.391l425.041,-0c21.65,-0 39.2,17.55 39.2,39.2l0,518.846c0,46.22 -37.971,83.42 -84.183,82.47c-364.496,-52.27 -428.954,228.688 -428.954,228.688l-273.8,-4.763l-3.604,-410.904l0.17,-28.087Z" style="fill:#e1e1e1;fill-rule:nonzero;"/><path d="M33.684,977.377l31.304,-0.675l266.646,-347.216l-24.946,-4.392c-0,-0 -177.979,221.529 -252.925,319.587c-10.008,13.096 -14.783,24.484 -20.079,32.696" style="fill:#375a64;fill-rule:nonzero;"/><path d="M716.401,669.799l-316.95,-1.938c-9.429,-0.058 -18.492,3.971 -25.158,11.188l-195.517,258.383c-14.342,17.625 -1.775,43.996 20.946,43.963l516.475,-0.771c19.104,-0 34.591,-16.763 34.591,-37.446l0,-235.933c0,-20.596 -15.362,-37.325 -34.387,-37.446" style="fill:#375a64;fill-rule:nonzero;"/><rect x="836.15" y="1252.99" width="2048.95" height="110.313" style="fill:#1a2e35;"/><path d="M2638.68,1428.5l48.279,0c10.266,0 18.591,-8.325 18.591,-18.591c0,-10.271 -8.325,-18.592 -18.591,-18.592l-48.279,0c-10.271,0 -18.592,8.321 -18.592,18.592c-0,10.266 8.321,18.591 18.592,18.591" style="fill:#ffcb00;fill-rule:nonzero;"/><path d="M132.469,1555.99l748.067,-0c22.612,-0 40.942,-18.329 40.942,-40.942c-0,-22.612 -18.33,-40.946 -40.942,-40.946l-748.067,0c-22.612,0 -40.946,18.334 -40.946,40.946c0,22.613 18.334,40.942 40.946,40.942" style="fill:#1a2e35;fill-rule:nonzero;"/><rect x="878.817" y="1502.81" width="1099.55" height="37.663" style="fill:#1a2e35;"/><path d="M1145.66,1570.78l346.746,0c60.629,0 109.775,-49.15 109.775,-109.775l-0,-0.004c-0,-60.621 -49.146,-109.771 -109.775,-109.771l-346.746,0c-60.629,0 -109.775,49.15 -109.775,109.771l0,0.004c0,60.625 49.146,109.775 109.775,109.775" style="fill:#375a64;fill-rule:nonzero;"/><path d="M1140.8,1077.34l-107.821,-288.021l-72.087,3.942l-4.175,423.346l1952.7,14.146l-0.512,-135.959l-1768.11,-17.454Z" style="fill:#375a64;fill-rule:nonzero;"/><path d="M2909.42,1181.08l-1952.49,3.946l-0.2,-56.417l1952.69,3.088l0,49.383Z" style="fill:#fff;fill-rule:nonzero;"/><path d="M2255.54,1130.66l-72.216,51.329l69.508,-0.17l70.954,-51.05l-68.246,-0.109Z" style="fill:#ffcb00;fill-rule:nonzero;"/><path d="M2102.77,1130.92l-72.216,51.33l69.508,-0.171l70.954,-51.05l-68.246,-0.109Z" style="fill:#ffcb00;fill-rule:nonzero;"/><path d="M1950.44,1130.18l-72.987,52.567l69.508,-0.171l72.971,-52.292l-69.492,-0.104Z" style="fill:#ffcb00;fill-rule:nonzero;"/><path d="M1798.37,1129.94l-73.85,53.192l69.512,-0.175l72.15,-52.909l-67.812,-0.108Z" style="fill:#ffcb00;fill-rule:nonzero;"/><path d="M1646.85,1129.7l-75.108,53.804l69.371,-0.175l74.395,-53.525l-68.658,-0.104Z" style="fill:#ffcb00;fill-rule:nonzero;"/><path d="M1493.24,1129.46l-74.584,54.425l69.517,-0.171l74.104,-54.146l-69.037,-0.108Z" style="fill:#ffcb00;fill-rule:nonzero;"/><path d="M1341.87,1129.22l-76.138,55.041l69.517,-0.171l75.212,-54.762l-68.591,-0.108Z" style="fill:#ffcb00;fill-rule:nonzero;"/><path d="M1190.08,1128.98l-77.279,55.658l69.517,-0.171l74.766,-55.383l-67.004,-0.104Z" style="fill:#ffcb00;fill-rule:nonzero;"/><path d="M1036.95,1128.74l-75.508,56.321l69.508,-0.171l73.875,-56.041l-67.875,-0.109Z" style="fill:#ffcb00;fill-rule:nonzero;"/><path d="M2396.14,1130.35l-72.45,51.729l69.509,-0.171l71.958,-50.916l-69.017,-0.642Z" style="fill:#ffcb00;fill-rule:nonzero;"/><path d="M2536.43,1131.11l-71.612,50.9l68.05,0.075l71.808,-50.804l-68.246,-0.171Z" style="fill:#ffcb00;fill-rule:nonzero;"/><path d="M2681.26,1131.11l-75.925,50.775l69.504,-0.171l71.525,-50.604l-65.104,-0Z" style="fill:#ffcb00;fill-rule:nonzero;"/><path d="M2815.76,1131.76l-71.613,50.116l69.504,-0.17l70.359,-49.775l-68.25,-0.171Z" style="fill:#ffcb00;fill-rule:nonzero;"/><path d="M784.091,1214.9c-0,-0 -0.075,-1.588 -0.113,-4.684c-0.025,-3.145 -0.062,-7.741 -0.108,-13.754c-0.046,-12.137 -0.117,-29.954 -0.204,-52.883c-0.079,-45.971 -0.196,-112.413 -0.346,-194.5c-0.037,-41.063 -0.083,-86.033 -0.129,-134.313c-0.017,-24.137 -0.038,-49.104 -0.054,-74.82c-0.009,-12.859 -0.017,-25.909 -0.025,-39.13c-0.005,-6.612 -0.009,-13.27 -0.013,-19.97c-0.187,-6.7 0.554,-13.521 -0.979,-19.938c-2.804,-12.95 -12.858,-24.275 -25.808,-28.433c-6.442,-2.3 -13.371,-1.95 -20.438,-1.959c-7.025,0.005 -14.091,0.005 -21.196,0.009c-28.416,0.008 -57.429,0.016 -86.966,0.025c-59.071,0.008 -120.234,0.016 -182.879,0.025c-15.667,-0.004 -31.238,-0.004 -46.709,-0.004l-11.587,-0c-3.879,0.041 -7.704,-0.175 -11.371,0.4c-7.413,1.016 -14.446,4.283 -20.05,9.15c-2.854,2.404 -5.104,5.3 -7.367,8.408l-6.821,9.104c-4.541,6.058 -9.062,12.096 -13.566,18.108c-9.009,12.025 -17.942,23.95 -26.796,35.771c-35.433,47.279 -69.613,92.884 -102.171,136.329c-16.283,21.721 -32.162,42.9 -47.592,63.475c-7.716,10.288 -15.316,20.425 -22.8,30.405c-7.362,10.083 -15.379,19.458 -20.854,30.125c-5.604,10.583 -9.433,21.862 -11.441,33.245c-0.992,5.696 -1.538,11.409 -1.663,17.075c0.017,5.705 0.029,11.35 0.042,16.942c-0.029,22.408 -0.059,43.921 -0.092,64.45c-0.171,82.092 -0.312,148.533 -0.408,194.5c-0.096,22.929 -0.171,40.742 -0.221,52.879c-0.05,6.013 -0.088,10.604 -0.113,13.75c-0.037,3.096 -0.112,4.684 -0.112,4.684c-0,-0 -0.075,-1.588 -0.108,-4.684c-0.026,-3.146 -0.059,-7.737 -0.105,-13.75c-0.041,-12.133 -0.104,-29.946 -0.183,-52.875c-0.067,-45.962 -0.162,-112.391 -0.283,-194.475c-0.013,-20.529 -0.029,-42.037 -0.046,-64.446c-0.025,-5.612 -0.05,-11.283 -0.079,-17.008c0.121,-5.758 0.662,-11.558 1.658,-17.342c2.017,-11.562 5.892,-23.025 11.567,-33.787c5.583,-10.896 13.645,-20.346 20.954,-30.396c7.475,-9.992 15.062,-20.137 22.762,-30.437c15.409,-20.6 31.263,-41.796 47.521,-63.534c32.529,-43.475 66.679,-89.112 102.079,-136.421c8.855,-11.825 17.784,-23.758 26.788,-35.787c4.5,-6.013 9.021,-12.05 13.558,-18.113l6.821,-9.108c2.196,-3.029 4.654,-6.192 7.658,-8.717c5.909,-5.137 13.334,-8.587 21.159,-9.662c3.946,-0.604 7.858,-0.379 11.675,-0.425l58.296,-0c62.645,0.008 123.808,0.012 182.879,0.021c29.537,0.008 58.55,0.016 86.966,0.025c7.105,0.004 14.171,0.008 21.196,0.008c6.917,0.021 14.275,-0.35 21.071,2.083c13.633,4.392 24.192,16.3 27.129,29.934c0.392,1.687 0.6,3.421 0.821,5.133c0.063,1.721 0.233,3.488 0.188,5.154c-0,3.371 -0,6.734 -0.005,10.084c-0.004,6.7 -0.008,13.358 -0.012,19.97c-0.009,13.221 -0.017,26.271 -0.021,39.13c-0.021,25.716 -0.038,50.683 -0.054,74.82c-0.05,48.28 -0.092,93.25 -0.134,134.313c-0.145,82.087 -0.262,148.529 -0.345,194.5c-0.088,22.929 -0.159,40.746 -0.205,52.883c-0.045,6.013 -0.083,10.609 -0.108,13.754c-0.033,3.096 -0.108,4.684 -0.108,4.684" style="fill:#1a2e35;fill-rule:nonzero;"/><path d="M335.297,991.965c-18.904,-0 -34.225,-15.325 -34.225,-34.229l0,-122.275c0,-18.9 15.321,-34.225 34.225,-34.225c18.904,-0 34.225,15.325 34.225,34.225l0,122.275c0,18.904 -15.321,34.229 -34.225,34.229" style="fill:#1a2e35;fill-rule:nonzero;"/><path d="M259.064,1034.46l-12.5,-0l0,-132.25c0,-15.534 9,-29.984 22.925,-36.817c32.108,-15.75 36.625,-16.396 38.554,-16.671l1.767,12.375l-0.883,-6.187l0.891,6.187c-0.796,0.125 -6.212,1.484 -34.825,15.517c-9.675,4.75 -15.929,14.796 -15.929,25.596l0,132.25Z" style="fill:#1a2e35;fill-rule:nonzero;"/><rect x="253.938" y="939.556" width="71.821" height="12.5" style="fill:#1a2e35;"/><path d="M254.434,1069.81c-13.292,0 -24.071,-10.775 -24.071,-24.066l-0,-29.705c-0,-13.295 10.779,-24.07 24.071,-24.07c13.291,-0 24.071,10.775 24.071,24.07l-0,29.705c-0,13.291 -10.78,24.066 -24.071,24.066" style="fill:#1a2e35;fill-rule:nonzero;"/><path d="M650.145,591.798l-174.275,0c0,-12.833 10.4,-23.237 23.233,-23.237l127.805,-0c12.833,-0 23.237,10.404 23.237,23.237" style="fill:#e1e1e1;fill-rule:nonzero;"/><path d="M623.825,568.562l-113.13,-0c0,-27.354 22.175,-49.533 49.534,-49.533l14.062,-0c27.359,-0 49.534,22.179 49.534,49.533" style="fill:#ffcb00;fill-rule:nonzero;"/><path d="M652.574,732.281c0.375,0.466 -43.4,35.983 -97.758,79.312c-54.379,43.342 -98.75,78.092 -99.121,77.621c-0.375,-0.467 43.392,-35.975 97.767,-79.321c54.358,-43.325 98.737,-78.079 99.112,-77.612" style="fill:#fff;fill-rule:nonzero;"/><path d="M625.422,793.424c0.375,0.466 -43.4,35.983 -97.759,79.312c-54.375,43.342 -98.745,78.092 -99.12,77.625c-0.371,-0.471 43.391,-35.979 97.766,-79.325c54.363,-43.325 98.742,-78.079 99.113,-77.612" style="fill:#fff;fill-rule:nonzero;"/><path d="M822.895,1515.04c0,116.375 -94.342,210.717 -210.717,210.717c-116.379,0 -210.72,-94.342 -210.72,-210.717c-0,-116.379 94.341,-210.716 210.72,-210.716c116.375,-0 210.717,94.337 210.717,210.716" style="fill:#375a64;fill-rule:nonzero;"/><path d="M822.866,1514.5c0,0.183 0.029,0.362 0.029,0.546c0,116.375 -94.341,210.716 -210.716,210.716c-116.379,0 -210.721,-94.341 -210.721,-210.716c-0.004,-0.184 0.025,-0.363 0.025,-0.546l421.383,-0Z" style="fill:#375a64;fill-rule:nonzero;"/><path d="M760.114,1515.04c0,81.705 -66.233,147.942 -147.937,147.942c-81.704,0 -147.942,-66.237 -147.942,-147.942c0,-81.704 66.238,-147.941 147.942,-147.941c81.704,-0 147.937,66.237 147.937,147.941" style="fill:#fafafa;fill-rule:nonzero;"/><path d="M612.177,1367.1c81.704,0 147.938,66.233 147.938,147.942l-295.88,-0c0,-81.709 66.238,-147.942 147.942,-147.942" style="fill:#e1e1e1;fill-rule:nonzero;"/><path d="M702.293,1515.04c0,49.771 -40.35,90.117 -90.116,90.117c-49.771,0 -90.121,-40.35 -90.121,-90.117c-0,-49.77 40.35,-90.116 90.121,-90.116c49.766,-0 90.116,40.346 90.116,90.116" style="fill:#1a2e35;fill-rule:nonzero;"/><path d="M2327.67,1514.5c-0,116.379 -94.346,210.721 -210.721,210.717c-116.379,-0 -210.721,-94.342 -210.721,-210.717c0,-116.375 94.342,-210.717 210.725,-210.717c116.371,0 210.717,94.342 210.717,210.717" style="fill:#375a64;fill-rule:nonzero;"/><path d="M2327.64,1513.96c0.004,0.183 0.034,0.362 0.034,0.541c-0,116.38 -94.346,210.721 -210.721,210.717c-116.379,0 -210.721,-94.342 -210.721,-210.717c-0,-0.183 0.025,-0.358 0.029,-0.541l421.379,-0Z" style="fill:#375a64;fill-rule:nonzero;"/><path d="M2264.89,1514.5c0,81.704 -66.233,147.942 -147.933,147.942c-81.709,-0 -147.942,-66.238 -147.942,-147.942c0,-81.7 66.233,-147.938 147.942,-147.938c81.7,0 147.933,66.238 147.933,147.938" style="fill:#fafafa;fill-rule:nonzero;"/><path d="M2116.95,1366.56c81.7,-0 147.934,66.233 147.934,147.937l-295.876,0c0,-81.704 66.234,-147.937 147.942,-147.937" style="fill:#e1e1e1;fill-rule:nonzero;"/><path d="M2207.07,1514.5c0,49.771 -40.346,90.117 -90.116,90.117c-49.767,-0 -90.117,-40.346 -90.117,-90.117c-0,-49.771 40.35,-90.117 90.121,-90.117c49.766,0 90.112,40.346 90.112,90.117" style="fill:#1a2e35;fill-rule:nonzero;"/><path d="M2738.35,1356.51c-0,-0 -1.842,0.083 -5.446,0.121c-3.642,0.033 -8.983,0.079 -15.983,0.137c-14.088,0.075 -34.796,0.183 -61.454,0.325c-53.405,0.183 -130.617,0.446 -226.017,0.775c-190.883,0.446 -454.504,1.063 -745.679,1.742c-359.804,0.491 -677.463,0.929 -867.029,1.187l-0.617,0l-0,-0.616c0.121,-59.296 0.221,-106.188 0.287,-138.309c0.067,-16.016 0.125,-28.337 0.159,-36.7c0.037,-4.133 0.066,-7.283 0.083,-9.441c0.029,-2.121 0.088,-3.196 0.088,-3.196c-0,-0 0.054,1.075 0.083,3.196c0.021,2.158 0.046,5.308 0.083,9.441c0.038,8.363 0.092,20.684 0.163,36.7c0.066,32.121 0.162,79.013 0.283,138.309l-0.612,-0.621c189.566,-0.463 507.225,-1.238 867.029,-2.117c291.175,-0.437 554.796,-0.829 745.679,-1.108c95.4,-0.038 172.612,-0.067 226.017,-0.084c26.658,0.034 47.366,0.063 61.454,0.084c7,0.033 12.341,0.058 15.983,0.079c3.604,0.025 5.446,0.096 5.446,0.096" style="fill:#375a64;fill-rule:nonzero;"/><path d="M38.717,1483.37l271.375,0c19.575,0 35.442,-15.871 35.442,-35.446l-0,-43.112c-0,-19.575 -15.867,-35.442 -35.442,-35.442l-271.375,0c-19.575,0 -35.442,15.867 -35.442,35.442l0,43.112c0,19.575 15.867,35.446 35.442,35.446" style="fill:#1a2e35;fill-rule:nonzero;"/><path d="M38.717,1483.37c0,0 -0.742,0.038 -2.2,0c-1.458,-0.008 -3.637,-0.225 -6.412,-0.875c-5.446,-1.242 -13.83,-4.725 -20.417,-13.567c-3.279,-4.345 -5.783,-10.087 -6.65,-16.691c-0.375,-3.325 -0.304,-6.754 -0.325,-10.3c-0.017,-3.559 -0.029,-7.254 -0.046,-11.079c-0.025,-7.65 -0.054,-15.834 -0.083,-24.509c-0.309,-8.75 2.575,-18.4 9.233,-25.716c6.496,-7.346 16.621,-12.296 27.425,-12.1c10.517,-0.017 21.454,-0.038 32.779,-0.063c22.659,-0.029 46.863,-0.067 72.329,-0.1c50.946,-0.025 106.942,-0.054 165.721,-0.083c7.575,0.041 15.088,2.391 21.167,6.779c6.079,4.337 10.817,10.517 13.225,17.492c1.229,3.47 1.996,7.116 2.075,10.775c0.146,3.637 0.037,7.116 0.071,10.658c-0.004,7.05 -0.009,14.042 -0.013,20.971c0,3.466 -0.004,6.916 -0.004,10.35c0.083,3.383 -0.154,7.021 -0.862,10.416c-0.742,3.43 -2.05,6.696 -3.659,9.759c-1.7,3.033 -3.816,5.779 -6.2,8.246c-4.896,4.816 -11.037,8.233 -17.6,9.704c-3.25,0.75 -6.666,0.987 -9.883,0.941c-3.221,-0.004 -6.425,-0.008 -9.608,-0.012c-50.93,-0.083 -96.8,-0.167 -135.355,-0.229c-38.462,-0.15 -69.612,-0.267 -91.25,-0.346c-10.7,-0.088 -19.045,-0.158 -24.808,-0.204c-2.767,-0.046 -4.912,-0.084 -6.45,-0.109c-1.454,-0.033 -2.2,-0.108 -2.2,-0.108c0,0 0.746,-0.079 2.2,-0.112c1.538,-0.025 3.683,-0.063 6.45,-0.109c5.763,-0.046 14.108,-0.116 24.808,-0.204c21.638,-0.079 52.788,-0.196 91.25,-0.346c38.555,-0.062 84.425,-0.146 135.355,-0.229c3.183,-0.004 6.387,-0.008 9.608,-0.012c3.229,0.037 6.321,-0.192 9.429,-0.913c6.192,-1.392 11.975,-4.629 16.592,-9.179c2.241,-2.333 4.233,-4.929 5.833,-7.783c1.513,-2.9 2.738,-5.967 3.433,-9.2c0.659,-3.263 0.884,-6.488 0.8,-9.971c0,-3.434 -0.004,-6.884 -0.004,-10.35c-0.004,-6.929 -0.008,-13.921 -0.008,-20.971c-0.1,-7.079 0.554,-14.188 -2.033,-20.708c-2.263,-6.559 -6.734,-12.375 -12.45,-16.45c-5.721,-4.134 -12.775,-6.334 -19.909,-6.38c-58.779,-0.025 -114.775,-0.054 -165.721,-0.083c-25.466,-0.037 -49.67,-0.071 -72.329,-0.1c-11.325,-0.021 -22.262,-0.042 -32.779,-0.062c-10.358,-0.23 -20.008,4.445 -26.283,11.45c-6.413,7.004 -9.234,16.15 -8.992,24.691c-0.033,8.675 -0.058,16.859 -0.083,24.509c-0.017,3.825 -0.034,7.52 -0.046,11.079c-0.013,3.562 -0.108,6.983 0.229,10.179c0.783,6.421 3.15,12.037 6.304,16.317c6.325,8.716 14.492,12.279 19.838,13.637c5.483,1.363 8.525,1.108 8.508,1.3" style="fill:#375a64;fill-rule:nonzero;"/><path d="M230.455,1449.94l44.721,0c10.166,0 18.412,-8.246 18.412,-18.412c0,-10.171 -8.245,-18.417 -18.412,-18.417l-44.721,0c-10.171,0 -18.412,8.246 -18.412,18.417c-0,10.166 8.241,18.412 18.412,18.412" style="fill:#ffcb00;fill-rule:nonzero;"/><path d="M33.684,1347.14l-0,-142.417c25.891,0 46.879,20.988 46.879,46.879l-0,48.659c-0,25.891 -20.988,46.879 -46.879,46.879" style="fill:#f5f5f5;fill-rule:nonzero;"/><path d="M361.282,938.272c-0.15,0 -0.304,-1.933 -0.458,-5.441c-0.121,-3.934 -0.275,-8.909 -0.454,-14.838c-0.288,-12.533 -0.534,-29.85 -0.671,-48.971c-0.05,-9.533 -0.1,-18.612 -0.146,-26.946c-0.092,-8.191 -1.238,-15.616 -4.258,-20.945c-2.955,-5.371 -7.13,-8.484 -10.246,-9.813c-3.154,-1.379 -5.167,-1.317 -5.138,-1.537c0.004,-0.075 0.488,-0.109 1.429,-0.1c0.93,0.083 2.33,0.225 4.021,0.85c3.371,1.154 7.959,4.25 11.263,9.837c3.396,5.579 4.725,13.35 4.929,21.654c0.1,8.346 0.204,17.438 0.317,26.984c0.137,19.125 0.141,36.441 0.033,48.975c-0.096,5.933 -0.175,10.908 -0.238,14.845c-0.104,3.505 -0.233,5.446 -0.383,5.446" style="fill:#fff;fill-rule:nonzero;"/><path d="M726.073,589.953c-0,0.6 -66.046,1.087 -147.496,1.087c-81.483,0 -147.512,-0.487 -147.512,-1.087c-0,-0.6 66.029,-1.084 147.512,-1.084c81.45,0 147.496,0.484 147.496,1.084" style="fill:#1a2e35;fill-rule:nonzero;"/><path d="M575.267,530.679c-0.087,0.359 -3.796,-0.658 -9.871,-0.766c-6.025,-0.138 -14.541,0.983 -22.741,5.196c-8.2,4.22 -14.067,10.5 -17.455,15.483c-3.445,5.004 -4.775,8.612 -5.12,8.471c-0.213,-0.054 0.604,-3.904 3.833,-9.304c3.162,-5.363 9.129,-12.142 17.75,-16.58c8.621,-4.429 17.604,-5.341 23.804,-4.795c6.271,0.512 9.879,2.087 9.8,2.295" style="fill:#fff;fill-rule:nonzero;"/><path d="M711.725,1063.74c-0.004,-0.121 0.88,-0.092 2.484,-0.446c1.583,-0.354 3.954,-1.091 6.337,-3.058c2.338,-1.925 4.663,-5.204 5.113,-9.521c0.496,-4.237 -1.221,-9.471 -5.596,-12.683c-2.129,-1.609 -4.875,-2.634 -7.779,-2.704c-3.075,0.012 -6.267,0.02 -9.567,0.029c-6.65,0.033 -13.733,0.066 -21.183,0.104c-14.95,0.025 -31.334,0.054 -48.542,0.083c-4.004,-0.012 -7.867,1.854 -10.371,4.829c-2.537,2.963 -3.6,6.98 -3.046,10.705c0.521,3.733 2.675,7.112 5.655,9.183c1.483,1.046 3.162,1.779 4.9,2.154c1.712,0.396 3.52,0.3 5.425,0.325c14.858,0.083 28.27,0.167 39.645,0.229c11.071,0.146 20.13,0.263 26.725,0.346c2.967,0.083 5.371,0.154 7.267,0.204c1.663,0.071 2.533,0.142 2.533,0.221c0,0.075 -0.87,0.146 -2.533,0.217c-1.892,0.05 -4.3,0.121 -7.267,0.204c-6.595,0.083 -15.654,0.2 -26.725,0.346c-11.375,0.062 -24.787,0.146 -39.645,0.229c-1.813,-0.013 -3.817,0.121 -5.855,-0.329c-2,-0.417 -3.941,-1.25 -5.654,-2.446c-3.446,-2.367 -5.954,-6.25 -6.575,-10.575c-0.658,-4.292 0.567,-8.967 3.496,-12.404c2.892,-3.454 7.388,-5.625 12.025,-5.609c17.208,0.034 33.592,0.063 48.542,0.084c7.45,0.037 14.533,0.071 21.183,0.104c3.325,0.033 6.538,0.062 9.633,0.092c3.255,0.133 6.305,1.333 8.638,3.154c4.792,3.646 6.537,9.471 5.875,14.046c-0.613,4.679 -3.238,8.112 -5.796,10.045c-2.604,1.975 -5.133,2.6 -6.783,2.821c-1.675,0.229 -2.559,0.021 -2.559,0.021" style="fill:#1a2e35;fill-rule:nonzero;"/><path d="M581.356,1179.44l-251.321,0c-17.02,0 -30.812,-13.8 -30.812,-30.816l-0,-34.963c-0,-17.016 13.792,-30.812 30.812,-30.812l251.321,-0c17.017,-0 30.813,13.796 30.813,30.812l-0,34.963c-0,17.016 -13.796,30.816 -30.813,30.816" style="fill:#ffcb00;fill-rule:nonzero;"/><path d="M561.98,1120.33c-0,0.6 -49.717,1.087 -111.03,1.087c-61.337,0 -111.041,-0.487 -111.041,-1.087c-0,-0.6 49.704,-1.088 111.041,-1.088c61.313,0 111.03,0.488 111.03,1.088" style="fill:#fff;fill-rule:nonzero;"/><path d="M540.738,1141.96c-0.001,0.6 -36.596,1.087 -81.73,1.087c-45.15,0 -81.737,-0.487 -81.737,-1.087c-0,-0.6 36.587,-1.088 81.737,-1.088c45.134,0 81.729,0.488 81.729,1.088" style="fill:#fff;fill-rule:nonzero;"/><path d="M2898.44,1266.35c0,0 -1.746,0.075 -5.15,0.105c-3.45,0.02 -8.504,0.05 -15.121,0.091c-13.333,0.034 -32.925,0.075 -58.141,0.138c-50.529,-0.075 -123.575,-0.179 -213.825,-0.313c-180.554,-0.596 -429.967,-2.591 -705.421,-5.329c-275.554,-2.742 -524.988,-4.983 -705.533,-5.967c-90.246,-0.425 -163.284,-0.766 -213.805,-1.004c-25.212,-0.116 -44.8,-0.208 -58.129,-0.271c-6.616,-0.05 -11.671,-0.091 -15.116,-0.125c-3.409,-0.037 -5.155,-0.112 -5.155,-0.112c0,-0 1.746,-0.075 5.155,-0.108c3.445,-0.021 8.5,-0.05 15.116,-0.088c13.329,-0.033 32.917,-0.079 58.129,-0.137c50.525,0.07 123.563,0.179 213.813,0.312c180.554,0.588 429.992,2.592 705.542,5.329c275.462,2.738 524.866,4.979 705.412,5.967c90.246,0.421 163.292,0.762 213.821,1.004c25.212,0.113 44.804,0.208 58.137,0.267c6.617,0.054 11.671,0.096 15.121,0.125c3.404,0.037 5.15,0.116 5.15,0.116" style="fill:#375a64;fill-rule:nonzero;"/></g></svg>